SplineFontDB: 3.2
FontName: ZainRo-ExtraLight
FullName: ZainRo ExtraLight
FamilyName: ZainRo ExtraLight
Weight: ExtraLight
Copyright: Copyright 2024 The Zain Project Authors (https://github.com/googlefonts/zain) and 2025 Lazar (https://bylazar.com)
Version: 1.51; ttfautohint (v1.8.4)
ItalicAngle: 0
UnderlinePosition: -100
UnderlineWidth: 50
Ascent: 800
Descent: 200
InvalidEm: 0
sfntRevision: 0x0001828f
LayerCount: 2
Layer: 0 1 "Back" 1
Layer: 1 1 "Fore" 0
XUID: [1021 736 -289526145 23419]
StyleMap: 0x0040
FSType: 0
OS2Version: 4
OS2_WeightWidthSlopeOnly: 0
OS2_UseTypoMetrics: 1
CreationTime: 1722724800
ModificationTime: 1760719638
PfmFamily: 81
TTFWeight: 200
TTFWidth: 5
LineGap: 0
VLineGap: 0
Panose: 0 0 9 0 0 0 0 0 0 0
OS2TypoAscent: 900
OS2TypoAOffset: 0
OS2TypoDescent: -500
OS2TypoDOffset: 0
OS2TypoLinegap: 0
OS2WinAscent: 881
OS2WinAOffset: 0
OS2WinDescent: 501
OS2WinDOffset: 0
HheadAscent: 900
HheadAOffset: 0
HheadDescent: -500
HheadDOffset: 0
OS2SubXSize: 650
OS2SubYSize: 600
OS2SubXOff: 0
OS2SubYOff: 75
OS2SupXSize: 650
OS2SupYSize: 600
OS2SupXOff: 0
OS2SupYOff: 350
OS2StrikeYSize: 45
OS2StrikeYPos: 267
OS2CapHeight: 556
OS2XHeight: 360
OS2Vendor: '1BOU'
OS2CodePages: 00000041.00000000
OS2UnicodeRanges: 800020af.d000204a.00000008.00000000
Lookup: 1 0 0 "'aalt' Access All Alternates lookup 0" { "'aalt' Access All Alternates lookup 0 subtable"  } ['aalt' ('DFLT' <'dflt' > 'arab' <'URD ' 'dflt' > 'latn' <'dflt' > ) ]
Lookup: 3 0 0 "'aalt' Access All Alternates lookup 1" { "'aalt' Access All Alternates lookup 1 subtable"  } ['aalt' ('DFLT' <'dflt' > 'arab' <'URD ' 'dflt' > 'latn' <'dflt' > ) ]
Lookup: 1 0 0 "Single Substitution lookup 2" { "Single Substitution lookup 2 subtable"  } []
Lookup: 1 0 0 "'sups' Superscript lookup 3" { "'sups' Superscript lookup 3 subtable" ("superior") } ['sups' ('DFLT' <'dflt' > 'arab' <'URD ' 'dflt' > 'latn' <'dflt' > ) ]

StartChar: .notdef
Encoding: 65536 -1 0
Width: 524
GlyphClass: 1
Flags: W
LayerCount: 2
Fore
SplineSet
37 539 m 1,0,-1
 486 539 l 1,1,-1
 486 -248 l 1,2,-1
 37 -248 l 1,3,-1
 37 539 l 1,0,-1
60 517 m 1,4,-1
 60 -226 l 1,5,-1
 464 -226 l 1,6,-1
 464 517 l 1,7,-1
 60 517 l 1,4,-1
238 22 m 1,8,-1
 238 59 l 2,9,10
 238 82 238 82 251.5 101.5 c 128,-1,11
 265 121 265 121 299 147 c 0,12,13
 340 179 340 179 355.5 204 c 128,-1,14
 371 229 371 229 372 262 c 0,15,16
 372 311 372 311 341 339 c 128,-1,17
 310 367 310 367 257 367 c 0,18,19
 226 367 226 367 193.5 356.5 c 128,-1,20
 161 346 161 346 136 326 c 0,21,22
 135 325 135 325 132.5 324 c 128,-1,23
 130 323 130 323 128 322 c 1,24,-1
 123 340 l 2,25,26
 121 346 121 346 122 349 c 0,27,28
 123 359 123 359 149 372 c 0,29,30
 174 386 174 386 201 392 c 128,-1,31
 228 398 228 398 256 399 c 0,32,33
 327 399 327 399 367.5 362.5 c 128,-1,34
 408 326 408 326 406 263 c 0,35,36
 405 226 405 226 384.5 196 c 128,-1,37
 364 166 364 166 309 122 c 0,38,39
 293 109 293 109 288 104 c 0,40,41
 275 94 275 94 271 84.5 c 128,-1,42
 267 75 267 75 267 55 c 2,43,-1
 267 22 l 1,44,-1
 238 22 l 1,8,-1
252 -108 m 0,45,46
 225 -106 225 -106 225 -80 c 0,47,48
 225 -67 225 -67 233 -59 c 128,-1,49
 241 -51 241 -51 252 -51 c 256,50,51
 263 -51 263 -51 271.5 -59.5 c 128,-1,52
 280 -68 280 -68 280 -80 c 0,53,54
 280 -106 280 -106 252 -108 c 0,45,46
EndSplineSet
EndChar

StartChar: exclam
Encoding: 33 33 3
Width: 139
GlyphClass: 1
Flags: W
LayerCount: 2
Fore
SplineSet
60 124 m 2,0,-1
 59 553 l 2,1,2
 59 556 59 556 62 556 c 2,3,-1
 63 556 l 2,4,5
 71 556 71 556 78 549.5 c 128,-1,6
 85 543 85 543 85 528 c 2,7,-1
 83 124 l 2,8,9
 83 121 83 121 81 121 c 2,10,-1
 63 121 l 2,11,12
 60 121 60 121 60 124 c 2,0,-1
39 13 m 256,13,14
 39 26 39 26 48 35.5 c 128,-1,15
 57 45 57 45 70 45 c 256,16,17
 83 45 83 45 92 35.5 c 128,-1,18
 101 26 101 26 101 13 c 256,19,20
 101 0 101 0 92 -9 c 128,-1,21
 83 -18 83 -18 70 -18 c 256,22,23
 57 -18 57 -18 48 -9 c 128,-1,24
 39 0 39 0 39 13 c 256,13,14
EndSplineSet
Substitution2: "'locl' Localized Forms in Arabic lookup 15 subtable" exclam.ar
EndChar

StartChar: quotedbl
Encoding: 34 34 4
Width: 186
GlyphClass: 1
Flags: W
LayerCount: 2
Fore
SplineSet
50 384 m 2,0,-1
 44 553 l 2,1,2
 44 556 44 556 47 556 c 2,3,-1
 51 556 l 2,4,5
 59 556 59 556 65.5 549.5 c 128,-1,6
 72 543 72 543 72 528 c 2,7,-1
 68 384 l 2,8,9
 68 382 68 382 65 382 c 2,10,-1
 53 382 l 2,11,12
 50 382 50 382 50 384 c 2,0,-1
120 384 m 2,13,-1
 113 553 l 2,14,15
 113 556 113 556 116 556 c 2,16,-1
 120 556 l 2,17,18
 128 556 128 556 135 549.5 c 128,-1,19
 142 543 142 543 141 528 c 2,20,-1
 137 384 l 2,21,22
 137 382 137 382 134 382 c 2,23,-1
 122 382 l 2,24,25
 120 382 120 382 120 384 c 2,13,-1
EndSplineSet
EndChar

StartChar: numbersign
Encoding: 35 35 5
Width: 531
GlyphClass: 1
Flags: W
LayerCount: 2
Fore
SplineSet
82 4 m 2,0,-1
 122 162 l 1,1,-1
 33 162 l 2,2,3
 29 162 29 162 30 168 c 2,4,-1
 33 181 l 2,5,6
 34 185 34 185 39 185 c 2,7,-1
 128 185 l 1,8,-1
 173 366 l 1,9,-1
 85 366 l 2,10,11
 81 366 81 366 82 372 c 2,12,-1
 85 384 l 2,13,14
 86 388 86 388 91 388 c 2,15,-1
 179 388 l 1,16,-1
 220 551 l 2,17,18
 222 556 222 556 226 556 c 2,19,-1
 227 556 l 2,20,21
 244 556 244 556 237 525 c 2,22,-1
 204 388 l 1,23,-1
 385 388 l 1,24,-1
 426 551 l 2,25,26
 426 556 426 556 431 556 c 2,27,-1
 432 556 l 2,28,29
 449 556 449 556 442 525 c 2,30,-1
 410 388 l 1,31,-1
 498 388 l 2,32,33
 502 388 502 388 501 383 c 2,34,-1
 498 369 l 2,35,36
 497 366 497 366 492 366 c 2,37,-1
 403 366 l 1,38,-1
 360 185 l 1,39,-1
 446 185 l 2,40,41
 450 185 450 185 450 179 c 2,42,-1
 446 166 l 2,43,44
 445 162 445 162 440 162 c 2,45,-1
 355 162 l 1,46,-1
 317 8 l 2,47,48
 315 0 315 0 304 0 c 2,49,-1
 290 0 l 2,50,51
 288 0 288 0 288 4 c 2,52,-1
 328 162 l 1,53,-1
 149 162 l 1,54,-1
 111 8 l 2,55,56
 110 0 110 0 98 0 c 2,57,-1
 85 0 l 2,58,59
 82 0 82 0 82 4 c 2,0,-1
154 185 m 1,60,-1
 334 185 l 1,61,-1
 379 366 l 1,62,-1
 198 366 l 1,63,-1
 154 185 l 1,60,-1
EndSplineSet
EndChar

StartChar: dollar
Encoding: 36 36 6
Width: 433
GlyphClass: 1
Flags: W
LayerCount: 2
Fore
SplineSet
209 12 m 1,0,-1
 209 280 l 1,1,2
 170 295 170 295 134 312.5 c 128,-1,3
 98 330 98 330 75 356.5 c 128,-1,4
 52 383 52 383 52 424 c 0,5,6
 52 485 52 485 96.5 524 c 128,-1,7
 141 563 141 563 209 567 c 1,8,-1
 209 618 l 2,9,10
 209 621 209 621 212 621 c 2,11,-1
 232 621 l 2,12,13
 235 621 235 621 235 618 c 2,14,-1
 235 567 l 1,15,16
 276 565 276 565 306.5 553.5 c 128,-1,17
 337 542 337 542 362 527 c 0,18,19
 378 517 378 517 382 511.5 c 128,-1,20
 386 506 386 506 383 498 c 2,21,-1
 382 495 l 2,22,23
 379 488 379 488 376 488 c 256,24,25
 373 488 373 488 370.5 490 c 128,-1,26
 368 492 368 492 366 493 c 0,27,28
 332 518 332 518 301 530.5 c 128,-1,29
 270 543 270 543 235 544 c 1,30,-1
 235 296 l 1,31,32
 274 282 274 282 310 264.5 c 128,-1,33
 346 247 346 247 369.5 220.5 c 128,-1,34
 393 194 393 194 393 150 c 0,35,36
 393 82 393 82 351 38.5 c 128,-1,37
 309 -5 309 -5 235 -10 c 1,38,-1
 235 -62 l 2,39,40
 235 -64 235 -64 232 -64 c 2,41,-1
 212 -64 l 2,42,43
 209 -64 209 -64 209 -62 c 2,44,-1
 209 -11 l 1,45,46
 147 -9 147 -9 108.5 12.5 c 128,-1,47
 70 34 70 34 52 61 c 128,-1,48
 34 88 34 88 34 103 c 0,49,50
 34 109 34 109 35.5 114 c 128,-1,51
 37 119 37 119 43 119 c 0,52,53
 50 119 50 119 53 109 c 0,54,55
 67 66 67 66 109 40 c 128,-1,56
 151 14 151 14 209 12 c 1,0,-1
209 305 m 1,57,-1
 209 544 l 1,58,59
 151 540 151 540 114.5 509 c 128,-1,60
 78 478 78 478 78 426 c 0,61,62
 78 393 78 393 96.5 370.5 c 128,-1,63
 115 348 115 348 145 333 c 128,-1,64
 175 318 175 318 209 305 c 1,57,-1
235 271 m 1,65,-1
 235 13 l 1,66,67
 297 18 297 18 332 53.5 c 128,-1,68
 367 89 367 89 367 149 c 0,69,70
 367 183 367 183 348.5 205.5 c 128,-1,71
 330 228 330 228 300 243.5 c 128,-1,72
 270 259 270 259 235 271 c 1,65,-1
EndSplineSet
EndChar

StartChar: percent
Encoding: 37 37 7
Width: 668
GlyphClass: 1
Flags: W
LayerCount: 2
Fore
SplineSet
161 223 m 0,0,1
 105 223 105 223 74 267.5 c 128,-1,2
 43 312 43 312 43 394 c 256,3,4
 43 476 43 476 74 521.5 c 128,-1,5
 105 567 105 567 161 567 c 0,6,7
 218 567 218 567 249 521.5 c 128,-1,8
 280 476 280 476 280 394 c 256,9,10
 280 312 280 312 249 267.5 c 128,-1,11
 218 223 218 223 161 223 c 0,0,1
200 0 m 2,12,-1
 186 0 l 2,13,14
 182 0 182 0 184 4 c 2,15,-1
 454 551 l 2,16,17
 456 556 456 556 459 556 c 2,18,-1
 460 556 l 2,19,20
 468 556 468 556 471 547.5 c 128,-1,21
 474 539 474 539 467 525 c 2,22,-1
 213 8 l 2,23,24
 211 3 211 3 209 1.5 c 128,-1,25
 207 0 207 0 200 0 c 2,12,-1
161 244 m 0,26,27
 207 244 207 244 231 282.5 c 128,-1,28
 255 321 255 321 255 393 c 0,29,30
 255 544 255 544 161 544 c 0,31,32
 68 544 68 544 68 393 c 0,33,34
 68 321 68 321 92 282.5 c 128,-1,35
 116 244 116 244 161 244 c 0,26,27
507 -9 m 0,36,37
 450 -9 450 -9 419.5 36 c 128,-1,38
 389 81 389 81 389 163 c 0,39,40
 389 244 389 244 419.5 289.5 c 128,-1,41
 450 335 450 335 507 335 c 0,42,43
 563 335 563 335 594 289.5 c 128,-1,44
 625 244 625 244 625 163 c 0,45,46
 625 81 625 81 594 36 c 128,-1,47
 563 -9 563 -9 507 -9 c 0,36,37
507 13 m 0,48,49
 552 13 552 13 576 51.5 c 128,-1,50
 600 90 600 90 600 162 c 0,51,52
 600 313 600 313 507 313 c 256,53,54
 414 313 414 313 414 162 c 0,55,56
 414 90 414 90 437.5 51.5 c 128,-1,57
 461 13 461 13 507 13 c 0,48,49
EndSplineSet
EndChar

StartChar: ampersand
Encoding: 38 38 8
Width: 510
GlyphClass: 1
Flags: W
LayerCount: 2
Fore
SplineSet
367 132 m 1,0,-1
 447 266 l 2,1,2
 450 270 450 270 453 271.5 c 128,-1,3
 456 273 456 273 463 273 c 2,4,-1
 473 273 l 2,5,6
 478 273 478 273 476 267 c 2,7,-1
 383 114 l 1,8,-1
 480 5 l 2,9,10
 482 4 482 4 481 2 c 128,-1,11
 480 0 480 0 477 0 c 2,12,-1
 465 0 l 2,13,14
 455 0 455 0 447 9 c 2,15,-1
 370 93 l 1,16,17
 359 76 359 76 337 52.5 c 128,-1,18
 315 29 315 29 281.5 11.5 c 128,-1,19
 248 -6 248 -6 201 -6 c 0,20,21
 156 -6 156 -6 121.5 14.5 c 128,-1,22
 87 35 87 35 68 69 c 128,-1,23
 49 103 49 103 49 145 c 0,24,25
 49 204 49 204 85.5 245 c 128,-1,26
 122 286 122 286 181 312 c 1,27,28
 141 354 141 354 123 385.5 c 128,-1,29
 105 417 105 417 105 449 c 0,30,31
 105 502 105 502 140 534.5 c 128,-1,32
 175 567 175 567 235 567 c 0,33,34
 289 567 289 567 322 536 c 128,-1,35
 355 505 355 505 355 457 c 0,36,37
 355 416 355 416 318 376 c 128,-1,38
 281 336 281 336 216 305 c 1,39,-1
 367 132 l 1,0,-1
202 321 m 1,40,41
 255 346 255 346 293 379.5 c 128,-1,42
 331 413 331 413 331 456 c 0,43,44
 331 497 331 497 305.5 520.5 c 128,-1,45
 280 544 280 544 235 544 c 0,46,47
 184 544 184 544 157 519 c 128,-1,48
 130 494 130 494 130 450 c 0,49,50
 130 422 130 422 146 393.5 c 128,-1,51
 162 365 162 365 202 321 c 1,40,41
355 111 m 1,52,-1
 195 296 l 1,53,54
 144 272 144 272 109.5 239 c 128,-1,55
 75 206 75 206 75 150 c 0,56,57
 75 88 75 88 109 52.5 c 128,-1,58
 143 17 143 17 203 17 c 0,59,60
 259 17 259 17 294.5 46 c 128,-1,61
 330 75 330 75 355 111 c 1,52,-1
EndSplineSet
EndChar

StartChar: quotesingle
Encoding: 39 39 9
Width: 117
GlyphClass: 1
Flags: W
LayerCount: 2
Fore
SplineSet
50 384 m 2,0,-1
 44 553 l 2,1,2
 44 556 44 556 47 556 c 2,3,-1
 51 556 l 2,4,5
 59 556 59 556 65.5 549.5 c 128,-1,6
 72 543 72 543 72 528 c 2,7,-1
 68 384 l 2,8,9
 68 382 68 382 65 382 c 2,10,-1
 53 382 l 2,11,12
 50 382 50 382 50 384 c 2,0,-1
EndSplineSet
EndChar

StartChar: parenleft
Encoding: 40 40 10
Width: 307
GlyphClass: 1
Flags: W
LayerCount: 2
Fore
SplineSet
95 277 m 0,0,1
 94 153 94 153 130.5 57.5 c 128,-1,2
 167 -38 167 -38 233 -100 c 0,3,4
 239 -106 239 -106 244 -110.5 c 128,-1,5
 249 -115 249 -115 251 -122 c 0,6,7
 254 -127 254 -127 254 -131.5 c 128,-1,8
 254 -136 254 -136 254 -138 c 0,9,10
 254 -149 254 -149 245 -143 c 0,11,12
 195 -108 195 -108 154.5 -47 c 128,-1,13
 114 14 114 14 91 96 c 128,-1,14
 68 178 68 178 69 277 c 0,15,16
 68 376 68 376 91 458 c 128,-1,17
 114 540 114 540 154.5 601 c 128,-1,18
 195 662 195 662 245 697 c 0,19,20
 254 703 254 703 254 692 c 0,21,22
 254 690 254 690 254 685 c 128,-1,23
 254 680 254 680 251 675 c 0,24,25
 249 669 249 669 244 664 c 128,-1,26
 239 659 239 659 233 653 c 0,27,28
 167 591 167 591 130.5 496.5 c 128,-1,29
 94 402 94 402 95 277 c 0,0,1
EndSplineSet
EndChar

StartChar: parenright
Encoding: 41 41 11
Width: 318
GlyphClass: 1
Flags: W
LayerCount: 2
Fore
SplineSet
216 277 m 0,0,1
 218 402 218 402 181 496.5 c 128,-1,2
 144 591 144 591 78 653 c 0,3,4
 72 659 72 659 67 664 c 128,-1,5
 62 669 62 669 59 675 c 0,6,7
 57 680 57 680 57 685 c 128,-1,8
 57 690 57 690 57 692 c 0,9,10
 57 703 57 703 65 697 c 0,11,12
 116 662 116 662 156.5 601 c 128,-1,13
 197 540 197 540 220 458 c 128,-1,14
 243 376 243 376 242 277 c 0,15,16
 243 178 243 178 220 96 c 128,-1,17
 197 14 197 14 156.5 -47 c 128,-1,18
 116 -108 116 -108 65 -143 c 0,19,20
 57 -149 57 -149 57 -138 c 0,21,22
 57 -136 57 -136 57 -131.5 c 128,-1,23
 57 -127 57 -127 59 -122 c 0,24,25
 62 -115 62 -115 67 -110.5 c 128,-1,26
 72 -106 72 -106 78 -100 c 0,27,28
 144 -38 144 -38 181 57.5 c 128,-1,29
 218 153 218 153 216 277 c 0,0,1
EndSplineSet
PairPos2: "'kern' Horizontal Kerning lookup 3 per glyph data 1" uni0671 dx=67 dy=0 dh=67 dv=0 dx=0 dy=0 dh=0 dv=0
PairPos2: "'kern' Horizontal Kerning lookup 3 per glyph data 1" uni0625 dx=39 dy=0 dh=39 dv=0 dx=0 dy=0 dh=0 dv=0
PairPos2: "'kern' Horizontal Kerning lookup 3 per glyph data 1" uni0623 dx=56 dy=0 dh=56 dv=0 dx=0 dy=0 dh=0 dv=0
PairPos2: "'kern' Horizontal Kerning lookup 3 per glyph data 1" uni0622 dx=56 dy=0 dh=56 dv=0 dx=0 dy=0 dh=0 dv=0
EndChar

StartChar: asterisk
Encoding: 42 42 12
Width: 310
GlyphClass: 1
Flags: W
LayerCount: 2
Fore
SplineSet
139 429 m 1,0,-1
 42 454 l 2,1,2
 38 455 38 455 39 459 c 2,3,-1
 46 481 l 2,4,5
 47 485 47 485 51 484 c 2,6,-1
 145 447 l 1,7,-1
 140 548 l 2,8,9
 140 553 140 553 144 553 c 2,10,-1
 167 553 l 2,11,12
 171 553 171 553 171 548 c 2,13,-1
 165 447 l 1,14,-1
 260 484 l 2,15,16
 264 486 264 486 265 481 c 2,17,-1
 271 459 l 2,18,19
 272 455 272 455 269 454 c 2,20,-1
 171 429 l 1,21,-1
 235 351 l 2,22,23
 237 348 237 348 234 345 c 2,24,-1
 215 332 l 2,25,26
 212 330 212 330 212 330.5 c 128,-1,27
 212 331 212 331 210 333 c 2,28,-1
 155 418 l 1,29,-1
 101 333 l 2,30,31
 100 331 100 331 99.5 330.5 c 128,-1,32
 99 330 99 330 96 332 c 2,33,-1
 77 345 l 2,34,35
 73 348 73 348 76 351 c 2,36,-1
 139 429 l 1,0,-1
EndSplineSet
EndChar

StartChar: plus
Encoding: 43 43 13
Width: 388
GlyphClass: 1
Flags: W
LayerCount: 2
Fore
SplineSet
184 262 m 1,0,-1
 49 262 l 2,1,2
 46 262 46 262 46 266 c 2,3,-1
 46 282 l 2,4,5
 46 285 46 285 49 285 c 2,6,-1
 184 285 l 1,7,-1
 184 440 l 2,8,9
 184 443 184 443 187 443 c 0,10,11
 200 443 200 443 203.5 435 c 128,-1,12
 207 427 207 427 207 416 c 2,13,-1
 207 285 l 1,14,-1
 339 285 l 2,15,16
 342 285 342 285 342 282 c 2,17,-1
 342 266 l 2,18,19
 342 262 342 262 339 262 c 2,20,-1
 207 262 l 1,21,-1
 207 106 l 2,22,23
 207 103 207 103 204 103 c 2,24,-1
 187 103 l 2,25,26
 184 103 184 103 184 106 c 2,27,-1
 184 262 l 1,0,-1
EndSplineSet
EndChar

StartChar: comma
Encoding: 44 44 14
Width: 162
GlyphClass: 1
Flags: W
LayerCount: 2
Fore
SplineSet
84 -14 m 1,0,1
 70 -12 70 -12 63.5 -2.5 c 128,-1,2
 57 7 57 7 57 16 c 0,3,4
 57 30 57 30 66 37.5 c 128,-1,5
 75 45 75 45 88 45 c 0,6,7
 100 45 100 45 109.5 37 c 128,-1,8
 119 29 119 29 119 12 c 0,9,10
 119 -16 119 -16 101 -46.5 c 128,-1,11
 83 -77 83 -77 63 -94 c 0,12,13
 62 -96 62 -96 58 -92 c 0,14,15
 48 -82 48 -82 54 -73 c 128,-1,16
 60 -64 60 -64 62 -59 c 0,17,18
 67 -51 67 -51 73.5 -40.5 c 128,-1,19
 80 -30 80 -30 84 -14 c 1,0,1
EndSplineSet
EndChar

StartChar: hyphen
Encoding: 45 45 15
Width: 301
GlyphClass: 1
Flags: W
LayerCount: 2
Fore
SplineSet
46 195 m 2,0,-1
 46 212 l 2,1,2
 46 214 46 214 49 214 c 2,3,-1
 253 214 l 2,4,5
 256 214 256 214 256 212 c 2,6,-1
 256 195 l 2,7,8
 256 192 256 192 253 192 c 2,9,-1
 49 192 l 2,10,11
 46 192 46 192 46 195 c 2,0,-1
EndSplineSet
EndChar

StartChar: period
Encoding: 46 46 16
Width: 161
GlyphClass: 1
Flags: W
LayerCount: 2
Fore
SplineSet
81 44 m 0,0,1
 93 44 93 44 102 34.5 c 128,-1,2
 111 25 111 25 111 13 c 0,3,4
 111 0 111 0 102 -9 c 128,-1,5
 93 -18 93 -18 81 -18 c 0,6,7
 68 -18 68 -18 59 -9 c 128,-1,8
 50 0 50 0 50 13 c 0,9,10
 50 25 50 25 59 34.5 c 128,-1,11
 68 44 68 44 81 44 c 0,0,1
EndSplineSet
EndChar

StartChar: slash
Encoding: 47 47 17
Width: 253
GlyphClass: 1
Flags: W
LayerCount: 2
Fore
SplineSet
18 0 m 2,0,-1
 4 0 l 2,1,2
 0 0 0 0 2 4 c 2,3,-1
 233 549 l 2,4,5
 235 556 235 556 239 556 c 0,6,7
 250 556 250 556 253 547.5 c 128,-1,8
 256 539 256 539 249 525 c 2,9,-1
 31 8 l 2,10,11
 29 3 29 3 27 1.5 c 128,-1,12
 25 0 25 0 18 0 c 2,0,-1
EndSplineSet
EndChar

StartChar: zero
Encoding: 48 48 18
Width: 487
GlyphClass: 1
Flags: W
LayerCount: 2
Fore
SplineSet
244 -10 m 0,0,1
 148 -10 148 -10 105 60.5 c 128,-1,2
 62 131 62 131 62 277 c 256,3,4
 62 423 62 423 106.5 495 c 128,-1,5
 151 567 151 567 244 567 c 256,6,7
 337 567 337 567 381.5 495 c 128,-1,8
 426 423 426 423 426 277 c 256,9,10
 426 131 426 131 382.5 60.5 c 128,-1,11
 339 -10 339 -10 244 -10 c 0,0,1
244 13 m 0,12,13
 325 13 325 13 362.5 75.5 c 128,-1,14
 400 138 400 138 400 277 c 0,15,16
 400 417 400 417 363 480.5 c 128,-1,17
 326 544 326 544 244 544 c 256,18,19
 162 544 162 544 125 480.5 c 128,-1,20
 88 417 88 417 88 277 c 0,21,22
 88 138 88 138 125 75.5 c 128,-1,23
 162 13 162 13 244 13 c 0,12,13
EndSplineSet
Substitution2: "'lnum' Lining Figures lookup 7 subtable" zero.tab
Substitution2: "'aalt' Access All Alternates lookup 0 subtable" zero.tab
EndChar

StartChar: one
Encoding: 49 49 19
Width: 320
GlyphClass: 1
Flags: W
LayerCount: 2
Fore
SplineSet
155 23 m 1,0,-1
 155 533 l 1,1,-1
 51 497 l 2,2,3
 47 496 47 496 47 500 c 2,4,-1
 47 512 l 2,5,6
 47 519 47 519 54 522 c 2,7,-1
 137 549 l 2,8,9
 149 556 149 556 158 556 c 2,10,-1
 164 556 l 2,11,12
 182 556 182 556 182 534 c 2,13,-1
 182 23 l 1,14,-1
 278 23 l 2,15,16
 292 23 292 23 292 9 c 2,17,-1
 292 6 l 2,18,19
 292 0 292 0 285 0 c 2,20,-1
 49 0 l 2,21,22
 46 0 46 0 46 3 c 2,23,-1
 46 20 l 2,24,25
 46 23 46 23 49 23 c 2,26,-1
 155 23 l 1,0,-1
EndSplineSet
Substitution2: "'lnum' Lining Figures lookup 7 subtable" one.tab
Substitution2: "'sups' Superscript lookup 3 subtable" onesuperior
AlternateSubs2: "'aalt' Access All Alternates lookup 1 subtable" onesuperior one.tab
EndChar

StartChar: two
Encoding: 50 50 20
Width: 442
GlyphClass: 1
Flags: W
LayerCount: 2
Fore
SplineSet
73 23 m 1,0,-1
 366 23 l 2,1,2
 380 23 380 23 380 9 c 2,3,-1
 380 6 l 2,4,5
 380 0 380 0 373 0 c 2,6,-1
 50 0 l 2,7,8
 47 0 47 0 47 3 c 0,9,10
 48 63 48 63 70.5 105 c 128,-1,11
 93 147 93 147 128 178 c 128,-1,12
 163 209 163 209 202.5 234 c 128,-1,13
 242 259 242 259 277 284.5 c 128,-1,14
 312 310 312 310 334 341.5 c 128,-1,15
 356 373 356 373 356 417 c 0,16,17
 356 478 356 478 318.5 511 c 128,-1,18
 281 544 281 544 213 544 c 0,19,20
 176 544 176 544 145.5 534 c 128,-1,21
 115 524 115 524 83 503 c 0,22,23
 81 502 81 502 78.5 500 c 128,-1,24
 76 498 76 498 73 498 c 256,25,26
 70 498 70 498 68 504 c 2,27,-1
 67 508 l 2,28,29
 66 514 66 514 69 519.5 c 128,-1,30
 72 525 72 525 87 533 c 0,31,32
 116 549 116 549 146 558 c 128,-1,33
 176 567 176 567 215 567 c 0,34,35
 292 567 292 567 337 528 c 128,-1,36
 382 489 382 489 382 418 c 0,37,38
 382 372 382 372 361 338.5 c 128,-1,39
 340 305 340 305 306.5 278.5 c 128,-1,40
 273 252 273 252 234.5 228 c 128,-1,41
 196 204 196 204 161 176 c 128,-1,42
 126 148 126 148 102 111 c 128,-1,43
 78 74 78 74 73 23 c 1,0,-1
EndSplineSet
Substitution2: "'lnum' Lining Figures lookup 7 subtable" two.tab
Substitution2: "'sups' Superscript lookup 3 subtable" twosuperior
AlternateSubs2: "'aalt' Access All Alternates lookup 1 subtable" twosuperior two.tab
EndChar

StartChar: three
Encoding: 51 51 21
Width: 424
GlyphClass: 1
Flags: W
LayerCount: 2
Fore
SplineSet
257 296 m 1,0,1
 282 290 282 290 308.5 272 c 128,-1,2
 335 254 335 254 353.5 224.5 c 128,-1,3
 372 195 372 195 372 152 c 0,4,5
 372 79 372 79 327 34.5 c 128,-1,6
 282 -10 282 -10 199 -10 c 0,7,8
 155 -10 155 -10 123.5 3 c 128,-1,9
 92 16 92 16 72 35.5 c 128,-1,10
 52 55 52 55 42.5 73.5 c 128,-1,11
 33 92 33 92 33 104 c 0,12,13
 33 109 33 109 34.5 114.5 c 128,-1,14
 36 120 36 120 42 120 c 0,15,16
 49 120 49 120 52 111 c 0,17,18
 65 66 65 66 104.5 39.5 c 128,-1,19
 144 13 144 13 196 13 c 0,20,21
 278 13 278 13 312 53 c 128,-1,22
 346 93 346 93 346 151 c 0,23,24
 346 213 346 213 305.5 248 c 128,-1,25
 265 283 265 283 206 283 c 2,26,-1
 117 283 l 2,27,28
 104 283 104 283 104 297 c 2,29,-1
 104 300 l 2,30,31
 104 306 104 306 111 306 c 2,32,-1
 210 306 l 2,33,34
 217 306 217 306 237 310.5 c 128,-1,35
 257 315 257 315 279.5 327 c 128,-1,36
 302 339 302 339 318 362.5 c 128,-1,37
 334 386 334 386 334 424 c 0,38,39
 334 480 334 480 298 512 c 128,-1,40
 262 544 262 544 195 544 c 0,41,42
 122 544 122 544 60 503 c 0,43,44
 58 502 58 502 55.5 500 c 128,-1,45
 53 498 53 498 50 498 c 256,46,47
 47 498 47 498 45 504 c 2,48,-1
 44 508 l 2,49,50
 43 514 43 514 46 519.5 c 128,-1,51
 49 525 49 525 64 533 c 0,52,53
 94 549 94 549 125 558 c 128,-1,54
 156 567 156 567 197 567 c 0,55,56
 274 567 274 567 316.5 529 c 128,-1,57
 359 491 359 491 359 426 c 0,58,59
 359 388 359 388 344 362 c 128,-1,60
 329 336 329 336 305.5 320 c 128,-1,61
 282 304 282 304 257 296 c 1,0,1
EndSplineSet
Substitution2: "'lnum' Lining Figures lookup 7 subtable" three.tab
Substitution2: "'sups' Superscript lookup 3 subtable" threesuperior
AlternateSubs2: "'aalt' Access All Alternates lookup 1 subtable" threesuperior three.tab
EndChar

StartChar: four
Encoding: 52 52 22
Width: 424
GlyphClass: 1
Flags: W
LayerCount: 2
Fore
SplineSet
293 149 m 1,0,-1
 30 149 l 2,1,2
 27 149 27 149 27 152 c 2,3,-1
 27 162 l 2,4,5
 27 174 27 174 33 182 c 2,6,-1
 274 544 l 2,7,8
 282 556 282 556 291 556 c 2,9,-1
 299 556 l 2,10,11
 311 556 311 556 314.5 549.5 c 128,-1,12
 318 543 318 543 318 529 c 2,13,-1
 318 172 l 1,14,-1
 375 172 l 2,15,16
 389 172 389 172 389 158 c 2,17,-1
 389 155 l 2,18,19
 389 149 389 149 382 149 c 2,20,-1
 318 149 l 1,21,-1
 318 6 l 2,22,23
 318 0 318 0 314 0 c 2,24,-1
 298 0 l 2,25,26
 293 0 293 0 293 6 c 2,27,-1
 293 149 l 1,0,-1
53 172 m 1,28,-1
 293 172 l 1,29,-1
 293 532 l 1,30,-1
 53 172 l 1,28,-1
EndSplineSet
Substitution2: "'lnum' Lining Figures lookup 7 subtable" four.tab
Substitution2: "'aalt' Access All Alternates lookup 0 subtable" four.tab
EndChar

StartChar: five
Encoding: 53 53 23
Width: 431
GlyphClass: 1
Flags: W
LayerCount: 2
Fore
SplineSet
99 533 m 1,0,-1
 99 324 l 1,1,2
 122 332 122 332 148.5 338 c 128,-1,3
 175 344 175 344 212 344 c 0,4,5
 289 344 289 344 333 298 c 128,-1,6
 377 252 377 252 377 172 c 0,7,8
 377 89 377 89 329.5 39.5 c 128,-1,9
 282 -10 282 -10 202 -10 c 0,10,11
 159 -10 159 -10 128 3 c 128,-1,12
 97 16 97 16 77 35.5 c 128,-1,13
 57 55 57 55 47.5 74.5 c 128,-1,14
 38 94 38 94 38 106 c 0,15,16
 38 111 38 111 40 115.5 c 128,-1,17
 42 120 42 120 47 120 c 0,18,19
 54 120 54 120 57 111 c 0,20,21
 70 66 70 66 110.5 39.5 c 128,-1,22
 151 13 151 13 199 13 c 0,23,24
 271 13 271 13 311 54 c 128,-1,25
 351 95 351 95 351 168 c 0,26,27
 351 240 351 240 314 280.5 c 128,-1,28
 277 321 277 321 211 321 c 0,29,30
 172 321 172 321 143 313.5 c 128,-1,31
 114 306 114 306 82 294 c 0,32,33
 73 290 73 290 73 301 c 2,34,-1
 73 553 l 2,35,36
 73 556 73 556 76 556 c 2,37,-1
 330 556 l 2,38,39
 344 556 344 556 344 542 c 2,40,-1
 344 539 l 2,41,42
 344 533 344 533 337 533 c 2,43,-1
 99 533 l 1,0,-1
EndSplineSet
Substitution2: "'lnum' Lining Figures lookup 7 subtable" five.tab
Substitution2: "'aalt' Access All Alternates lookup 0 subtable" five.tab
EndChar

StartChar: six
Encoding: 54 54 24
Width: 433
GlyphClass: 1
Flags: W
LayerCount: 2
Fore
SplineSet
257 526 m 2,0,-1
 133 319 l 1,1,2
 147 330 147 330 173 339 c 128,-1,3
 199 348 199 348 232 348 c 0,4,5
 278 348 278 348 313 326 c 128,-1,6
 348 304 348 304 368 265 c 128,-1,7
 388 226 388 226 388 176 c 0,8,9
 388 91 388 91 342.5 40.5 c 128,-1,10
 297 -10 297 -10 220 -10 c 0,11,12
 145 -10 145 -10 99.5 39 c 128,-1,13
 54 88 54 88 54 167 c 0,14,15
 54 217 54 217 74.5 260.5 c 128,-1,16
 95 304 95 304 118 344 c 2,17,-1
 247 558 l 2,18,19
 253 567 253 567 257 567 c 0,20,21
 267 567 267 567 267.5 555 c 128,-1,22
 268 543 268 543 257 526 c 2,0,-1
221 12 m 0,23,24
 286 12 286 12 324 54.5 c 128,-1,25
 362 97 362 97 362 169 c 0,26,27
 362 242 362 242 326 283.5 c 128,-1,28
 290 325 290 325 225 325 c 0,29,30
 176 325 176 325 143.5 302 c 128,-1,31
 111 279 111 279 95.5 243.5 c 128,-1,32
 80 208 80 208 80 169 c 0,33,34
 80 97 80 97 117.5 54.5 c 128,-1,35
 155 12 155 12 221 12 c 0,23,24
EndSplineSet
Substitution2: "'lnum' Lining Figures lookup 7 subtable" six.tab
Substitution2: "'aalt' Access All Alternates lookup 0 subtable" six.tab
EndChar

StartChar: seven
Encoding: 55 55 25
Width: 422
GlyphClass: 1
Flags: W
LayerCount: 2
Fore
SplineSet
350 533 m 1,0,-1
 38 533 l 2,1,2
 35 533 35 533 35 536 c 2,3,-1
 35 553 l 2,4,5
 35 556 35 556 38 556 c 2,6,-1
 352 556 l 2,7,8
 363 556 363 556 367.5 551 c 128,-1,9
 372 546 372 546 372 539 c 2,10,-1
 372 538 l 2,11,12
 372 531 372 531 369.5 524.5 c 128,-1,13
 367 518 367 518 361 503 c 2,14,-1
 131 8 l 2,15,16
 128 0 128 0 118 0 c 2,17,-1
 104 0 l 2,18,19
 100 0 100 0 103 5 c 2,20,-1
 350 533 l 1,0,-1
EndSplineSet
Substitution2: "'lnum' Lining Figures lookup 7 subtable" seven.tab
Substitution2: "'aalt' Access All Alternates lookup 0 subtable" seven.tab
EndChar

StartChar: eight
Encoding: 56 56 26
Width: 431
GlyphClass: 1
Flags: W
LayerCount: 2
Fore
SplineSet
158 297 m 1,0,1
 123 311 123 311 94 341.5 c 128,-1,2
 65 372 65 372 65 424 c 0,3,4
 65 487 65 487 107.5 527 c 128,-1,5
 150 567 150 567 216 567 c 256,6,7
 282 567 282 567 324.5 527 c 128,-1,8
 367 487 367 487 367 424 c 0,9,10
 367 372 367 372 338.5 341.5 c 128,-1,11
 310 311 310 311 274 297 c 1,12,13
 327 279 327 279 356.5 238.5 c 128,-1,14
 386 198 386 198 386 151 c 0,15,16
 386 105 386 105 365 68.5 c 128,-1,17
 344 32 344 32 306 10.5 c 128,-1,18
 268 -11 268 -11 216 -11 c 256,19,20
 164 -11 164 -11 126 10.5 c 128,-1,21
 88 32 88 32 67 68.5 c 128,-1,22
 46 105 46 105 46 151 c 0,23,24
 46 198 46 198 75.5 238.5 c 128,-1,25
 105 279 105 279 158 297 c 1,0,1
89 422 m 0,26,27
 89 388 89 388 107 362 c 128,-1,28
 125 336 125 336 154 322 c 128,-1,29
 183 308 183 308 216 308 c 0,30,31
 250 308 250 308 279 322 c 128,-1,32
 308 336 308 336 325.5 362 c 128,-1,33
 343 388 343 388 343 422 c 0,34,35
 343 474 343 474 310.5 509 c 128,-1,36
 278 544 278 544 216 544 c 0,37,38
 155 544 155 544 122 509 c 128,-1,39
 89 474 89 474 89 422 c 0,26,27
72 153 m 0,40,41
 72 89 72 89 111.5 50.5 c 128,-1,42
 151 12 151 12 216 12 c 0,43,44
 282 12 282 12 321 50.5 c 128,-1,45
 360 89 360 89 360 153 c 0,46,47
 360 210 360 210 319 247.5 c 128,-1,48
 278 285 278 285 216 285 c 256,49,50
 154 285 154 285 113 247.5 c 128,-1,51
 72 210 72 210 72 153 c 0,40,41
EndSplineSet
Substitution2: "'lnum' Lining Figures lookup 7 subtable" eight.tab
Substitution2: "'aalt' Access All Alternates lookup 0 subtable" eight.tab
EndChar

StartChar: nine
Encoding: 57 57 27
Width: 433
GlyphClass: 1
Flags: W
LayerCount: 2
Fore
SplineSet
177 31 m 2,0,-1
 300 238 l 1,1,2
 287 227 287 227 262.5 218 c 128,-1,3
 238 209 238 209 205 209 c 0,4,5
 160 209 160 209 124 231.5 c 128,-1,6
 88 254 88 254 67 293.5 c 128,-1,7
 46 333 46 333 46 384 c 0,8,9
 46 467 46 467 93.5 517 c 128,-1,10
 141 567 141 567 217 567 c 0,11,12
 292 567 292 567 336 518 c 128,-1,13
 380 469 380 469 380 389 c 0,14,15
 380 339 380 339 359.5 296 c 128,-1,16
 339 253 339 253 315 213 c 2,17,-1
 187 -1 l 2,18,19
 182 -10 182 -10 177 -10 c 0,20,21
 167 -10 167 -10 167 2 c 128,-1,22
 167 14 167 14 177 31 c 2,0,-1
212 232 m 0,23,24
 261 232 261 232 292.5 254.5 c 128,-1,25
 324 277 324 277 339 313 c 128,-1,26
 354 349 354 349 354 388 c 0,27,28
 354 460 354 460 318 502 c 128,-1,29
 282 544 282 544 216 544 c 0,30,31
 152 544 152 544 112 502 c 128,-1,32
 72 460 72 460 72 388 c 0,33,34
 72 313 72 313 109 272.5 c 128,-1,35
 146 232 146 232 212 232 c 0,23,24
EndSplineSet
Substitution2: "'lnum' Lining Figures lookup 7 subtable" nine.tab
Substitution2: "'aalt' Access All Alternates lookup 0 subtable" nine.tab
EndChar

StartChar: colon
Encoding: 58 58 28
Width: 167
GlyphClass: 1
Flags: W
LayerCount: 2
Fore
SplineSet
84 240 m 0,0,1
 96 240 96 240 105 230.5 c 128,-1,2
 114 221 114 221 114 208 c 0,3,4
 114 196 114 196 105 186.5 c 128,-1,5
 96 177 96 177 84 177 c 0,6,7
 71 177 71 177 62 186.5 c 128,-1,8
 53 196 53 196 53 208 c 0,9,10
 53 221 53 221 62 230.5 c 128,-1,11
 71 240 71 240 84 240 c 0,0,1
84 44 m 0,12,13
 96 44 96 44 105 34.5 c 128,-1,14
 114 25 114 25 114 13 c 0,15,16
 114 0 114 0 105 -9 c 128,-1,17
 96 -18 96 -18 84 -18 c 0,18,19
 71 -18 71 -18 62 -9 c 128,-1,20
 53 0 53 0 53 13 c 0,21,22
 53 25 53 25 62 34.5 c 128,-1,23
 71 44 71 44 84 44 c 0,12,13
EndSplineSet
EndChar

StartChar: semicolon
Encoding: 59 59 29
Width: 167
GlyphClass: 1
Flags: W
LayerCount: 2
Fore
SplineSet
91 177 m 0,0,1
 78 177 78 177 69 186.5 c 128,-1,2
 60 196 60 196 60 209 c 0,3,4
 60 220 60 220 69 229.5 c 128,-1,5
 78 239 78 239 91 239 c 0,6,7
 103 239 103 239 112 229.5 c 128,-1,8
 121 220 121 220 121 209 c 0,9,10
 121 196 121 196 112 186.5 c 128,-1,11
 103 177 103 177 91 177 c 0,0,1
86 -14 m 1,12,13
 72 -12 72 -12 66 -2.5 c 128,-1,14
 60 7 60 7 60 16 c 0,15,16
 60 30 60 30 69 37.5 c 128,-1,17
 78 45 78 45 91 45 c 0,18,19
 103 45 103 45 112 37 c 128,-1,20
 121 29 121 29 121 12 c 0,21,22
 121 -16 121 -16 103.5 -46.5 c 128,-1,23
 86 -77 86 -77 66 -94 c 0,24,25
 64 -97 64 -97 61 -92 c 0,26,27
 51 -82 51 -82 57 -73 c 128,-1,28
 63 -64 63 -64 65 -59 c 0,29,30
 70 -51 70 -51 76 -40.5 c 128,-1,31
 82 -30 82 -30 86 -14 c 1,12,13
EndSplineSet
EndChar

StartChar: less
Encoding: 60 60 30
Width: 450
GlyphClass: 1
Flags: W
LayerCount: 2
Fore
SplineSet
78 271 m 1,0,-1
 374 144 l 2,1,2
 397 135 397 135 397 118 c 2,3,-1
 397 117 l 2,4,5
 397 110 397 110 392 112 c 2,6,-1
 52 259 l 2,7,8
 46 261 46 261 46 268 c 2,9,-1
 46 272 l 2,10,11
 46 280 46 280 52 282 c 2,12,-1
 392 424 l 2,13,14
 397 427 397 427 397 421 c 2,15,-1
 397 411 l 2,16,17
 397 406 397 406 395.5 404 c 128,-1,18
 394 402 394 402 387 398 c 2,19,-1
 78 271 l 1,0,-1
EndSplineSet
EndChar

StartChar: equal
Encoding: 61 61 31
Width: 388
GlyphClass: 1
Flags: W
LayerCount: 2
Fore
SplineSet
335 344 m 2,0,-1
 49 344 l 2,1,2
 46 344 46 344 46 347 c 2,3,-1
 46 364 l 2,4,5
 46 367 46 367 49 367 c 2,6,-1
 328 367 l 2,7,8
 342 367 342 367 342 353 c 2,9,-1
 342 350 l 2,10,11
 342 344 342 344 335 344 c 2,0,-1
335 172 m 2,12,-1
 49 172 l 2,13,14
 46 172 46 172 46 175 c 2,15,-1
 46 192 l 2,16,17
 46 195 46 195 49 195 c 2,18,-1
 328 195 l 2,19,20
 342 195 342 195 342 181 c 2,21,-1
 342 178 l 2,22,23
 342 172 342 172 335 172 c 2,12,-1
EndSplineSet
EndChar

StartChar: greater
Encoding: 62 62 32
Width: 450
GlyphClass: 1
Flags: W
LayerCount: 2
Fore
SplineSet
373 271 m 1,0,-1
 63 398 l 2,1,2
 54 404 54 404 54 411 c 2,3,-1
 54 421 l 2,4,5
 54 427 54 427 59 424 c 2,6,-1
 398 282 l 2,7,8
 405 279 405 279 405 272 c 2,9,-1
 405 268 l 2,10,11
 405 262 405 262 398 259 c 2,12,-1
 59 112 l 2,13,14
 54 110 54 110 54 117 c 2,15,-1
 54 118 l 2,16,17
 54 135 54 135 77 144 c 2,18,-1
 373 271 l 1,0,-1
EndSplineSet
EndChar

StartChar: question
Encoding: 63 63 33
Width: 383
GlyphClass: 1
Flags: W
LayerCount: 2
Fore
SplineSet
160 124 m 2,0,-1
 160 190 l 2,1,2
 160 215 160 215 175.5 234 c 128,-1,3
 191 253 191 253 214.5 271 c 128,-1,4
 238 289 238 289 261 308.5 c 128,-1,5
 284 328 284 328 299.5 355 c 128,-1,6
 315 382 315 382 315 419 c 0,7,8
 315 478 315 478 277.5 511 c 128,-1,9
 240 544 240 544 175 544 c 0,10,11
 140 544 140 544 109.5 536 c 128,-1,12
 79 528 79 528 41 501 c 0,13,14
 39 500 39 500 36.5 498 c 128,-1,15
 34 496 34 496 31 496 c 0,16,17
 29 496 29 496 25 503 c 2,18,-1
 24 505 l 2,19,20
 20 513 20 513 24.5 519 c 128,-1,21
 29 525 29 525 45 534 c 0,22,23
 75 551 75 551 105.5 559 c 128,-1,24
 136 567 136 567 177 567 c 0,25,26
 251 567 251 567 295.5 528.5 c 128,-1,27
 340 490 340 490 340 419 c 0,28,29
 340 376 340 376 319.5 344.5 c 128,-1,30
 299 313 299 313 269 288 c 128,-1,31
 239 263 239 263 209 237 c 0,32,33
 196 225 196 225 190.5 214 c 128,-1,34
 185 203 185 203 185 184 c 2,35,-1
 185 124 l 2,36,37
 185 121 185 121 182 121 c 2,38,-1
 162 121 l 2,39,40
 160 121 160 121 160 124 c 2,0,-1
141 13 m 256,41,42
 141 26 141 26 150 35.5 c 128,-1,43
 159 45 159 45 172 45 c 256,44,45
 185 45 185 45 194 35.5 c 128,-1,46
 203 26 203 26 203 13 c 256,47,48
 203 0 203 0 194 -9 c 128,-1,49
 185 -18 185 -18 172 -18 c 256,50,51
 159 -18 159 -18 150 -9 c 128,-1,52
 141 0 141 0 141 13 c 256,41,42
EndSplineSet
EndChar

StartChar: at
Encoding: 64 64 34
Width: 762
GlyphClass: 1
Flags: W
LayerCount: 2
Fore
SplineSet
509 330 m 1,0,-1
 514 378 l 2,1,2
 516 393 516 393 523.5 399.5 c 128,-1,3
 531 406 531 406 538 406 c 2,4,-1
 540 406 l 2,5,6
 542 406 542 406 542 403 c 2,7,-1
 517 140 l 2,8,9
 516 133 516 133 515.5 126.5 c 128,-1,10
 515 120 515 120 515 113 c 0,11,12
 515 59 515 59 561 59 c 0,13,14
 613 59 613 59 648 113 c 128,-1,15
 683 167 683 167 683 274 c 0,16,17
 683 350 683 350 649.5 411.5 c 128,-1,18
 616 473 616 473 553 509.5 c 128,-1,19
 490 546 490 546 403 546 c 0,20,21
 306 546 306 546 233 501.5 c 128,-1,22
 160 457 160 457 120 382 c 128,-1,23
 80 307 80 307 80 214 c 0,24,25
 80 119 80 119 117.5 48 c 128,-1,26
 155 -23 155 -23 223 -62.5 c 128,-1,27
 291 -102 291 -102 381 -102 c 0,28,29
 454 -102 454 -102 512.5 -78.5 c 128,-1,30
 571 -55 571 -55 600 -15 c 0,31,32
 605 -9 605 -9 610 -9 c 0,33,34
 617 -9 617 -9 617 -17 c 0,35,36
 617 -26 617 -26 602.5 -43.5 c 128,-1,37
 588 -61 588 -61 558.5 -79.5 c 128,-1,38
 529 -98 529 -98 484.5 -111 c 128,-1,39
 440 -124 440 -124 380 -124 c 0,40,41
 282 -124 282 -124 208.5 -82 c 128,-1,42
 135 -40 135 -40 94.5 37 c 128,-1,43
 54 114 54 114 54 217 c 0,44,45
 54 290 54 290 79 353.5 c 128,-1,46
 104 417 104 417 150.5 465.5 c 128,-1,47
 197 514 197 514 261 541 c 128,-1,48
 325 568 325 568 403 568 c 0,49,50
 495 568 495 568 563.5 530 c 128,-1,51
 632 492 632 492 670 426.5 c 128,-1,52
 708 361 708 361 708 277 c 0,53,54
 708 169 708 169 669 103.5 c 128,-1,55
 630 38 630 38 562 38 c 0,56,57
 524 38 524 38 506 62.5 c 128,-1,58
 488 87 488 87 492 127 c 1,59,60
 475 89 475 89 437 63 c 128,-1,61
 399 37 399 37 347 37 c 0,62,63
 280 37 280 37 240 81.5 c 128,-1,64
 200 126 200 126 200 199 c 0,65,66
 200 253 200 253 220.5 302 c 128,-1,67
 241 351 241 351 282 381.5 c 128,-1,68
 323 412 323 412 382 412 c 0,69,70
 438 412 438 412 468.5 386.5 c 128,-1,71
 499 361 499 361 509 330 c 1,0,-1
349 59 m 0,72,73
 405 59 405 59 438.5 87.5 c 128,-1,74
 472 116 472 116 486.5 160.5 c 128,-1,75
 501 205 501 205 501 253 c 0,76,77
 501 320 501 320 470 354.5 c 128,-1,78
 439 389 439 389 380 389 c 0,79,80
 328 389 328 389 293.5 361 c 128,-1,81
 259 333 259 333 242.5 289.5 c 128,-1,82
 226 246 226 246 226 200 c 0,83,84
 226 135 226 135 259 97 c 128,-1,85
 292 59 292 59 349 59 c 0,72,73
EndSplineSet
EndChar

StartChar: A
Encoding: 65 65 35
Width: 472
GlyphClass: 1
Flags: W
LayerCount: 2
Fore
SplineSet
106 182 m 1,0,-1
 42 8 l 2,1,2
 40 3 40 3 38 1.5 c 128,-1,3
 36 0 36 0 29 0 c 2,4,-1
 15 0 l 2,5,6
 11 0 11 0 13 4 c 2,7,-1
 219 552 l 2,8,9
 221 556 221 556 223 556 c 2,10,-1
 225 556 l 2,11,12
 239 556 239 556 245 542 c 2,13,-1
 459 4 l 2,14,15
 461 0 461 0 457 0 c 2,16,-1
 440 0 l 2,17,18
 435 0 435 0 433.5 1.5 c 128,-1,19
 432 3 432 3 429 8 c 2,20,-1
 361 182 l 1,21,-1
 106 182 l 1,0,-1
115 205 m 1,22,-1
 352 205 l 1,23,-1
 230 513 l 1,24,-1
 115 205 l 1,22,-1
EndSplineSet
Substitution2: "Single Substitution lookup 2 subtable" ordfeminine
EndChar

StartChar: B
Encoding: 66 66 36
Width: 462
GlyphClass: 1
Flags: W
LayerCount: 2
Fore
SplineSet
311 295 m 1,0,1
 355 285 355 285 388 247.5 c 128,-1,2
 421 210 421 210 421 157 c 0,3,4
 421 82 421 82 377.5 41 c 128,-1,5
 334 0 334 0 256 0 c 2,6,-1
 85 0 l 2,7,8
 82 0 82 0 82 3 c 2,9,-1
 82 553 l 2,10,11
 82 556 82 556 85 556 c 2,12,-1
 231 556 l 2,13,14
 308 556 308 556 347 520 c 128,-1,15
 386 484 386 484 386 419 c 0,16,17
 386 370 386 370 365 339.5 c 128,-1,18
 344 309 344 309 311 295 c 1,0,1
108 305 m 1,19,-1
 260 305 l 2,20,21
 307 305 307 305 335 337 c 128,-1,22
 363 369 363 369 363 417 c 0,23,24
 363 533 363 533 233 533 c 2,25,-1
 108 533 l 1,26,-1
 108 305 l 1,19,-1
108 23 m 1,27,-1
 253 23 l 2,28,29
 322 23 322 23 358.5 54.5 c 128,-1,30
 395 86 395 86 395 156 c 0,31,32
 395 214 395 214 357.5 248 c 128,-1,33
 320 282 320 282 259 282 c 2,34,-1
 108 282 l 1,35,-1
 108 23 l 1,27,-1
EndSplineSet
EndChar

StartChar: C
Encoding: 67 67 37
Width: 505
GlyphClass: 1
Flags: W
LayerCount: 2
Fore
SplineSet
301 -11 m 0,0,1
 229 -11 229 -11 175.5 23.5 c 128,-1,2
 122 58 122 58 92.5 123 c 128,-1,3
 63 188 63 188 63 278 c 0,4,5
 63 367 63 367 93 432 c 128,-1,6
 123 497 123 497 177.5 532 c 128,-1,7
 232 567 232 567 307 567 c 0,8,9
 354 567 354 567 387 555 c 128,-1,10
 420 543 420 543 448 527 c 0,11,12
 464 517 464 517 468 511.5 c 128,-1,13
 472 506 472 506 469 498 c 2,14,-1
 468 495 l 2,15,16
 465 488 465 488 462 488 c 256,17,18
 459 488 459 488 456.5 490 c 128,-1,19
 454 492 454 492 452 493 c 0,20,21
 415 520 415 520 380.5 532 c 128,-1,22
 346 544 346 544 305 544 c 0,23,24
 205 544 205 544 147 472 c 128,-1,25
 89 400 89 400 89 277 c 0,26,27
 89 155 89 155 146.5 83.5 c 128,-1,28
 204 12 204 12 303 12 c 0,29,30
 364 12 364 12 403.5 39.5 c 128,-1,31
 443 67 443 67 461 109 c 0,32,33
 465 118 465 118 470 118 c 0,34,35
 479 118 479 118 479 106 c 0,36,37
 479 96 479 96 469.5 76.5 c 128,-1,38
 460 57 460 57 439 37 c 128,-1,39
 418 17 418 17 384 3 c 128,-1,40
 350 -11 350 -11 301 -11 c 0,0,1
EndSplineSet
EndChar

StartChar: D
Encoding: 68 68 38
Width: 547
GlyphClass: 1
Flags: W
LayerCount: 2
Fore
SplineSet
223 0 m 2,0,-1
 85 0 l 2,1,2
 82 0 82 0 82 3 c 2,3,-1
 82 553 l 2,4,5
 82 556 82 556 85 556 c 2,6,-1
 224 556 l 2,7,8
 483 556 483 556 483 286 c 0,9,10
 483 0 483 0 223 0 c 2,0,-1
108 23 m 1,11,-1
 224 23 l 2,12,13
 340 23 340 23 398.5 87 c 128,-1,14
 457 151 457 151 457 284 c 0,15,16
 457 411 457 411 400 472 c 128,-1,17
 343 533 343 533 224 533 c 2,18,-1
 108 533 l 1,19,-1
 108 23 l 1,11,-1
EndSplineSet
EndChar

StartChar: E
Encoding: 69 69 39
Width: 408
GlyphClass: 1
Flags: W
LayerCount: 2
Fore
SplineSet
108 23 m 1,0,-1
 358 23 l 2,1,2
 371 23 371 23 371 9 c 2,3,-1
 371 6 l 2,4,5
 371 0 371 0 365 0 c 2,6,-1
 85 0 l 2,7,8
 82 0 82 0 82 3 c 2,9,-1
 82 553 l 2,10,11
 82 556 82 556 85 556 c 2,12,-1
 348 556 l 2,13,14
 361 556 361 556 361 542 c 2,15,-1
 361 539 l 2,16,17
 361 533 361 533 355 533 c 2,18,-1
 108 533 l 1,19,-1
 108 285 l 1,20,-1
 328 285 l 2,21,22
 341 285 341 285 341 271 c 2,23,-1
 341 268 l 2,24,25
 341 262 341 262 335 262 c 2,26,-1
 108 262 l 1,27,-1
 108 23 l 1,0,-1
EndSplineSet
EndChar

StartChar: F
Encoding: 70 70 40
Width: 392
GlyphClass: 1
Flags: W
LayerCount: 2
Fore
SplineSet
108 262 m 1,0,-1
 108 3 l 2,1,2
 108 0 108 0 105 0 c 2,3,-1
 85 0 l 2,4,5
 82 0 82 0 82 3 c 2,6,-1
 82 553 l 2,7,8
 82 556 82 556 85 556 c 2,9,-1
 348 556 l 2,10,11
 361 556 361 556 361 542 c 2,12,-1
 361 539 l 2,13,14
 361 533 361 533 355 533 c 2,15,-1
 108 533 l 1,16,-1
 108 285 l 1,17,-1
 328 285 l 2,18,19
 341 285 341 285 341 271 c 2,20,-1
 341 268 l 2,21,22
 341 262 341 262 335 262 c 2,23,-1
 108 262 l 1,0,-1
EndSplineSet
EndChar

StartChar: G
Encoding: 71 71 41
Width: 548
GlyphClass: 1
Flags: W
LayerCount: 2
Fore
SplineSet
460 81 m 1,0,-1
 460 248 l 1,1,-1
 291 248 l 2,2,3
 277 248 277 248 277 262 c 2,4,-1
 277 266 l 2,5,6
 277 271 277 271 284 271 c 2,7,-1
 482 271 l 2,8,9
 486 271 486 271 486 268 c 2,10,-1
 486 97 l 2,11,12
 486 83 486 83 483.5 74.5 c 128,-1,13
 481 66 481 66 470 57 c 0,14,15
 434 25 434 25 392 7.5 c 128,-1,16
 350 -10 350 -10 302 -10 c 0,17,18
 190 -10 190 -10 126.5 66.5 c 128,-1,19
 63 143 63 143 63 278 c 0,20,21
 63 366 63 366 93 431 c 128,-1,22
 123 496 123 496 178 531.5 c 128,-1,23
 233 567 233 567 307 567 c 0,24,25
 357 567 357 567 391.5 555 c 128,-1,26
 426 543 426 543 454 527 c 0,27,28
 470 518 470 518 474 512 c 128,-1,29
 478 506 478 506 475 498 c 2,30,-1
 474 495 l 2,31,32
 471 488 471 488 468 488 c 256,33,34
 465 488 465 488 462.5 490 c 128,-1,35
 460 492 460 492 458 493 c 0,36,37
 421 520 421 520 384.5 532 c 128,-1,38
 348 544 348 544 305 544 c 0,39,40
 205 544 205 544 147 472 c 128,-1,41
 89 400 89 400 89 277 c 0,42,43
 89 153 89 153 146 83 c 128,-1,44
 203 13 203 13 303 13 c 0,45,46
 347 13 347 13 389 31 c 128,-1,47
 431 49 431 49 460 81 c 1,0,-1
EndSplineSet
EndChar

StartChar: H
Encoding: 72 72 42
Width: 517
GlyphClass: 1
Flags: W
LayerCount: 2
Fore
SplineSet
108 264 m 1,0,-1
 108 3 l 2,1,2
 108 0 108 0 105 0 c 2,3,-1
 85 0 l 2,4,5
 82 0 82 0 82 3 c 2,6,-1
 82 553 l 2,7,8
 82 556 82 556 85 556 c 2,9,-1
 87 556 l 2,10,11
 95 556 95 556 101.5 549.5 c 128,-1,12
 108 543 108 543 108 528 c 2,13,-1
 108 287 l 1,14,-1
 408 287 l 1,15,-1
 408 553 l 2,16,17
 408 556 408 556 411 556 c 2,18,-1
 413 556 l 2,19,20
 421 556 421 556 427.5 549.5 c 128,-1,21
 434 543 434 543 434 528 c 2,22,-1
 434 3 l 2,23,24
 434 0 434 0 431 0 c 2,25,-1
 411 0 l 2,26,27
 408 0 408 0 408 3 c 2,28,-1
 408 264 l 1,29,-1
 108 264 l 1,0,-1
EndSplineSet
EndChar

StartChar: I
Encoding: 73 73 43
Width: 191
GlyphClass: 1
Flags: W
LayerCount: 2
Fore
SplineSet
82 3 m 2,0,-1
 82 553 l 2,1,2
 82 556 82 556 85 556 c 2,3,-1
 87 556 l 2,4,5
 95 556 95 556 101.5 549.5 c 128,-1,6
 108 543 108 543 108 528 c 2,7,-1
 108 3 l 2,8,9
 108 0 108 0 105 0 c 2,10,-1
 85 0 l 2,11,12
 82 0 82 0 82 3 c 2,0,-1
EndSplineSet
EndChar

StartChar: J
Encoding: 74 74 44
Width: 264
GlyphClass: 1
Flags: W
LayerCount: 2
Fore
SplineSet
9 69 m 0,0,1
 9 79 9 79 16 79 c 0,2,3
 22 79 22 79 25 72 c 0,4,5
 39 41 39 41 54 27 c 128,-1,6
 69 13 69 13 93 13 c 0,7,8
 123 13 123 13 141 33 c 128,-1,9
 159 53 159 53 159 83 c 2,10,-1
 159 553 l 2,11,12
 159 556 159 556 162 556 c 2,13,-1
 164 556 l 2,14,15
 172 556 172 556 178.5 549.5 c 128,-1,16
 185 543 185 543 185 528 c 2,17,-1
 185 87 l 2,18,19
 185 44 185 44 160 16.5 c 128,-1,20
 135 -11 135 -11 95 -11 c 0,21,22
 63 -11 63 -11 44 3 c 128,-1,23
 25 17 25 17 17 36 c 128,-1,24
 9 55 9 55 9 69 c 0,0,1
EndSplineSet
EndChar

StartChar: K
Encoding: 75 75 45
Width: 459
GlyphClass: 1
Flags: W
LayerCount: 2
Fore
SplineSet
108 186 m 1,0,-1
 108 3 l 2,1,2
 108 0 108 0 105 0 c 2,3,-1
 85 0 l 2,4,5
 82 0 82 0 82 3 c 2,6,-1
 82 553 l 2,7,8
 82 556 82 556 85 556 c 2,9,-1
 87 556 l 2,10,11
 95 556 95 556 101.5 549.5 c 128,-1,12
 108 543 108 543 108 528 c 2,13,-1
 108 222 l 1,14,-1
 389 547 l 2,15,16
 394 552 394 552 397 554 c 128,-1,17
 400 556 400 556 407 556 c 2,18,-1
 421 556 l 2,19,20
 423 556 423 556 424 554.5 c 128,-1,21
 425 553 425 553 423 551 c 2,22,-1
 235 333 l 1,23,-1
 443 4 l 2,24,25
 445 0 445 0 440 0 c 2,26,-1
 425 0 l 2,27,28
 418 0 418 0 415 2 c 128,-1,29
 412 4 412 4 408 10 c 2,30,-1
 218 312 l 1,31,-1
 108 186 l 1,0,-1
EndSplineSet
EndChar

StartChar: L
Encoding: 76 76 46
Width: 354
GlyphClass: 1
Flags: W
LayerCount: 2
Fore
SplineSet
108 23 m 1,0,-1
 317 23 l 2,1,2
 331 23 331 23 331 9 c 2,3,-1
 331 6 l 2,4,5
 331 0 331 0 324 0 c 2,6,-1
 85 0 l 2,7,8
 82 0 82 0 82 3 c 2,9,-1
 82 553 l 2,10,11
 82 556 82 556 85 556 c 2,12,-1
 87 556 l 2,13,14
 95 556 95 556 101.5 549.5 c 128,-1,15
 108 543 108 543 108 528 c 2,16,-1
 108 23 l 1,0,-1
EndSplineSet
EndChar

StartChar: M
Encoding: 77 77 47
Width: 610
GlyphClass: 1
Flags: W
LayerCount: 2
Fore
SplineSet
305 26 m 1,0,-1
 493 553 l 2,1,2
 495 554 495 554 495.5 555 c 128,-1,3
 496 556 496 556 497 556 c 2,4,-1
 501 556 l 2,5,6
 508 556 508 556 511 551.5 c 128,-1,7
 514 547 514 547 515 541 c 2,8,-1
 550 3 l 2,9,10
 550 0 550 0 547 0 c 2,11,-1
 527 0 l 2,12,13
 525 0 525 0 525 3 c 2,14,-1
 493 488 l 1,15,-1
 320 3 l 2,16,17
 317 0 317 0 316 0 c 2,18,-1
 293 0 l 2,19,20
 291 0 291 0 289 3 c 2,21,-1
 116 487 l 1,22,-1
 85 3 l 2,23,24
 85 0 85 0 82 0 c 2,25,-1
 62 0 l 2,26,27
 59 0 59 0 59 3 c 2,28,-1
 97 553 l 2,29,30
 97 556 97 556 100 556 c 2,31,-1
 104 556 l 2,32,33
 116 556 116 556 120 543 c 2,34,-1
 305 26 l 1,0,-1
EndSplineSet
EndChar

StartChar: N
Encoding: 78 78 48
Width: 517
GlyphClass: 1
Flags: W
LayerCount: 2
Fore
SplineSet
408 49 m 1,0,-1
 408 553 l 2,1,2
 408 556 408 556 411 556 c 2,3,-1
 413 556 l 2,4,5
 421 556 421 556 427.5 549.5 c 128,-1,6
 434 543 434 543 434 528 c 2,7,-1
 434 7 l 2,8,9
 434 0 434 0 428 0 c 2,10,-1
 420 0 l 2,11,12
 413 0 413 0 410 2 c 128,-1,13
 407 4 407 4 403 10 c 2,14,-1
 108 491 l 1,15,-1
 108 3 l 2,16,17
 108 0 108 0 105 0 c 2,18,-1
 85 0 l 2,19,20
 82 0 82 0 82 3 c 2,21,-1
 82 553 l 2,22,23
 82 556 82 556 85 556 c 2,24,-1
 86 556 l 2,25,26
 93 556 93 556 98 552 c 128,-1,27
 103 548 103 548 111 534 c 2,28,-1
 408 49 l 1,0,-1
EndSplineSet
EndChar

StartChar: O
Encoding: 79 79 49
Width: 586
GlyphClass: 1
Flags: W
LayerCount: 2
Fore
SplineSet
293 -10 m 0,0,1
 178 -10 178 -10 120.5 67.5 c 128,-1,2
 63 145 63 145 63 277 c 256,3,4
 63 409 63 409 121.5 488 c 128,-1,5
 180 567 180 567 293 567 c 0,6,7
 407 567 407 567 464.5 488 c 128,-1,8
 522 409 522 409 522 277 c 256,9,10
 522 145 522 145 465.5 67.5 c 128,-1,11
 409 -10 409 -10 293 -10 c 0,0,1
293 13 m 256,12,13
 351 13 351 13 397 40.5 c 128,-1,14
 443 68 443 68 469.5 126 c 128,-1,15
 496 184 496 184 496 277 c 256,16,17
 496 370 496 370 469.5 429 c 128,-1,18
 443 488 443 488 397 516 c 128,-1,19
 351 544 351 544 293 544 c 256,20,21
 235 544 235 544 188.5 516 c 128,-1,22
 142 488 142 488 115.5 429 c 128,-1,23
 89 370 89 370 89 277 c 256,24,25
 89 184 89 184 115.5 126 c 128,-1,26
 142 68 142 68 188.5 40.5 c 128,-1,27
 235 13 235 13 293 13 c 256,12,13
EndSplineSet
Substitution2: "Single Substitution lookup 2 subtable" ordmasculine
EndChar

StartChar: P
Encoding: 80 80 50
Width: 475
GlyphClass: 1
Flags: W
LayerCount: 2
Fore
SplineSet
108 226 m 1,0,-1
 108 3 l 2,1,2
 108 0 108 0 105 0 c 2,3,-1
 85 0 l 2,4,5
 82 0 82 0 82 3 c 2,6,-1
 82 553 l 2,7,8
 82 556 82 556 85 556 c 2,9,-1
 263 556 l 2,10,11
 339 556 339 556 386 514 c 128,-1,12
 433 472 433 472 433 393 c 0,13,14
 433 313 433 313 389 269.5 c 128,-1,15
 345 226 345 226 265 226 c 2,16,-1
 108 226 l 1,0,-1
108 248 m 1,17,-1
 263 248 l 2,18,19
 299 248 299 248 332 260.5 c 128,-1,20
 365 273 365 273 386 304.5 c 128,-1,21
 407 336 407 336 407 393 c 0,22,23
 407 458 407 458 369.5 495.5 c 128,-1,24
 332 533 332 533 267 533 c 2,25,-1
 108 533 l 1,26,-1
 108 248 l 1,17,-1
EndSplineSet
EndChar

StartChar: Q
Encoding: 81 81 51
Width: 586
GlyphClass: 1
Flags: W
LayerCount: 2
Fore
SplineSet
270 -9 m 1,0,1
 167 -1 167 -1 115 75 c 128,-1,2
 63 151 63 151 63 277 c 0,3,4
 63 409 63 409 121.5 488 c 128,-1,5
 180 567 180 567 293 567 c 0,6,7
 407 567 407 567 464.5 488 c 128,-1,8
 522 409 522 409 522 277 c 0,9,10
 522 146 522 146 467 69 c 128,-1,11
 412 -8 412 -8 299 -10 c 1,12,13
 306 -24 306 -24 317.5 -41.5 c 128,-1,14
 329 -59 329 -59 348 -71 c 128,-1,15
 367 -83 367 -83 394 -83 c 0,16,17
 434 -83 434 -83 460 -65.5 c 128,-1,18
 486 -48 486 -48 496 -17 c 0,19,20
 501 -8 501 -8 506 -8 c 0,21,22
 514 -8 514 -8 514 -20 c 0,23,24
 514 -39 514 -39 500.5 -59 c 128,-1,25
 487 -79 487 -79 460 -92.5 c 128,-1,26
 433 -106 433 -106 394 -106 c 0,27,28
 345 -106 345 -106 314.5 -77.5 c 128,-1,29
 284 -49 284 -49 270 -9 c 1,0,1
293 13 m 256,30,31
 351 13 351 13 397 40.5 c 128,-1,32
 443 68 443 68 469.5 126 c 128,-1,33
 496 184 496 184 496 277 c 256,34,35
 496 370 496 370 469.5 429 c 128,-1,36
 443 488 443 488 397 516 c 128,-1,37
 351 544 351 544 293 544 c 256,38,39
 235 544 235 544 188.5 516 c 128,-1,40
 142 488 142 488 115.5 429 c 128,-1,41
 89 370 89 370 89 277 c 256,42,43
 89 184 89 184 115.5 126 c 128,-1,44
 142 68 142 68 188.5 40.5 c 128,-1,45
 235 13 235 13 293 13 c 256,30,31
EndSplineSet
EndChar

StartChar: R
Encoding: 82 82 52
Width: 490
GlyphClass: 1
Flags: W
LayerCount: 2
Fore
SplineSet
108 226 m 1,0,-1
 108 3 l 2,1,2
 108 0 108 0 105 0 c 2,3,-1
 85 0 l 2,4,5
 82 0 82 0 82 3 c 2,6,-1
 82 553 l 2,7,8
 82 556 82 556 85 556 c 2,9,-1
 263 556 l 2,10,11
 339 556 339 556 386 514 c 128,-1,12
 433 472 433 472 433 393 c 0,13,14
 433 326 433 326 402 284.5 c 128,-1,15
 371 243 371 243 313 231 c 1,16,-1
 444 4 l 2,17,18
 446 0 446 0 441 0 c 2,19,-1
 424 0 l 2,20,21
 417 0 417 0 412 8 c 2,22,-1
 286 227 l 1,23,24
 281 226 281 226 275.5 226 c 128,-1,25
 270 226 270 226 265 226 c 2,26,-1
 108 226 l 1,0,-1
108 248 m 1,27,-1
 263 248 l 2,28,29
 299 248 299 248 332 260.5 c 128,-1,30
 365 273 365 273 386 304.5 c 128,-1,31
 407 336 407 336 407 393 c 0,32,33
 407 459 407 459 369.5 496 c 128,-1,34
 332 533 332 533 267 533 c 2,35,-1
 108 533 l 1,36,-1
 108 248 l 1,27,-1
EndSplineSet
EndChar

StartChar: S
Encoding: 83 83 53
Width: 422
GlyphClass: 1
Flags: W
LayerCount: 2
Fore
SplineSet
27 103 m 0,0,1
 27 109 27 109 28.5 114 c 128,-1,2
 30 119 30 119 36 119 c 0,3,4
 43 119 43 119 46 109 c 0,5,6
 60 66 60 66 104.5 39 c 128,-1,7
 149 12 149 12 207 12 c 0,8,9
 280 12 280 12 320 48.5 c 128,-1,10
 360 85 360 85 360 149 c 0,11,12
 360 187 360 187 337 210.5 c 128,-1,13
 314 234 314 234 278.5 250.5 c 128,-1,14
 243 267 243 267 202.5 280.5 c 128,-1,15
 162 294 162 294 126 311.5 c 128,-1,16
 90 329 90 329 67.5 355.5 c 128,-1,17
 45 382 45 382 45 424 c 0,18,19
 45 467 45 467 67.5 499 c 128,-1,20
 90 531 90 531 128 549 c 128,-1,21
 166 567 166 567 214 567 c 0,22,23
 261 567 261 567 294 555 c 128,-1,24
 327 543 327 543 355 527 c 0,25,26
 371 517 371 517 375 511.5 c 128,-1,27
 379 506 379 506 376 498 c 2,28,-1
 375 495 l 2,29,30
 372 488 372 488 369 488 c 256,31,32
 366 488 366 488 363.5 490 c 128,-1,33
 361 492 361 492 359 493 c 0,34,35
 322 520 322 520 288.5 532 c 128,-1,36
 255 544 255 544 214 544 c 0,37,38
 151 544 151 544 111 512 c 128,-1,39
 71 480 71 480 71 426 c 0,40,41
 71 388 71 388 93.5 364.5 c 128,-1,42
 116 341 116 341 152 325 c 128,-1,43
 188 309 188 309 228.5 295.5 c 128,-1,44
 269 282 269 282 304.5 264.5 c 128,-1,45
 340 247 340 247 363 220 c 128,-1,46
 386 193 386 193 386 150 c 0,47,48
 386 77 386 77 338.5 33 c 128,-1,49
 291 -11 291 -11 209 -11 c 0,50,51
 161 -11 161 -11 126.5 2 c 128,-1,52
 92 15 92 15 70 34 c 128,-1,53
 48 53 48 53 37.5 72 c 128,-1,54
 27 91 27 91 27 103 c 0,0,1
EndSplineSet
EndChar

StartChar: T
Encoding: 84 84 54
Width: 379
GlyphClass: 1
Flags: W
LayerCount: 2
Fore
SplineSet
177 533 m 1,0,-1
 22 533 l 2,1,2
 19 533 19 533 19 536 c 2,3,-1
 19 553 l 2,4,5
 19 556 19 556 22 556 c 2,6,-1
 347 556 l 2,7,8
 361 556 361 556 361 542 c 2,9,-1
 361 539 l 2,10,11
 361 533 361 533 354 533 c 2,12,-1
 203 533 l 1,13,-1
 203 3 l 2,14,15
 203 0 203 0 200 0 c 2,16,-1
 180 0 l 2,17,18
 177 0 177 0 177 3 c 2,19,-1
 177 533 l 1,0,-1
EndSplineSet
EndChar

StartChar: U
Encoding: 85 85 55
Width: 508
GlyphClass: 1
Flags: W
LayerCount: 2
Fore
SplineSet
254 -10 m 0,0,1
 78 -10 78 -10 78 194 c 2,2,-1
 78 553 l 2,3,4
 78 556 78 556 81 556 c 2,5,-1
 82 556 l 2,6,7
 90 556 90 556 97 549.5 c 128,-1,8
 104 543 104 543 104 528 c 2,9,-1
 104 191 l 2,10,11
 104 13 104 13 255 13 c 0,12,13
 328 13 328 13 366.5 59 c 128,-1,14
 405 105 405 105 405 192 c 2,15,-1
 405 553 l 2,16,17
 405 556 405 556 407 556 c 2,18,-1
 410 556 l 2,19,20
 418 556 418 556 424.5 549.5 c 128,-1,21
 431 543 431 543 431 528 c 2,22,-1
 431 197 l 2,23,24
 431 97 431 97 385.5 43.5 c 128,-1,25
 340 -10 340 -10 254 -10 c 0,0,1
EndSplineSet
EndChar

StartChar: V
Encoding: 86 86 56
Width: 444
GlyphClass: 1
Flags: W
LayerCount: 2
Fore
SplineSet
227 45 m 1,0,-1
 398 547 l 2,1,2
 402 556 402 556 410 556 c 2,3,-1
 422 556 l 2,4,5
 426 556 426 556 426 551 c 2,6,-1
 238 4 l 2,7,8
 237 0 237 0 232 0 c 2,9,-1
 221 0 l 2,10,11
 217 0 217 0 216 4 c 2,12,-1
 19 551 l 2,13,14
 17 556 17 556 23 556 c 2,15,-1
 27 556 l 2,16,17
 38 556 38 556 43.5 550 c 128,-1,18
 49 544 49 544 53 534 c 2,19,-1
 227 45 l 1,0,-1
EndSplineSet
EndChar

StartChar: W
Encoding: 87 87 57
Width: 761
GlyphClass: 1
Flags: W
LayerCount: 2
Fore
SplineSet
213 46 m 1,0,-1
 368 548 l 2,1,2
 370 556 370 556 375 556 c 2,3,-1
 377 556 l 2,4,5
 388 556 388 556 392.5 550 c 128,-1,6
 397 544 397 544 400 534 c 2,7,-1
 543 46 l 1,8,-1
 702 547 l 2,9,10
 706 556 706 556 714 556 c 2,11,-1
 727 556 l 2,12,13
 734 556 734 556 731 551 c 2,14,-1
 554 4 l 2,15,16
 553 0 553 0 548 0 c 2,17,-1
 537 0 l 2,18,19
 533 0 533 0 532 4 c 2,20,-1
 382 511 l 1,21,-1
 223 4 l 2,22,23
 222 0 222 0 217 0 c 2,24,-1
 207 0 l 2,25,26
 203 0 203 0 202 4 c 2,27,-1
 34 551 l 2,28,29
 32 556 32 556 38 556 c 2,30,-1
 41 556 l 2,31,32
 60 556 60 556 67 534 c 2,33,-1
 213 46 l 1,0,-1
EndSplineSet
EndChar

StartChar: X
Encoding: 88 88 58
Width: 446
GlyphClass: 1
Flags: W
LayerCount: 2
Fore
SplineSet
225 280 m 1,0,-1
 45 8 l 2,1,2
 40 0 40 0 32 0 c 2,3,-1
 17 0 l 2,4,5
 13 0 13 0 15 4 c 2,6,-1
 208 299 l 1,7,-1
 41 552 l 2,8,9
 40 553 40 553 41 554.5 c 128,-1,10
 42 556 42 556 43 556 c 2,11,-1
 51 556 l 2,12,13
 67 556 67 556 77 541 c 2,14,-1
 225 317 l 1,15,-1
 383 548 l 2,16,17
 386 552 386 552 388 554 c 128,-1,18
 390 556 390 556 396 556 c 2,19,-1
 411 556 l 2,20,21
 412 556 412 556 412.5 554.5 c 128,-1,22
 413 553 413 553 412 552 c 2,23,-1
 241 300 l 1,24,-1
 435 4 l 2,25,26
 437 0 437 0 432 0 c 2,27,-1
 416 0 l 2,28,29
 410 0 410 0 408 2 c 128,-1,30
 406 4 406 4 403 8 c 2,31,-1
 225 280 l 1,0,-1
EndSplineSet
EndChar

StartChar: Y
Encoding: 89 89 59
Width: 421
GlyphClass: 1
Flags: W
LayerCount: 2
Fore
SplineSet
196 223 m 1,0,-1
 15 552 l 2,1,2
 14 553 14 553 15 554.5 c 128,-1,3
 16 556 16 556 18 556 c 2,4,-1
 22 556 l 2,5,6
 33 556 33 556 39.5 551.5 c 128,-1,7
 46 547 46 547 53 533 c 2,8,-1
 209 247 l 1,9,-1
 377 547 l 2,10,11
 383 556 383 556 391 556 c 2,12,-1
 403 556 l 2,13,14
 406 556 406 556 407 554.5 c 128,-1,15
 408 553 408 553 407 552 c 2,16,-1
 222 223 l 1,17,-1
 222 3 l 2,18,19
 222 0 222 0 219 0 c 2,20,-1
 199 0 l 2,21,22
 196 0 196 0 196 3 c 2,23,-1
 196 223 l 1,0,-1
EndSplineSet
EndChar

StartChar: Z
Encoding: 90 90 60
Width: 433
GlyphClass: 1
Flags: W
LayerCount: 2
Fore
SplineSet
64 23 m 1,0,-1
 373 23 l 2,1,2
 387 23 387 23 387 9 c 2,3,-1
 387 6 l 2,4,5
 387 0 387 0 382 0 c 2,6,-1
 43 0 l 2,7,8
 40 0 40 0 40 3 c 2,9,-1
 40 16 l 2,10,11
 40 22 40 22 41.5 26.5 c 128,-1,12
 43 31 43 31 47 38 c 2,13,-1
 367 533 l 1,14,-1
 64 533 l 2,15,16
 62 533 62 533 62 536 c 2,17,-1
 62 553 l 2,18,19
 62 556 62 556 64 556 c 2,20,-1
 365 556 l 2,21,22
 389 556 389 556 389 536 c 2,23,-1
 389 532 l 2,24,25
 389 524 389 524 377 505 c 2,26,-1
 64 23 l 1,0,-1
EndSplineSet
EndChar

StartChar: bracketleft
Encoding: 91 91 61
Width: 282
GlyphClass: 1
Flags: W
LayerCount: 2
Fore
SplineSet
224 -144 m 2,0,-1
 129 -144 l 2,1,2
 107 -144 107 -144 92.5 -129.5 c 128,-1,3
 78 -115 78 -115 78 -93 c 2,4,-1
 78 645 l 2,5,6
 78 667 78 667 92.5 681.5 c 128,-1,7
 107 696 107 696 129 696 c 2,8,-1
 224 696 l 2,9,10
 226 696 226 696 226 694 c 2,11,-1
 226 693 l 2,12,13
 226 685 226 685 218.5 679 c 128,-1,14
 211 673 211 673 200 673 c 2,15,-1
 132 673 l 2,16,17
 119 673 119 673 111.5 664 c 128,-1,18
 104 655 104 655 104 643 c 2,19,-1
 104 -91 l 2,20,21
 104 -104 104 -104 111.5 -112.5 c 128,-1,22
 119 -121 119 -121 132 -121 c 2,23,-1
 200 -121 l 2,24,25
 211 -121 211 -121 218.5 -127 c 128,-1,26
 226 -133 226 -133 226 -142 c 2,27,-1
 226 -143 l 2,28,29
 226 -144 226 -144 224 -144 c 2,0,-1
EndSplineSet
EndChar

StartChar: backslash
Encoding: 92 92 62
Width: 261
GlyphClass: 1
Flags: W
LayerCount: 2
Fore
SplineSet
232 8 m 2,0,-1
 2 551 l 2,1,2
 0 556 0 556 6 556 c 2,3,-1
 10 556 l 2,4,5
 21 556 21 556 26.5 550 c 128,-1,6
 32 544 32 544 36 534 c 2,7,-1
 260 4 l 2,8,9
 262 3 262 3 261 1.5 c 128,-1,10
 260 0 260 0 258 0 c 2,11,-1
 244 0 l 2,12,13
 237 0 237 0 235.5 1.5 c 128,-1,14
 234 3 234 3 232 8 c 2,0,-1
EndSplineSet
EndChar

StartChar: bracketright
Encoding: 93 93 63
Width: 282
GlyphClass: 1
Flags: W
LayerCount: 2
Fore
SplineSet
153 -144 m 2,0,-1
 58 -144 l 2,1,2
 56 -144 56 -144 56 -143 c 2,3,-1
 56 -142 l 2,4,5
 56 -133 56 -133 64 -127 c 128,-1,6
 72 -121 72 -121 83 -121 c 2,7,-1
 150 -121 l 2,8,9
 164 -121 164 -121 171 -112.5 c 128,-1,10
 178 -104 178 -104 178 -91 c 2,11,-1
 178 643 l 2,12,13
 178 655 178 655 171 664 c 128,-1,14
 164 673 164 673 150 673 c 2,15,-1
 83 673 l 2,16,17
 72 673 72 673 64 679 c 128,-1,18
 56 685 56 685 56 693 c 2,19,-1
 56 694 l 2,20,21
 56 696 56 696 58 696 c 2,22,-1
 153 696 l 2,23,24
 176 696 176 696 190 681.5 c 128,-1,25
 204 667 204 667 204 645 c 2,26,-1
 204 -93 l 2,27,28
 204 -115 204 -115 190 -129.5 c 128,-1,29
 176 -144 176 -144 153 -144 c 2,0,-1
EndSplineSet
PairPos2: "'kern' Horizontal Kerning lookup 3 per glyph data 1" uni0671 dx=67 dy=0 dh=67 dv=0 dx=0 dy=0 dh=0 dv=0
PairPos2: "'kern' Horizontal Kerning lookup 3 per glyph data 1" uni0625 dx=39 dy=0 dh=39 dv=0 dx=0 dy=0 dh=0 dv=0
PairPos2: "'kern' Horizontal Kerning lookup 3 per glyph data 1" uni0623 dx=56 dy=0 dh=56 dv=0 dx=0 dy=0 dh=0 dv=0
PairPos2: "'kern' Horizontal Kerning lookup 3 per glyph data 1" uni0622 dx=56 dy=0 dh=56 dv=0 dx=0 dy=0 dh=0 dv=0
EndChar

StartChar: asciicircum
Encoding: 94 94 64
Width: 368
GlyphClass: 1
Flags: W
LayerCount: 2
Fore
SplineSet
184 517 m 1,0,-1
 62 282 l 2,1,2
 58 273 58 273 50 273 c 2,3,-1
 37 273 l 2,4,5
 32 273 32 273 34 278 c 2,6,-1
 173 551 l 2,7,8
 176 556 176 556 180 556 c 0,9,10
 188 556 188 556 192.5 552 c 128,-1,11
 197 548 197 548 204 534 c 2,12,-1
 334 278 l 2,13,14
 337 273 337 273 331 273 c 2,15,-1
 318 273 l 2,16,17
 311 273 311 273 306 282 c 2,18,-1
 184 517 l 1,0,-1
EndSplineSet
EndChar

StartChar: underscore
Encoding: 95 95 65
Width: 355
GlyphClass: 1
Flags: W
LayerCount: 2
Fore
SplineSet
-8 -165 m 2,0,-1
 -8 -148 l 2,1,2
 -8 -145 -8 -145 -5 -145 c 2,3,-1
 358 -145 l 2,4,5
 361 -145 361 -145 361 -148 c 2,6,-1
 361 -165 l 2,7,8
 361 -168 361 -168 358 -168 c 2,9,-1
 -5 -168 l 2,10,11
 -8 -168 -8 -168 -8 -165 c 2,0,-1
EndSplineSet
EndChar

StartChar: grave
Encoding: 96 96 66
Width: 107
GlyphClass: 1
Flags: W
LayerCount: 2
Fore
SplineSet
69 440 m 2,0,-1
 2 496 l 2,1,2
 1 498 1 498 1.5 500 c 128,-1,3
 2 502 2 502 5 502 c 2,4,-1
 28 502 l 2,5,6
 36 502 36 502 40 500 c 128,-1,7
 44 498 44 498 49 493 c 2,8,-1
 107 436 l 2,9,10
 110 431 110 431 103 431 c 2,11,-1
 94 431 l 2,12,13
 86 431 86 431 82 432 c 128,-1,14
 78 433 78 433 69 440 c 2,0,-1
EndSplineSet
EndChar

StartChar: a
Encoding: 97 97 67
Width: 441
GlyphClass: 1
Flags: W
LayerCount: 2
Fore
SplineSet
348 284 m 1,0,-1
 348 332 l 2,1,2
 348 348 348 348 355 354 c 128,-1,3
 362 360 362 360 369 360 c 2,4,-1
 371 360 l 2,5,6
 374 360 374 360 374 357 c 2,7,-1
 374 3 l 2,8,9
 374 0 374 0 371 0 c 2,10,-1
 351 0 l 2,11,12
 348 0 348 0 348 3 c 2,13,-1
 348 74 l 1,14,15
 334 39 334 39 299.5 15 c 128,-1,16
 265 -9 265 -9 214 -9 c 0,17,18
 166 -9 166 -9 129 15 c 128,-1,19
 92 39 92 39 71 81.5 c 128,-1,20
 50 124 50 124 50 179 c 256,21,22
 50 234 50 234 71 276 c 128,-1,23
 92 318 92 318 128.5 342.5 c 128,-1,24
 165 367 165 367 213 367 c 0,25,26
 266 367 266 367 300.5 341 c 128,-1,27
 335 315 335 315 348 284 c 1,0,-1
214 13 m 0,28,29
 279 13 279 13 314 56.5 c 128,-1,30
 349 100 349 100 349 179 c 0,31,32
 349 259 349 259 314 302 c 128,-1,33
 279 345 279 345 213 345 c 0,34,35
 150 345 150 345 113 300 c 128,-1,36
 76 255 76 255 76 179 c 256,37,38
 76 103 76 103 114 58 c 128,-1,39
 152 13 152 13 214 13 c 0,28,29
EndSplineSet
Substitution2: "Single Substitution lookup 2 subtable" ordfeminine
EndChar

StartChar: b
Encoding: 98 98 68
Width: 441
GlyphClass: 1
Flags: W
LayerCount: 2
Fore
SplineSet
94 74 m 1,0,-1
 94 3 l 2,1,2
 94 0 94 0 91 0 c 2,3,-1
 71 0 l 2,4,5
 68 0 68 0 68 3 c 2,6,-1
 68 553 l 2,7,8
 68 556 68 556 71 556 c 2,9,-1
 73 556 l 2,10,11
 80 556 80 556 87 549.5 c 128,-1,12
 94 543 94 543 94 528 c 2,13,-1
 94 284 l 1,14,15
 107 315 107 315 141.5 341 c 128,-1,16
 176 367 176 367 229 367 c 0,17,18
 277 367 277 367 313.5 342.5 c 128,-1,19
 350 318 350 318 371 276 c 128,-1,20
 392 234 392 234 392 179 c 256,21,22
 392 124 392 124 371 81.5 c 128,-1,23
 350 39 350 39 313.5 15 c 128,-1,24
 277 -9 277 -9 228 -9 c 0,25,26
 176 -9 176 -9 142 15 c 128,-1,27
 108 39 108 39 94 74 c 1,0,-1
228 13 m 0,28,29
 290 13 290 13 328 58 c 128,-1,30
 366 103 366 103 366 179 c 256,31,32
 366 255 366 255 328.5 300 c 128,-1,33
 291 345 291 345 229 345 c 0,34,35
 163 345 163 345 127.5 302 c 128,-1,36
 92 259 92 259 92 179 c 0,37,38
 92 100 92 100 127.5 56.5 c 128,-1,39
 163 13 163 13 228 13 c 0,28,29
EndSplineSet
EndChar

StartChar: c
Encoding: 99 99 69
Width: 359
GlyphClass: 1
Flags: W
LayerCount: 2
Fore
SplineSet
209 -9 m 0,0,1
 135 -9 135 -9 92 41.5 c 128,-1,2
 49 92 49 92 49 178 c 0,3,4
 49 265 49 265 95 316 c 128,-1,5
 141 367 141 367 214 367 c 0,6,7
 243 367 243 367 263 362 c 128,-1,8
 283 357 283 357 305 347 c 0,9,10
 319 340 319 340 323 334 c 128,-1,11
 327 328 327 328 325 323 c 2,12,-1
 323 319 l 2,13,14
 321 314 321 314 318 314 c 0,15,16
 316 314 316 314 313.5 315.5 c 128,-1,17
 311 317 311 317 308 318 c 0,18,19
 288 332 288 332 266 338.5 c 128,-1,20
 244 345 244 345 214 345 c 0,21,22
 150 345 150 345 112.5 301 c 128,-1,23
 75 257 75 257 75 178 c 0,24,25
 75 100 75 100 111.5 56.5 c 128,-1,26
 148 13 148 13 211 13 c 0,27,28
 252 13 252 13 278.5 31.5 c 128,-1,29
 305 50 305 50 318 82 c 0,30,31
 321 86 321 86 322.5 88.5 c 128,-1,32
 324 91 324 91 327 91 c 0,33,34
 333 91 333 91 333 81 c 0,35,36
 333 68 333 68 321 46.5 c 128,-1,37
 309 25 309 25 282 8 c 128,-1,38
 255 -9 255 -9 209 -9 c 0,0,1
EndSplineSet
EndChar

StartChar: d
Encoding: 100 100 70
Width: 441
GlyphClass: 1
Flags: W
LayerCount: 2
Fore
SplineSet
347 284 m 1,0,-1
 347 553 l 2,1,2
 347 556 347 556 350 556 c 2,3,-1
 352 556 l 2,4,5
 360 556 360 556 366.5 549.5 c 128,-1,6
 373 543 373 543 373 528 c 2,7,-1
 373 3 l 2,8,9
 373 0 373 0 370 0 c 2,10,-1
 350 0 l 2,11,12
 347 0 347 0 347 3 c 2,13,-1
 347 74 l 1,14,15
 333 39 333 39 299 15 c 128,-1,16
 265 -9 265 -9 213 -9 c 0,17,18
 165 -9 165 -9 128 15 c 128,-1,19
 91 39 91 39 70 81.5 c 128,-1,20
 49 124 49 124 49 179 c 256,21,22
 49 234 49 234 70 276 c 128,-1,23
 91 318 91 318 128 342.5 c 128,-1,24
 165 367 165 367 212 367 c 0,25,26
 265 367 265 367 300 341 c 128,-1,27
 335 315 335 315 347 284 c 1,0,-1
213 13 m 0,28,29
 278 13 278 13 313 56.5 c 128,-1,30
 348 100 348 100 348 179 c 0,31,32
 348 259 348 259 313 302 c 128,-1,33
 278 345 278 345 212 345 c 0,34,35
 150 345 150 345 112.5 300 c 128,-1,36
 75 255 75 255 75 179 c 256,37,38
 75 103 75 103 113 58 c 128,-1,39
 151 13 151 13 213 13 c 0,28,29
EndSplineSet
EndChar

StartChar: e
Encoding: 101 101 71
Width: 391
GlyphClass: 1
Flags: W
LayerCount: 2
Fore
SplineSet
331 172 m 2,0,-1
 76 172 l 1,1,2
 78 96 78 96 112.5 54.5 c 128,-1,3
 147 13 147 13 209 13 c 0,4,5
 253 13 253 13 283 31 c 128,-1,6
 313 49 313 49 326 81 c 0,7,8
 330 89 330 89 335 89 c 0,9,10
 339 89 339 89 340.5 85.5 c 128,-1,11
 342 82 342 82 342 78 c 0,12,13
 342 66 342 66 329 45.5 c 128,-1,14
 316 25 316 25 287 8 c 128,-1,15
 258 -9 258 -9 208 -9 c 0,16,17
 135 -9 135 -9 92.5 41.5 c 128,-1,18
 50 92 50 92 50 178 c 0,19,20
 50 234 50 234 69.5 276.5 c 128,-1,21
 89 319 89 319 123.5 343 c 128,-1,22
 158 367 158 367 204 367 c 0,23,24
 246 367 246 367 278 345.5 c 128,-1,25
 310 324 310 324 327.5 287 c 128,-1,26
 345 250 345 250 345 203 c 0,27,28
 345 196 345 196 345 193 c 128,-1,29
 345 190 345 190 344 183 c 0,30,31
 343 172 343 172 331 172 c 2,0,-1
76 194 m 1,32,-1
 319 194 l 1,33,34
 321 262 321 262 288.5 303.5 c 128,-1,35
 256 345 256 345 203 345 c 0,36,37
 147 345 147 345 114 305 c 128,-1,38
 81 265 81 265 76 194 c 1,32,-1
EndSplineSet
EndChar

StartChar: f
Encoding: 102 102 72
Width: 242
GlyphClass: 1
Flags: W
LayerCount: 2
Fore
SplineSet
85 337 m 1,0,-1
 21 337 l 2,1,2
 18 337 18 337 18 340 c 2,3,-1
 18 357 l 2,4,5
 18 360 18 360 21 360 c 2,6,-1
 85 360 l 1,7,-1
 85 477 l 2,8,9
 85 515 85 515 103 535.5 c 128,-1,10
 121 556 121 556 156 556 c 0,11,12
 183 556 183 556 199.5 538.5 c 128,-1,13
 216 521 216 521 216 502 c 0,14,15
 216 498 216 498 215.5 494 c 128,-1,16
 215 490 215 490 210 490 c 0,17,18
 206 490 206 490 202 496 c 0,19,20
 196 513 196 513 185.5 523 c 128,-1,21
 175 533 175 533 155 533 c 0,22,23
 111 533 111 533 111 478 c 2,24,-1
 111 360 l 1,25,-1
 201 360 l 2,26,27
 204 360 204 360 204 357 c 2,28,-1
 204 340 l 2,29,30
 204 337 204 337 201 337 c 2,31,-1
 111 337 l 1,32,-1
 111 3 l 2,33,34
 111 0 111 0 108 0 c 2,35,-1
 89 0 l 2,36,37
 85 0 85 0 85 3 c 2,38,-1
 85 337 l 1,0,-1
EndSplineSet
EndChar

StartChar: g
Encoding: 103 103 73
Width: 441
GlyphClass: 1
Flags: W
LayerCount: 2
Fore
SplineSet
347 284 m 1,0,-1
 347 332 l 2,1,2
 347 348 347 348 354 354 c 128,-1,3
 361 360 361 360 368 360 c 2,4,-1
 370 360 l 2,5,6
 373 360 373 360 373 357 c 2,7,-1
 373 -9 l 2,8,9
 373 -83 373 -83 332 -126.5 c 128,-1,10
 291 -170 291 -170 213 -170 c 0,11,12
 164 -170 164 -170 131 -153 c 128,-1,13
 98 -136 98 -136 81 -114 c 128,-1,14
 64 -92 64 -92 64 -79 c 0,15,16
 64 -68 64 -68 71 -68 c 0,17,18
 76 -68 76 -68 80 -74 c 0,19,20
 97 -109 97 -109 132 -128.5 c 128,-1,21
 167 -148 167 -148 211 -148 c 0,22,23
 282 -148 282 -148 314.5 -113 c 128,-1,24
 347 -78 347 -78 347 -11 c 2,25,-1
 347 74 l 1,26,27
 333 39 333 39 299 15 c 128,-1,28
 265 -9 265 -9 213 -9 c 0,29,30
 165 -9 165 -9 128 15 c 128,-1,31
 91 39 91 39 70 81.5 c 128,-1,32
 49 124 49 124 49 179 c 256,33,34
 49 234 49 234 70 276 c 128,-1,35
 91 318 91 318 128 342.5 c 128,-1,36
 165 367 165 367 212 367 c 0,37,38
 265 367 265 367 300 341 c 128,-1,39
 335 315 335 315 347 284 c 1,0,-1
213 13 m 0,40,41
 278 13 278 13 313 56.5 c 128,-1,42
 348 100 348 100 348 179 c 0,43,44
 348 259 348 259 313 302 c 128,-1,45
 278 345 278 345 212 345 c 0,46,47
 150 345 150 345 112.5 300 c 128,-1,48
 75 255 75 255 75 179 c 256,49,50
 75 103 75 103 113 58 c 128,-1,51
 151 13 151 13 213 13 c 0,40,41
EndSplineSet
EndChar

StartChar: h
Encoding: 104 104 74
Width: 427
GlyphClass: 1
Flags: W
LayerCount: 2
Fore
SplineSet
94 528 m 2,0,-1
 94 299 l 1,1,2
 114 331 114 331 146.5 349 c 128,-1,3
 179 367 179 367 224 367 c 0,4,5
 288 367 288 367 325 329 c 128,-1,6
 362 291 362 291 362 227 c 2,7,-1
 362 3 l 2,8,9
 362 0 362 0 359 0 c 2,10,-1
 339 0 l 2,11,12
 336 0 336 0 336 3 c 2,13,-1
 336 224 l 2,14,15
 336 281 336 281 306.5 313 c 128,-1,16
 277 345 277 345 222 345 c 256,17,18
 167 345 167 345 130.5 312 c 128,-1,19
 94 279 94 279 94 217 c 2,20,-1
 94 3 l 2,21,22
 94 0 94 0 91 0 c 2,23,-1
 71 0 l 2,24,25
 68 0 68 0 68 3 c 2,26,-1
 68 553 l 2,27,28
 68 556 68 556 71 556 c 2,29,-1
 73 556 l 2,30,31
 80 556 80 556 87 549.5 c 128,-1,32
 94 543 94 543 94 528 c 2,0,-1
EndSplineSet
EndChar

StartChar: i
Encoding: 105 105 75
Width: 161
GlyphClass: 1
Flags: W
LayerCount: 2
Fore
SplineSet
61 445 m 256,0,1
 61 464 61 464 80 464 c 256,2,3
 99 464 99 464 99 445 c 256,4,5
 99 426 99 426 80 426 c 256,6,7
 61 426 61 426 61 445 c 256,0,1
68 3 m 2,8,-1
 68 357 l 2,9,10
 68 360 68 360 71 360 c 2,11,-1
 73 360 l 2,12,13
 81 360 81 360 87.5 354 c 128,-1,14
 94 348 94 348 94 332 c 2,15,-1
 94 3 l 2,16,17
 94 0 94 0 91 0 c 2,18,-1
 71 0 l 2,19,20
 68 0 68 0 68 3 c 2,8,-1
EndSplineSet
EndChar

StartChar: j
Encoding: 106 106 76
Width: 161
GlyphClass: 1
Flags: W
LayerCount: 2
Fore
SplineSet
60 445 m 256,0,1
 60 464 60 464 79 464 c 256,2,3
 98 464 98 464 98 445 c 256,4,5
 98 426 98 426 79 426 c 256,6,7
 60 426 60 426 60 445 c 256,0,1
-24 -111 m 0,8,9
 -18 -127 -18 -127 -6.5 -137 c 128,-1,10
 5 -147 5 -147 24 -147 c 0,11,12
 68 -147 68 -147 68 -92 c 2,13,-1
 68 357 l 2,14,15
 68 360 68 360 70 360 c 2,16,-1
 73 360 l 2,17,18
 80 360 80 360 86.5 354 c 128,-1,19
 93 348 93 348 93 332 c 2,20,-1
 93 -93 l 2,21,22
 93 -170 93 -170 24 -170 c 0,23,24
 -4 -170 -4 -170 -21 -152.5 c 128,-1,25
 -38 -135 -38 -135 -38 -116 c 0,26,27
 -38 -112 -38 -112 -36.5 -108 c 128,-1,28
 -35 -104 -35 -104 -31 -104 c 0,29,30
 -25 -104 -25 -104 -24 -111 c 0,8,9
EndSplineSet
EndChar

StartChar: k
Encoding: 107 107 77
Width: 338
GlyphClass: 1
Flags: W
LayerCount: 2
Fore
SplineSet
94 146 m 1,0,-1
 94 3 l 2,1,2
 94 0 94 0 91 0 c 2,3,-1
 71 0 l 2,4,5
 68 0 68 0 68 3 c 2,6,-1
 68 553 l 2,7,8
 68 556 68 556 71 556 c 2,9,-1
 73 556 l 2,10,11
 80 556 80 556 87 549.5 c 128,-1,12
 94 543 94 543 94 528 c 2,13,-1
 94 179 l 1,14,-1
 270 351 l 2,15,16
 278 360 278 360 290 360 c 2,17,-1
 301 360 l 2,18,19
 307 360 307 360 304 355 c 2,20,-1
 178 231 l 1,21,-1
 322 4 l 2,22,23
 326 0 326 0 319 0 c 2,24,-1
 305 0 l 2,25,26
 298 0 298 0 295.5 2 c 128,-1,27
 293 4 293 4 289 10 c 2,28,-1
 160 213 l 1,29,-1
 94 146 l 1,0,-1
EndSplineSet
EndChar

StartChar: l
Encoding: 108 108 78
Width: 201
GlyphClass: 1
Flags: W
LayerCount: 2
Fore
SplineSet
136 -9 m 0,0,1
 102 -9 102 -9 84.5 12 c 128,-1,2
 67 33 67 33 67 68 c 2,3,-1
 67 553 l 2,4,5
 67 556 67 556 70 556 c 2,6,-1
 72 556 l 2,7,8
 80 556 80 556 86.5 549.5 c 128,-1,9
 93 543 93 543 93 528 c 2,10,-1
 93 69 l 2,11,12
 93 44 93 44 104 30 c 128,-1,13
 115 16 115 16 137 16 c 0,14,15
 155 16 155 16 166 25.5 c 128,-1,16
 177 35 177 35 184 51 c 0,17,18
 187 59 187 59 191 59 c 256,19,20
 195 59 195 59 196.5 55 c 128,-1,21
 198 51 198 51 198 46 c 0,22,23
 198 32 198 32 183 11.5 c 128,-1,24
 168 -9 168 -9 136 -9 c 0,0,1
EndSplineSet
EndChar

StartChar: m
Encoding: 109 109 79
Width: 688
GlyphClass: 1
Flags: W
LayerCount: 2
Fore
SplineSet
94 332 m 2,0,-1
 94 299 l 1,1,2
 114 331 114 331 144.5 349 c 128,-1,3
 175 367 175 367 220 367 c 0,4,5
 268 367 268 367 301 345 c 128,-1,6
 334 323 334 323 348 284 c 1,7,8
 365 321 365 321 399.5 344 c 128,-1,9
 434 367 434 367 484 367 c 0,10,11
 548 367 548 367 585 329 c 128,-1,12
 622 291 622 291 622 227 c 2,13,-1
 622 3 l 2,14,15
 622 0 622 0 619 0 c 2,16,-1
 600 0 l 2,17,18
 596 0 596 0 596 3 c 2,19,-1
 596 224 l 2,20,21
 596 281 596 281 566.5 313 c 128,-1,22
 537 345 537 345 482 345 c 256,23,24
 427 345 427 345 392.5 312 c 128,-1,25
 358 279 358 279 358 217 c 2,26,-1
 358 3 l 2,27,28
 358 0 358 0 355 0 c 2,29,-1
 335 0 l 2,30,31
 332 0 332 0 332 3 c 2,32,-1
 332 224 l 2,33,34
 332 281 332 281 302 313 c 128,-1,35
 272 345 272 345 218 345 c 0,36,37
 163 345 163 345 128.5 312 c 128,-1,38
 94 279 94 279 94 217 c 2,39,-1
 94 3 l 2,40,41
 94 0 94 0 91 0 c 2,42,-1
 71 0 l 2,43,44
 68 0 68 0 68 3 c 2,45,-1
 68 357 l 2,46,47
 68 360 68 360 71 360 c 2,48,-1
 73 360 l 2,49,50
 80 360 80 360 87 354 c 128,-1,51
 94 348 94 348 94 332 c 2,0,-1
EndSplineSet
EndChar

StartChar: n
Encoding: 110 110 80
Width: 427
GlyphClass: 1
Flags: W
LayerCount: 2
Fore
SplineSet
94 332 m 2,0,-1
 94 299 l 1,1,2
 114 331 114 331 146.5 349 c 128,-1,3
 179 367 179 367 224 367 c 0,4,5
 288 367 288 367 325 329 c 128,-1,6
 362 291 362 291 362 227 c 2,7,-1
 362 3 l 2,8,9
 362 0 362 0 359 0 c 2,10,-1
 339 0 l 2,11,12
 336 0 336 0 336 3 c 2,13,-1
 336 224 l 2,14,15
 336 281 336 281 306.5 313 c 128,-1,16
 277 345 277 345 222 345 c 256,17,18
 167 345 167 345 130.5 312 c 128,-1,19
 94 279 94 279 94 217 c 2,20,-1
 94 3 l 2,21,22
 94 0 94 0 91 0 c 2,23,-1
 71 0 l 2,24,25
 68 0 68 0 68 3 c 2,26,-1
 68 357 l 2,27,28
 68 360 68 360 71 360 c 2,29,-1
 73 360 l 2,30,31
 80 360 80 360 87 354 c 128,-1,32
 94 348 94 348 94 332 c 2,0,-1
EndSplineSet
EndChar

StartChar: o
Encoding: 111 111 81
Width: 427
GlyphClass: 1
Flags: W
LayerCount: 2
Fore
SplineSet
212 -9 m 0,0,1
 138 -9 138 -9 93.5 41.5 c 128,-1,2
 49 92 49 92 49 178 c 256,3,4
 49 264 49 264 93.5 315.5 c 128,-1,5
 138 367 138 367 211 367 c 0,6,7
 288 367 288 367 332.5 316 c 128,-1,8
 377 265 377 265 377 179 c 0,9,10
 377 94 377 94 332.5 42.5 c 128,-1,11
 288 -9 288 -9 212 -9 c 0,0,1
211 13 m 0,12,13
 276 13 276 13 313.5 58 c 128,-1,14
 351 103 351 103 351 178 c 0,15,16
 351 254 351 254 313.5 299.5 c 128,-1,17
 276 345 276 345 211 345 c 0,18,19
 149 345 149 345 112 300.5 c 128,-1,20
 75 256 75 256 75 179 c 0,21,22
 75 103 75 103 112 58 c 128,-1,23
 149 13 149 13 211 13 c 0,12,13
EndSplineSet
Substitution2: "Single Substitution lookup 2 subtable" ordmasculine
EndChar

StartChar: p
Encoding: 112 112 82
Width: 441
GlyphClass: 1
Flags: W
LayerCount: 2
Fore
SplineSet
94 74 m 1,0,-1
 94 -157 l 2,1,2
 94 -160 94 -160 91 -160 c 2,3,-1
 71 -160 l 2,4,5
 68 -160 68 -160 68 -157 c 2,6,-1
 68 357 l 2,7,8
 68 360 68 360 71 360 c 2,9,-1
 73 360 l 2,10,11
 80 360 80 360 87 354 c 128,-1,12
 94 348 94 348 94 332 c 2,13,-1
 94 284 l 1,14,15
 107 315 107 315 141.5 341 c 128,-1,16
 176 367 176 367 229 367 c 0,17,18
 277 367 277 367 313.5 342.5 c 128,-1,19
 350 318 350 318 371 276 c 128,-1,20
 392 234 392 234 392 179 c 256,21,22
 392 124 392 124 371 81.5 c 128,-1,23
 350 39 350 39 313.5 15 c 128,-1,24
 277 -9 277 -9 228 -9 c 0,25,26
 176 -9 176 -9 142 15 c 128,-1,27
 108 39 108 39 94 74 c 1,0,-1
228 13 m 0,28,29
 290 13 290 13 328 58 c 128,-1,30
 366 103 366 103 366 179 c 256,31,32
 366 255 366 255 328.5 300 c 128,-1,33
 291 345 291 345 229 345 c 0,34,35
 163 345 163 345 127.5 302 c 128,-1,36
 92 259 92 259 92 179 c 0,37,38
 92 100 92 100 127.5 56.5 c 128,-1,39
 163 13 163 13 228 13 c 0,28,29
EndSplineSet
EndChar

StartChar: q
Encoding: 113 113 83
Width: 441
GlyphClass: 1
Flags: W
LayerCount: 2
Fore
SplineSet
347 284 m 1,0,-1
 347 332 l 2,1,2
 347 348 347 348 354 354 c 128,-1,3
 361 360 361 360 368 360 c 2,4,-1
 370 360 l 2,5,6
 373 360 373 360 373 357 c 2,7,-1
 373 -157 l 2,8,9
 373 -160 373 -160 370 -160 c 2,10,-1
 350 -160 l 2,11,12
 347 -160 347 -160 347 -157 c 2,13,-1
 347 74 l 1,14,15
 333 39 333 39 299 15 c 128,-1,16
 265 -9 265 -9 213 -9 c 0,17,18
 165 -9 165 -9 128 15 c 128,-1,19
 91 39 91 39 70 81.5 c 128,-1,20
 49 124 49 124 49 179 c 256,21,22
 49 234 49 234 70 276 c 128,-1,23
 91 318 91 318 128 342.5 c 128,-1,24
 165 367 165 367 212 367 c 0,25,26
 265 367 265 367 300 341 c 128,-1,27
 335 315 335 315 347 284 c 1,0,-1
213 13 m 0,28,29
 278 13 278 13 313 56.5 c 128,-1,30
 348 100 348 100 348 179 c 0,31,32
 348 259 348 259 313 302 c 128,-1,33
 278 345 278 345 212 345 c 0,34,35
 150 345 150 345 112.5 300 c 128,-1,36
 75 255 75 255 75 179 c 256,37,38
 75 103 75 103 113 58 c 128,-1,39
 151 13 151 13 213 13 c 0,28,29
EndSplineSet
EndChar

StartChar: r
Encoding: 114 114 84
Width: 253
GlyphClass: 1
Flags: W
LayerCount: 2
Fore
SplineSet
94 332 m 2,0,-1
 94 299 l 1,1,2
 107 326 107 326 134 343 c 128,-1,3
 161 360 161 360 210 360 c 2,4,-1
 216 360 l 2,5,6
 219 360 219 360 219 357 c 2,7,-1
 219 337 l 2,8,9
 219 334 219 334 216 334 c 2,10,-1
 195 334 l 2,11,12
 140 334 140 334 117 298.5 c 128,-1,13
 94 263 94 263 94 200 c 2,14,-1
 94 3 l 2,15,16
 94 0 94 0 91 0 c 2,17,-1
 71 0 l 2,18,19
 68 0 68 0 68 3 c 2,20,-1
 68 357 l 2,21,22
 68 360 68 360 71 360 c 2,23,-1
 73 360 l 2,24,25
 80 360 80 360 87 354 c 128,-1,26
 94 348 94 348 94 332 c 2,0,-1
EndSplineSet
EndChar

StartChar: s
Encoding: 115 115 85
Width: 299
GlyphClass: 1
Flags: W
LayerCount: 2
Fore
SplineSet
256 324 m 2,0,-1
 255 319 l 2,1,2
 253 313 253 313 250 313 c 0,3,4
 245 313 245 313 240 318 c 0,5,6
 221 332 221 332 200 338 c 128,-1,7
 179 344 179 344 150 344 c 0,8,9
 110 344 110 344 86 326 c 128,-1,10
 62 308 62 308 62 276 c 0,11,12
 62 249 62 249 83 233 c 128,-1,13
 104 217 104 217 135.5 206 c 128,-1,14
 167 195 167 195 198 182 c 128,-1,15
 229 169 229 169 250 149.5 c 128,-1,16
 271 130 271 130 271 96 c 0,17,18
 271 49 271 49 236 19 c 128,-1,19
 201 -11 201 -11 149 -11 c 0,20,21
 108 -11 108 -11 81 5 c 128,-1,22
 54 21 54 21 41 41 c 128,-1,23
 28 61 28 61 28 74 c 256,24,25
 28 87 28 87 35 87 c 0,26,27
 39 87 39 87 44 78 c 0,28,29
 60 42 60 42 86.5 27 c 128,-1,30
 113 12 113 12 149 12 c 0,31,32
 191 12 191 12 218 33.5 c 128,-1,33
 245 55 245 55 245 92 c 0,34,35
 245 121 245 121 224 137.5 c 128,-1,36
 203 154 203 154 172 165.5 c 128,-1,37
 141 177 141 177 109.5 189 c 128,-1,38
 78 201 78 201 57 220.5 c 128,-1,39
 36 240 36 240 36 273 c 0,40,41
 36 314 36 314 68.5 340.5 c 128,-1,42
 101 367 101 367 150 367 c 0,43,44
 177 367 177 367 196.5 363 c 128,-1,45
 216 359 216 359 236 349 c 0,46,47
 250 342 250 342 253.5 335.5 c 128,-1,48
 257 329 257 329 256 324 c 2,0,-1
EndSplineSet
EndChar

StartChar: t
Encoding: 116 116 86
Width: 228
GlyphClass: 1
Flags: W
LayerCount: 2
Fore
SplineSet
92 337 m 1,0,-1
 24 337 l 2,1,2
 21 337 21 337 21 340 c 2,3,-1
 21 357 l 2,4,5
 21 360 21 360 24 360 c 2,6,-1
 92 360 l 1,7,-1
 92 488 l 2,8,9
 92 491 92 491 94 491 c 2,10,-1
 97 491 l 2,11,12
 104 491 104 491 110.5 485 c 128,-1,13
 117 479 117 479 117 463 c 2,14,-1
 117 360 l 1,15,-1
 194 360 l 2,16,17
 197 360 197 360 197 357 c 2,18,-1
 197 340 l 2,19,20
 197 337 197 337 194 337 c 2,21,-1
 117 337 l 1,22,-1
 117 3 l 2,23,24
 117 0 117 0 114 0 c 2,25,-1
 94 0 l 2,26,27
 92 0 92 0 92 3 c 2,28,-1
 92 337 l 1,0,-1
EndSplineSet
EndChar

StartChar: u
Encoding: 117 117 87
Width: 416
GlyphClass: 1
Flags: W
LayerCount: 2
Fore
SplineSet
208 -9 m 0,0,1
 139 -9 139 -9 103 32.5 c 128,-1,2
 67 74 67 74 67 159 c 2,3,-1
 67 357 l 2,4,5
 67 360 67 360 70 360 c 2,6,-1
 72 360 l 2,7,8
 80 360 80 360 86.5 354 c 128,-1,9
 93 348 93 348 93 332 c 2,10,-1
 93 156 l 2,11,12
 93 86 93 86 122.5 49.5 c 128,-1,13
 152 13 152 13 208 13 c 0,14,15
 323 13 323 13 323 156 c 2,16,-1
 323 357 l 2,17,18
 323 360 323 360 326 360 c 2,19,-1
 328 360 l 2,20,21
 336 360 336 360 342.5 354 c 128,-1,22
 349 348 349 348 349 332 c 2,23,-1
 349 159 l 2,24,25
 349 77 349 77 312.5 34 c 128,-1,26
 276 -9 276 -9 208 -9 c 0,0,1
EndSplineSet
EndChar

StartChar: v
Encoding: 118 118 88
Width: 307
GlyphClass: 1
Flags: W
LayerCount: 2
Fore
SplineSet
156 45 m 1,0,-1
 260 351 l 2,1,2
 262 360 262 360 271 360 c 2,3,-1
 285 360 l 2,4,5
 289 360 289 360 287 355 c 2,6,-1
 167 4 l 2,7,8
 166 0 166 0 161 0 c 2,9,-1
 150 0 l 2,10,11
 146 0 146 0 145 4 c 2,12,-1
 20 355 l 2,13,14
 18 360 18 360 24 360 c 2,15,-1
 28 360 l 2,16,17
 39 360 39 360 44.5 354 c 128,-1,18
 50 348 50 348 54 338 c 2,19,-1
 156 45 l 1,0,-1
EndSplineSet
EndChar

StartChar: w
Encoding: 119 119 89
Width: 523
GlyphClass: 1
Flags: W
LayerCount: 2
Fore
SplineSet
144 46 m 1,0,-1
 242 353 l 2,1,2
 242 360 242 360 248 360 c 2,3,-1
 250 360 l 2,4,5
 261 360 261 360 265.5 354 c 128,-1,6
 270 348 270 348 273 338 c 2,7,-1
 372 46 l 1,8,-1
 470 351 l 2,9,10
 472 358 472 358 474.5 359 c 128,-1,11
 477 360 477 360 482 360 c 2,12,-1
 493 360 l 2,13,14
 498 360 498 360 496 355 c 2,15,-1
 382 4 l 2,16,17
 379 0 379 0 375 0 c 2,18,-1
 365 0 l 2,19,20
 360 0 360 0 360 4 c 2,21,-1
 255 317 l 1,22,-1
 154 4 l 2,23,24
 153 0 153 0 148 0 c 2,25,-1
 137 0 l 2,26,27
 133 0 133 0 132 4 c 2,28,-1
 27 355 l 2,29,30
 25 360 25 360 30 360 c 2,31,-1
 33 360 l 2,32,33
 44 360 44 360 49.5 354 c 128,-1,34
 55 348 55 348 59 338 c 2,35,-1
 144 46 l 1,0,-1
EndSplineSet
EndChar

StartChar: x
Encoding: 120 120 90
Width: 314
GlyphClass: 1
Flags: W
LayerCount: 2
Fore
SplineSet
155 173 m 1,0,-1
 45 8 l 2,1,2
 40 0 40 0 32 0 c 2,3,-1
 17 0 l 2,4,5
 13 0 13 0 16 5 c 2,6,-1
 138 191 l 1,7,-1
 30 355 l 2,8,9
 27 360 27 360 32 360 c 2,10,-1
 39 360 l 2,11,12
 55 360 55 360 65 345 c 2,13,-1
 155 209 l 1,14,-1
 252 352 l 2,15,16
 256 357 256 357 258 358.5 c 128,-1,17
 260 360 260 360 266 360 c 2,18,-1
 280 360 l 2,19,20
 284 360 284 360 281 355 c 2,21,-1
 171 192 l 1,22,-1
 296 4 l 2,23,24
 298 0 298 0 295 0 c 2,25,-1
 277 0 l 2,26,27
 269 0 269 0 265 8 c 2,28,-1
 155 173 l 1,0,-1
EndSplineSet
EndChar

StartChar: y
Encoding: 121 121 91
Width: 308
GlyphClass: 1
Flags: W
LayerCount: 2
Fore
SplineSet
141 -2 m 1,0,-1
 19 355 l 2,1,2
 17 360 17 360 23 360 c 2,3,-1
 27 360 l 2,4,5
 46 360 46 360 53 338 c 2,6,-1
 153 35 l 1,7,-1
 260 351 l 2,8,9
 262 360 262 360 271 360 c 2,10,-1
 284 360 l 2,11,12
 289 360 289 360 287 355 c 2,13,-1
 162 -11 l 2,14,15
 144 -63 144 -63 129.5 -98.5 c 128,-1,16
 115 -134 115 -134 97 -152 c 128,-1,17
 79 -170 79 -170 51 -170 c 0,18,19
 22 -170 22 -170 7.5 -153.5 c 128,-1,20
 -7 -137 -7 -137 -7 -125 c 0,21,22
 -7 -116 -7 -116 -1 -116 c 0,23,24
 4 -116 4 -116 7 -123 c 0,25,26
 13 -134 13 -134 25 -141 c 128,-1,27
 37 -148 37 -148 48 -148 c 0,28,29
 68 -148 68 -148 81 -134.5 c 128,-1,30
 94 -121 94 -121 108 -89 c 128,-1,31
 122 -57 122 -57 141 -2 c 1,0,-1
EndSplineSet
EndChar

StartChar: z
Encoding: 122 122 92
Width: 334
GlyphClass: 1
Flags: W
LayerCount: 2
Fore
SplineSet
66 23 m 1,0,-1
 290 23 l 2,1,2
 293 23 293 23 293 20 c 2,3,-1
 293 3 l 2,4,5
 293 0 293 0 290 0 c 2,6,-1
 42 0 l 2,7,8
 39 0 39 0 39 3 c 2,9,-1
 39 21 l 2,10,11
 39 28 39 28 45 37 c 2,12,-1
 262 337 l 1,13,-1
 53 337 l 2,14,15
 50 337 50 337 50 340 c 2,16,-1
 50 357 l 2,17,18
 50 360 50 360 53 360 c 2,19,-1
 262 360 l 2,20,21
 276 360 276 360 282 356 c 128,-1,22
 288 352 288 352 288 338 c 0,23,24
 288 332 288 332 284 325.5 c 128,-1,25
 280 319 280 319 272 308 c 2,26,-1
 66 23 l 1,0,-1
EndSplineSet
EndChar

StartChar: braceleft
Encoding: 123 123 93
Width: 315
GlyphClass: 1
Flags: W
LayerCount: 2
Fore
SplineSet
258 -144 m 2,0,-1
 163 -144 l 2,1,2
 141 -144 141 -144 126 -129.5 c 128,-1,3
 111 -115 111 -115 111 -93 c 2,4,-1
 111 236 l 2,5,6
 111 251 111 251 103.5 256.5 c 128,-1,7
 96 262 96 262 87.5 263 c 128,-1,8
 79 264 79 264 74 264 c 0,9,10
 67 264 67 264 67 270 c 2,11,-1
 67 282 l 2,12,13
 67 288 67 288 74 288 c 0,14,15
 79 288 79 288 87.5 289 c 128,-1,16
 96 290 96 290 103.5 296 c 128,-1,17
 111 302 111 302 111 317 c 2,18,-1
 111 645 l 2,19,20
 111 667 111 667 126 681.5 c 128,-1,21
 141 696 141 696 163 696 c 2,22,-1
 258 696 l 2,23,24
 260 696 260 696 260 694 c 2,25,-1
 260 693 l 2,26,27
 260 685 260 685 252 679 c 128,-1,28
 244 673 244 673 233 673 c 2,29,-1
 166 673 l 2,30,31
 152 673 152 673 145 664 c 128,-1,32
 138 655 138 655 138 643 c 2,33,-1
 138 316 l 2,34,35
 138 292 138 292 128.5 284.5 c 128,-1,36
 119 277 119 277 118 276 c 1,37,38
 119 275 119 275 128.5 267.5 c 128,-1,39
 138 260 138 260 138 237 c 2,40,-1
 138 -91 l 2,41,42
 138 -104 138 -104 145 -112.5 c 128,-1,43
 152 -121 152 -121 166 -121 c 2,44,-1
 233 -121 l 2,45,46
 244 -121 244 -121 252 -127 c 128,-1,47
 260 -133 260 -133 260 -142 c 2,48,-1
 260 -143 l 2,49,50
 260 -144 260 -144 258 -144 c 2,0,-1
EndSplineSet
EndChar

StartChar: bar
Encoding: 124 124 94
Width: 181
GlyphClass: 1
Flags: W
LayerCount: 2
Fore
SplineSet
78 -146 m 2,0,-1
 78 562 l 2,1,2
 78 564 78 564 81 564 c 2,3,-1
 82 564 l 2,4,5
 90 564 90 564 97 558.5 c 128,-1,6
 104 553 104 553 104 537 c 2,7,-1
 104 -146 l 2,8,9
 104 -149 104 -149 101 -149 c 2,10,-1
 81 -149 l 2,11,12
 78 -149 78 -149 78 -146 c 2,0,-1
EndSplineSet
EndChar

StartChar: braceright
Encoding: 125 125 95
Width: 315
GlyphClass: 1
Flags: W
LayerCount: 2
Fore
SplineSet
153 -144 m 2,0,-1
 58 -144 l 2,1,2
 56 -144 56 -144 56 -143 c 2,3,-1
 56 -142 l 2,4,5
 56 -133 56 -133 64 -127 c 128,-1,6
 72 -121 72 -121 83 -121 c 2,7,-1
 150 -121 l 2,8,9
 164 -121 164 -121 171 -112.5 c 128,-1,10
 178 -104 178 -104 178 -91 c 2,11,-1
 178 237 l 2,12,13
 178 260 178 260 187.5 267.5 c 128,-1,14
 197 275 197 275 198 276 c 1,15,16
 197 277 197 277 187.5 284.5 c 128,-1,17
 178 292 178 292 178 316 c 2,18,-1
 178 643 l 2,19,20
 178 655 178 655 171 664 c 128,-1,21
 164 673 164 673 150 673 c 2,22,-1
 83 673 l 2,23,24
 72 673 72 673 64 679 c 128,-1,25
 56 685 56 685 56 693 c 2,26,-1
 56 694 l 2,27,28
 56 696 56 696 58 696 c 2,29,-1
 153 696 l 2,30,31
 176 696 176 696 190 681.5 c 128,-1,32
 204 667 204 667 204 645 c 2,33,-1
 204 317 l 2,34,35
 204 302 204 302 211.5 296 c 128,-1,36
 219 290 219 290 228.5 289 c 128,-1,37
 238 288 238 288 242 288 c 0,38,39
 249 288 249 288 249 282 c 2,40,-1
 249 270 l 2,41,42
 249 264 249 264 242 264 c 0,43,44
 238 264 238 264 228.5 263 c 128,-1,45
 219 262 219 262 211.5 256.5 c 128,-1,46
 204 251 204 251 204 236 c 2,47,-1
 204 -93 l 2,48,49
 204 -115 204 -115 190 -129.5 c 128,-1,50
 176 -144 176 -144 153 -144 c 2,0,-1
EndSplineSet
PairPos2: "'kern' Horizontal Kerning lookup 3 per glyph data 1" uni0671 dx=67 dy=0 dh=67 dv=0 dx=0 dy=0 dh=0 dv=0
PairPos2: "'kern' Horizontal Kerning lookup 3 per glyph data 1" uni0625 dx=39 dy=0 dh=39 dv=0 dx=0 dy=0 dh=0 dv=0
PairPos2: "'kern' Horizontal Kerning lookup 3 per glyph data 1" uni0623 dx=56 dy=0 dh=56 dv=0 dx=0 dy=0 dh=0 dv=0
PairPos2: "'kern' Horizontal Kerning lookup 3 per glyph data 1" uni0622 dx=56 dy=0 dh=56 dv=0 dx=0 dy=0 dh=0 dv=0
EndChar

StartChar: asciitilde
Encoding: 126 126 96
Width: 372
GlyphClass: 1
Flags: W
LayerCount: 2
Fore
SplineSet
312 285 m 0,0,1
 314 287 314 287 316 286.5 c 128,-1,2
 318 286 318 286 318 283 c 2,3,-1
 318 271 l 2,4,5
 318 260 318 260 312 257 c 0,6,7
 296 246 296 246 282 241 c 128,-1,8
 268 236 268 236 243 236 c 0,9,10
 211 236 211 236 185 247.5 c 128,-1,11
 159 259 159 259 128 259 c 0,12,13
 105 259 105 259 91 253.5 c 128,-1,14
 77 248 77 248 60 231 c 0,15,16
 59 229 59 229 56.5 229 c 128,-1,17
 54 229 54 229 54 233 c 2,18,-1
 54 246 l 2,19,20
 54 256 54 256 60 259 c 0,21,22
 90 283 90 283 128 283 c 0,23,24
 161 283 161 283 187 271 c 128,-1,25
 213 259 213 259 243 259 c 0,26,27
 267 259 267 259 280.5 265 c 128,-1,28
 294 271 294 271 312 285 c 0,0,1
EndSplineSet
EndChar

StartChar: exclamdown
Encoding: 161 161 97
Width: 126
GlyphClass: 1
Flags: W
LayerCount: 2
Fore
SplineSet
30 335 m 256,0,1
 30 348 30 348 39 357.5 c 128,-1,2
 48 367 48 367 61 367 c 256,3,4
 74 367 74 367 83 357.5 c 128,-1,5
 92 348 92 348 92 335 c 256,6,7
 92 322 92 322 83 313 c 128,-1,8
 74 304 74 304 61 304 c 256,9,10
 48 304 48 304 39 313 c 128,-1,11
 30 322 30 322 30 335 c 256,0,1
47 -204 m 2,12,-1
 49 224 l 2,13,14
 49 228 49 228 52 228 c 0,15,16
 60 228 60 228 66.5 222 c 128,-1,17
 73 216 73 216 73 200 c 2,18,-1
 74 -204 l 2,19,20
 74 -207 74 -207 72 -207 c 2,21,-1
 49 -207 l 2,22,23
 47 -207 47 -207 47 -204 c 2,12,-1
EndSplineSet
EndChar

StartChar: cent
Encoding: 162 162 98
Width: 355
GlyphClass: 1
Flags: W
LayerCount: 2
Fore
SplineSet
214 -9 m 1,0,-1
 214 -62 l 2,1,2
 214 -64 214 -64 212 -64 c 2,3,-1
 194 -64 l 2,4,5
 191 -64 191 -64 191 -62 c 2,6,-1
 191 -9 l 1,7,8
 122 -4 122 -4 83.5 46 c 128,-1,9
 45 96 45 96 45 178 c 0,10,11
 45 259 45 259 85 309 c 128,-1,12
 125 359 125 359 191 366 c 1,13,-1
 191 419 l 2,14,15
 191 422 191 422 194 422 c 2,16,-1
 212 422 l 2,17,18
 214 422 214 422 214 419 c 2,19,-1
 214 367 l 1,20,21
 240 366 240 366 259.5 361 c 128,-1,22
 279 356 279 356 300 347 c 0,23,24
 314 340 314 340 318 334 c 128,-1,25
 322 328 322 328 320 323 c 2,26,-1
 319 319 l 2,27,28
 317 314 317 314 314 314 c 0,29,30
 310 314 310 314 304 318 c 0,31,32
 284 332 284 332 263.5 338 c 128,-1,33
 243 344 243 344 214 345 c 1,34,-1
 214 13 l 1,35,36
 251 15 251 15 276 33 c 128,-1,37
 301 51 301 51 314 82 c 0,38,39
 319 91 319 91 323 91 c 0,40,41
 329 91 329 91 329 81 c 0,42,43
 329 68 329 68 318 47 c 128,-1,44
 307 26 307 26 281.5 9.5 c 128,-1,45
 256 -7 256 -7 214 -9 c 1,0,-1
191 14 m 1,46,-1
 191 344 l 1,47,48
 135 337 135 337 103 294.5 c 128,-1,49
 71 252 71 252 71 178 c 0,50,51
 71 106 71 106 103 62.5 c 128,-1,52
 135 19 135 19 191 14 c 1,46,-1
EndSplineSet
EndChar

StartChar: sterling
Encoding: 163 163 99
Width: 466
GlyphClass: 1
Flags: W
LayerCount: 2
Fore
SplineSet
156 23 m 1,0,-1
 402 23 l 2,1,2
 416 23 416 23 416 9 c 2,3,-1
 416 6 l 2,4,5
 416 0 416 0 409 0 c 2,6,-1
 61 0 l 2,7,8
 58 0 58 0 58 3 c 2,9,-1
 58 20 l 2,10,11
 58 23 58 23 61 23 c 2,12,-1
 130 23 l 1,13,14
 138 41 138 41 149 68.5 c 128,-1,15
 160 96 160 96 168 127.5 c 128,-1,16
 176 159 176 159 176 190 c 0,17,18
 176 213 176 213 169 233 c 128,-1,19
 162 253 162 253 151 272 c 1,20,-1
 61 272 l 2,21,22
 58 272 58 272 58 276 c 2,23,-1
 58 292 l 2,24,25
 58 295 58 295 61 295 c 2,26,-1
 139 295 l 1,27,28
 123 322 123 322 109.5 351 c 128,-1,29
 96 380 96 380 96 417 c 0,30,31
 96 485 96 485 140.5 526 c 128,-1,32
 185 567 185 567 261 567 c 0,33,34
 301 567 301 567 330 558 c 128,-1,35
 359 549 359 549 389 533 c 0,36,37
 404 525 404 525 407.5 519.5 c 128,-1,38
 411 514 411 514 409 508 c 2,39,-1
 407 504 l 2,40,41
 407 498 407 498 403 498 c 0,42,43
 400 498 400 498 397.5 500 c 128,-1,44
 395 502 395 502 393 503 c 0,45,46
 361 524 361 524 330 534 c 128,-1,47
 299 544 299 544 262 544 c 0,48,49
 198 544 198 544 159.5 509.5 c 128,-1,50
 121 475 121 475 121 417 c 0,51,52
 121 381 121 381 136 352.5 c 128,-1,53
 151 324 151 324 167 295 c 1,54,-1
 346 295 l 2,55,56
 360 295 360 295 360 281 c 2,57,-1
 360 278 l 2,58,59
 360 272 360 272 353 272 c 2,60,-1
 179 272 l 1,61,62
 189 253 189 253 195.5 233 c 128,-1,63
 202 213 202 213 202 190 c 0,64,65
 202 156 202 156 192.5 122.5 c 128,-1,66
 183 89 183 89 172 62.5 c 128,-1,67
 161 36 161 36 156 23 c 1,0,-1
EndSplineSet
EndChar

StartChar: yen
Encoding: 165 165 100
Width: 421
GlyphClass: 1
Flags: W
LayerCount: 2
Fore
SplineSet
196 146 m 1,0,-1
 46 146 l 2,1,2
 43 146 43 146 43 149 c 2,3,-1
 43 166 l 2,4,5
 43 169 43 169 46 169 c 2,6,-1
 196 169 l 1,7,-1
 196 223 l 1,8,-1
 175 261 l 1,9,-1
 46 261 l 2,10,11
 43 261 43 261 43 264 c 2,12,-1
 43 281 l 2,13,14
 43 284 43 284 46 284 c 2,15,-1
 162 284 l 1,16,-1
 15 552 l 2,17,18
 14 553 14 553 15 554.5 c 128,-1,19
 16 556 16 556 18 556 c 2,20,-1
 22 556 l 2,21,22
 33 556 33 556 39.5 551.5 c 128,-1,23
 46 547 46 547 53 533 c 2,24,-1
 209 247 l 1,25,-1
 377 547 l 2,26,27
 383 556 383 556 391 556 c 2,28,-1
 403 556 l 2,29,30
 407 556 407 556 407 552 c 2,31,-1
 257 284 l 1,32,-1
 372 284 l 2,33,34
 375 284 375 284 375 281 c 2,35,-1
 375 264 l 2,36,37
 375 261 375 261 372 261 c 2,38,-1
 243 261 l 1,39,-1
 222 223 l 1,40,-1
 222 169 l 1,41,-1
 372 169 l 2,42,43
 375 169 375 169 375 166 c 2,44,-1
 375 149 l 2,45,46
 375 146 375 146 372 146 c 2,47,-1
 222 146 l 1,48,-1
 222 3 l 2,49,50
 222 0 222 0 219 0 c 2,51,-1
 199 0 l 2,52,53
 196 0 196 0 196 3 c 2,54,-1
 196 146 l 1,0,-1
EndSplineSet
EndChar

StartChar: brokenbar
Encoding: 166 166 101
Width: 181
GlyphClass: 1
Flags: W
LayerCount: 2
Fore
SplineSet
78 273 m 2,0,-1
 78 562 l 2,1,2
 78 564 78 564 81 564 c 2,3,-1
 82 564 l 2,4,5
 90 564 90 564 97 558.5 c 128,-1,6
 104 553 104 553 104 537 c 2,7,-1
 104 273 l 2,8,9
 104 271 104 271 101 271 c 2,10,-1
 81 271 l 2,11,12
 78 271 78 271 78 273 c 2,0,-1
78 -146 m 2,13,-1
 78 142 l 2,14,15
 78 145 78 145 81 145 c 2,16,-1
 101 145 l 2,17,18
 104 145 104 145 104 142 c 2,19,-1
 104 -146 l 2,20,21
 104 -149 104 -149 101 -149 c 2,22,-1
 81 -149 l 2,23,24
 78 -149 78 -149 78 -146 c 2,13,-1
EndSplineSet
EndChar

StartChar: section
Encoding: 167 167 102
Width: 398
GlyphClass: 1
Flags: W
LayerCount: 2
Fore
SplineSet
228 117 m 1,0,1
 263 96 263 96 288.5 70.5 c 128,-1,2
 314 45 314 45 314 8 c 0,3,4
 314 -35 314 -35 280.5 -66 c 128,-1,5
 247 -97 247 -97 189 -97 c 0,6,7
 148 -97 148 -97 121 -82 c 128,-1,8
 94 -67 94 -67 81 -47 c 128,-1,9
 68 -27 68 -27 68 -14 c 0,10,11
 68 -2 68 -2 75 -2 c 0,12,13
 80 -2 80 -2 84 -11 c 0,14,15
 116 -74 116 -74 188 -74 c 0,16,17
 234 -74 234 -74 261.5 -52.5 c 128,-1,18
 289 -31 289 -31 289 6 c 0,19,20
 289 38 289 38 266.5 61 c 128,-1,21
 244 84 244 84 211 103 c 128,-1,22
 178 122 178 122 145 143 c 128,-1,23
 112 164 112 164 89.5 192 c 128,-1,24
 67 220 67 220 67 262 c 0,25,26
 67 299 67 299 81.5 324.5 c 128,-1,27
 96 350 96 350 118 366.5 c 128,-1,28
 140 383 140 383 161 393 c 1,29,30
 135 411 135 411 117 431 c 128,-1,31
 99 451 99 451 99 482 c 0,32,33
 99 520 99 520 130 543.5 c 128,-1,34
 161 567 161 567 210 567 c 0,35,36
 236 567 236 567 254 563 c 128,-1,37
 272 559 272 559 290 549 c 0,38,39
 304 543 304 543 308 536.5 c 128,-1,40
 312 530 312 530 310 525 c 2,41,-1
 309 521 l 2,42,43
 309 515 309 515 304 515 c 0,44,45
 301 515 301 515 299 517 c 128,-1,46
 297 519 297 519 295 520 c 0,47,48
 276 533 276 533 257 538.5 c 128,-1,49
 238 544 238 544 210 544 c 0,50,51
 171 544 171 544 148 528 c 128,-1,52
 125 512 125 512 125 483 c 0,53,54
 125 455 125 455 146 435.5 c 128,-1,55
 167 416 167 416 197.5 399.5 c 128,-1,56
 228 383 228 383 258.5 364 c 128,-1,57
 289 345 289 345 310 320 c 128,-1,58
 331 295 331 295 331 258 c 0,59,60
 331 224 331 224 313 196.5 c 128,-1,61
 295 169 295 169 271 149 c 128,-1,62
 247 129 247 129 228 117 c 1,0,1
207 129 m 1,63,64
 228 140 228 140 250.5 158.5 c 128,-1,65
 273 177 273 177 289 202.5 c 128,-1,66
 305 228 305 228 305 257 c 0,67,68
 305 288 305 288 283.5 311 c 128,-1,69
 262 334 262 334 233 351 c 128,-1,70
 204 368 204 368 180 381 c 1,71,72
 141 364 141 364 117 336.5 c 128,-1,73
 93 309 93 309 93 263 c 0,74,75
 93 233 93 233 104.5 211.5 c 128,-1,76
 116 190 116 190 141 171.5 c 128,-1,77
 166 153 166 153 207 129 c 1,63,64
EndSplineSet
EndChar

StartChar: dieresis
Encoding: 168 168 103
Width: 128
GlyphClass: 1
Flags: W
LayerCount: 2
Fore
SplineSet
0 445 m 256,0,1
 0 464 0 464 19 464 c 256,2,3
 38 464 38 464 38 445 c 256,4,5
 38 426 38 426 19 426 c 256,6,7
 0 426 0 426 0 445 c 256,0,1
91 445 m 256,8,9
 91 464 91 464 109 464 c 0,10,11
 128 464 128 464 128 445 c 256,12,13
 128 426 128 426 109 426 c 0,14,15
 91 426 91 426 91 445 c 256,8,9
EndSplineSet
EndChar

StartChar: copyright
Encoding: 169 169 104
Width: 520
GlyphClass: 1
Flags: W
LayerCount: 2
Fore
SplineSet
37 340 m 256,0,1
 37 407 37 407 64.5 457 c 128,-1,2
 92 507 92 507 142.5 535 c 128,-1,3
 193 563 193 563 260 563 c 256,4,5
 327 563 327 563 377 535 c 128,-1,6
 427 507 427 507 455 457 c 128,-1,7
 483 407 483 407 483 340 c 256,8,9
 483 273 483 273 455 223 c 128,-1,10
 427 173 427 173 377 145 c 128,-1,11
 327 117 327 117 260 117 c 256,12,13
 193 117 193 117 142.5 145 c 128,-1,14
 92 173 92 173 64.5 223 c 128,-1,15
 37 273 37 273 37 340 c 256,0,1
260 136 m 0,16,17
 352 136 352 136 407.5 191.5 c 128,-1,18
 463 247 463 247 463 340 c 0,19,20
 463 401 463 401 438 447 c 128,-1,21
 413 493 413 493 367.5 518.5 c 128,-1,22
 322 544 322 544 260 544 c 0,23,24
 199 544 199 544 153.5 518.5 c 128,-1,25
 108 493 108 493 83 447 c 128,-1,26
 58 401 58 401 58 340 c 0,27,28
 58 247 58 247 113.5 191.5 c 128,-1,29
 169 136 169 136 260 136 c 0,16,17
261 219 m 0,30,31
 215 219 215 219 186.5 251 c 128,-1,32
 158 283 158 283 158 340 c 0,33,34
 158 396 158 396 187.5 428.5 c 128,-1,35
 217 461 217 461 264 461 c 0,36,37
 284 461 284 461 298.5 456.5 c 128,-1,38
 313 452 313 452 324 444 c 0,39,40
 331 440 331 440 332.5 436.5 c 128,-1,41
 334 433 334 433 333 429 c 2,42,-1
 332 424 l 2,43,44
 330 418 330 418 328 418 c 0,45,46
 327 418 327 418 325 419.5 c 128,-1,47
 323 421 323 421 321 422 c 0,48,49
 306 433 306 433 293 437 c 128,-1,50
 280 441 280 441 264 441 c 0,51,52
 224 441 224 441 201.5 414.5 c 128,-1,53
 179 388 179 388 179 340 c 256,54,55
 179 292 179 292 201 265 c 128,-1,56
 223 238 223 238 261 238 c 0,57,58
 289 238 289 238 305 247.5 c 128,-1,59
 321 257 321 257 329 272 c 0,60,61
 331 276 331 276 334 276 c 256,62,63
 337 276 337 276 338 273 c 128,-1,64
 339 270 339 270 339 268 c 0,65,66
 339 257 339 257 320.5 238 c 128,-1,67
 302 219 302 219 261 219 c 0,30,31
EndSplineSet
EndChar

StartChar: ordfeminine
Encoding: 170 170 105
Width: 309
GlyphClass: 1
Flags: W
LayerCount: 2
Fore
SplineSet
258 490 m 1,0,-1
 258 526 l 2,1,2
 258 539 258 539 263 543.5 c 128,-1,3
 268 548 268 548 275 548 c 2,4,-1
 278 548 l 2,5,6
 280 548 280 548 280 546 c 2,7,-1
 280 264 l 2,8,9
 280 261 280 261 278 261 c 2,10,-1
 261 261 l 2,11,12
 258 261 258 261 258 264 c 2,13,-1
 258 319 l 1,14,15
 247 291 247 291 220 272.5 c 128,-1,16
 193 254 193 254 153 254 c 0,17,18
 94 254 94 254 58 295 c 128,-1,19
 22 336 22 336 22 403 c 256,20,21
 22 470 22 470 58 511.5 c 128,-1,22
 94 553 94 553 151 553 c 0,23,24
 194 553 194 553 221 533.5 c 128,-1,25
 248 514 248 514 258 490 c 1,0,-1
153 274 m 0,26,27
 203 274 203 274 230.5 307.5 c 128,-1,28
 258 341 258 341 258 403 c 0,29,30
 258 467 258 467 230.5 500.5 c 128,-1,31
 203 534 203 534 151 534 c 0,32,33
 102 534 102 534 73 499 c 128,-1,34
 44 464 44 464 44 403 c 0,35,36
 44 345 44 345 74 309.5 c 128,-1,37
 104 274 104 274 153 274 c 0,26,27
EndSplineSet
EndChar

StartChar: guillemotleft
Encoding: 171 171 106
Width: 300
GlyphClass: 1
Flags: W
LayerCount: 2
Fore
SplineSet
55 184 m 1,0,-1
 164 45 l 2,1,2
 167 40 167 40 163 40 c 2,3,-1
 149 40 l 2,4,5
 140 40 140 40 135 48 c 2,6,-1
 40 170 l 2,7,8
 33 179 33 179 33 184 c 256,9,10
 33 189 33 189 40 198 c 2,11,-1
 135 320 l 2,12,13
 140 328 140 328 149 328 c 2,14,-1
 163 328 l 2,15,16
 167 328 167 328 164 323 c 2,17,-1
 55 184 l 1,0,-1
159 184 m 1,18,-1
 269 45 l 2,19,20
 272 40 272 40 267 40 c 2,21,-1
 252 40 l 2,22,23
 245 40 245 40 240 48 c 2,24,-1
 144 170 l 2,25,26
 137 179 137 179 137 184 c 256,27,28
 137 189 137 189 144 198 c 2,29,-1
 240 320 l 2,30,31
 245 328 245 328 252 328 c 2,32,-1
 267 328 l 2,33,34
 272 328 272 328 269 323 c 2,35,-1
 159 184 l 1,18,-1
EndSplineSet
EndChar

StartChar: uni00AD
Encoding: 173 173 107
Width: 301
GlyphClass: 1
Flags: W
LayerCount: 2
Fore
SplineSet
46 195 m 2,0,-1
 46 212 l 2,1,2
 46 214 46 214 49 214 c 2,3,-1
 253 214 l 2,4,5
 256 214 256 214 256 212 c 2,6,-1
 256 195 l 2,7,8
 256 192 256 192 253 192 c 2,9,-1
 49 192 l 2,10,11
 46 192 46 192 46 195 c 2,0,-1
EndSplineSet
EndChar

StartChar: registered
Encoding: 174 174 108
Width: 520
GlyphClass: 1
Flags: W
LayerCount: 2
Fore
SplineSet
37 340 m 256,0,1
 37 407 37 407 64.5 457 c 128,-1,2
 92 507 92 507 142.5 535 c 128,-1,3
 193 563 193 563 260 563 c 256,4,5
 327 563 327 563 377 535 c 128,-1,6
 427 507 427 507 455 457 c 128,-1,7
 483 407 483 407 483 340 c 256,8,9
 483 273 483 273 455 223 c 128,-1,10
 427 173 427 173 377 145 c 128,-1,11
 327 117 327 117 260 117 c 256,12,13
 193 117 193 117 142.5 145 c 128,-1,14
 92 173 92 173 64.5 223 c 128,-1,15
 37 273 37 273 37 340 c 256,0,1
260 136 m 0,16,17
 352 136 352 136 407.5 191.5 c 128,-1,18
 463 247 463 247 463 340 c 0,19,20
 463 401 463 401 438 447 c 128,-1,21
 413 493 413 493 367.5 518.5 c 128,-1,22
 322 544 322 544 260 544 c 0,23,24
 199 544 199 544 153.5 518.5 c 128,-1,25
 108 493 108 493 83 447 c 128,-1,26
 58 401 58 401 58 340 c 0,27,28
 58 247 58 247 113.5 191.5 c 128,-1,29
 169 136 169 136 260 136 c 0,16,17
209 315 m 1,30,-1
 209 228 l 2,31,32
 209 224 209 224 207 224 c 2,33,-1
 190 224 l 2,34,35
 188 224 188 224 188 228 c 2,36,-1
 188 456 l 2,37,38
 188 458 188 458 190 458 c 2,39,-1
 269 458 l 2,40,41
 306 458 306 458 326 439 c 128,-1,42
 346 420 346 420 346 387 c 0,43,44
 346 359 346 359 331 342 c 128,-1,45
 316 325 316 325 296 318 c 1,46,-1
 348 228 l 2,47,48
 349 227 349 227 348.5 225.5 c 128,-1,49
 348 224 348 224 346 224 c 2,50,-1
 331 224 l 2,51,52
 326 224 326 224 323 229 c 2,53,-1
 274 315 l 1,54,-1
 209 315 l 1,30,-1
209 335 m 1,55,-1
 270 335 l 2,56,57
 299 335 299 335 312 349 c 128,-1,58
 325 363 325 363 325 388 c 256,59,60
 325 413 325 413 310.5 426 c 128,-1,61
 296 439 296 439 273 439 c 2,62,-1
 209 439 l 1,63,-1
 209 335 l 1,55,-1
EndSplineSet
EndChar

StartChar: macron
Encoding: 175 175 109
Width: 176
GlyphClass: 1
Flags: W
LayerCount: 2
Fore
SplineSet
0 433 m 2,0,-1
 0 450 l 2,1,2
 0 453 0 453 3 453 c 2,3,-1
 173 453 l 2,4,5
 176 453 176 453 176 450 c 2,6,-1
 176 433 l 2,7,8
 176 431 176 431 173 431 c 2,9,-1
 3 431 l 2,10,11
 0 431 0 431 0 433 c 2,0,-1
EndSplineSet
EndChar

StartChar: degree
Encoding: 176 176 110
Width: 264
GlyphClass: 1
Flags: W
LayerCount: 2
Fore
SplineSet
132 371 m 256,0,1
 84 371 84 371 56.5 400 c 128,-1,2
 29 429 29 429 29 475 c 256,3,4
 29 521 29 521 57.5 550 c 128,-1,5
 86 579 86 579 132 579 c 0,6,7
 179 579 179 579 207.5 550 c 128,-1,8
 236 521 236 521 236 475 c 256,9,10
 236 429 236 429 208 400 c 128,-1,11
 180 371 180 371 132 371 c 256,0,1
132 392 m 256,12,13
 169 392 169 392 190.5 414.5 c 128,-1,14
 212 437 212 437 212 475 c 256,15,16
 212 513 212 513 191 535.5 c 128,-1,17
 170 558 170 558 132 558 c 0,18,19
 95 558 95 558 74 535.5 c 128,-1,20
 53 513 53 513 53 475 c 256,21,22
 53 437 53 437 74 414.5 c 128,-1,23
 95 392 95 392 132 392 c 256,12,13
EndSplineSet
EndChar

StartChar: plusminus
Encoding: 177 177 111
Width: 388
GlyphClass: 1
Flags: W
LayerCount: 2
Fore
SplineSet
184 262 m 1,0,-1
 49 262 l 2,1,2
 46 262 46 262 46 266 c 2,3,-1
 46 282 l 2,4,5
 46 285 46 285 49 285 c 2,6,-1
 184 285 l 1,7,-1
 184 440 l 2,8,9
 184 443 184 443 187 443 c 0,10,11
 200 443 200 443 203.5 435 c 128,-1,12
 207 427 207 427 207 416 c 2,13,-1
 207 285 l 1,14,-1
 339 285 l 2,15,16
 342 285 342 285 342 282 c 2,17,-1
 342 266 l 2,18,19
 342 262 342 262 339 262 c 2,20,-1
 207 262 l 1,21,-1
 207 106 l 2,22,23
 207 103 207 103 204 103 c 2,24,-1
 187 103 l 2,25,26
 184 103 184 103 184 106 c 2,27,-1
 184 262 l 1,0,-1
335 0 m 2,28,-1
 49 0 l 2,29,30
 46 0 46 0 46 3 c 2,31,-1
 46 20 l 2,32,33
 46 23 46 23 49 23 c 2,34,-1
 328 23 l 2,35,36
 342 23 342 23 342 9 c 2,37,-1
 342 6 l 2,38,39
 342 0 342 0 335 0 c 2,28,-1
EndSplineSet
EndChar

StartChar: twosuperior
Encoding: 178 178 112
Width: 268
GlyphClass: 1
Flags: W
LayerCount: 2
Fore
SplineSet
62 258 m 1,0,-1
 214 258 l 2,1,2
 223 258 223 258 227 256.5 c 128,-1,3
 231 255 231 255 231 247 c 2,4,-1
 231 242 l 2,5,6
 231 238 231 238 227 238 c 2,7,-1
 41 238 l 2,8,9
 38 238 38 238 38 242 c 0,10,11
 38 283 38 283 55 309 c 128,-1,12
 72 335 72 335 97.5 353 c 128,-1,13
 123 371 123 371 148 387 c 128,-1,14
 173 403 173 403 190 422.5 c 128,-1,15
 207 442 207 442 207 472 c 0,16,17
 207 542 207 542 132 542 c 0,18,19
 91 542 91 542 56 516 c 0,20,21
 54 515 54 515 52 513.5 c 128,-1,22
 50 512 50 512 48 512 c 0,23,24
 45 512 45 512 44 516 c 2,25,-1
 43 520 l 2,26,27
 42 527 42 527 44.5 531.5 c 128,-1,28
 47 536 47 536 57 542 c 0,29,30
 72 550 72 550 92 556 c 128,-1,31
 112 562 112 562 135 562 c 0,32,33
 180 562 180 562 205 538 c 128,-1,34
 230 514 230 514 230 472 c 0,35,36
 230 441 230 441 213.5 419.5 c 128,-1,37
 197 398 197 398 172 380.5 c 128,-1,38
 147 363 147 363 122 346.5 c 128,-1,39
 97 330 97 330 80 309 c 128,-1,40
 63 288 63 288 62 258 c 1,0,-1
EndSplineSet
EndChar

StartChar: threesuperior
Encoding: 179 179 113
Width: 280
GlyphClass: 1
Flags: W
LayerCount: 2
Fore
SplineSet
177 407 m 1,0,1
 206 400 206 400 223 379.5 c 128,-1,2
 240 359 240 359 240 327 c 0,3,4
 240 287 240 287 212 260 c 128,-1,5
 184 233 184 233 139 233 c 0,6,7
 106 233 106 233 84 244 c 128,-1,8
 62 255 62 255 51.5 270 c 128,-1,9
 41 285 41 285 41 296 c 0,10,11
 41 300 41 300 42.5 303.5 c 128,-1,12
 44 307 44 307 47 307 c 256,13,14
 50 307 50 307 53 301 c 0,15,16
 77 253 77 253 137 253 c 0,17,18
 171 253 171 253 194 271.5 c 128,-1,19
 217 290 217 290 217 325 c 256,20,21
 217 360 217 360 194.5 379 c 128,-1,22
 172 398 172 398 132 398 c 2,23,-1
 102 398 l 2,24,25
 93 398 93 398 89 400 c 128,-1,26
 85 402 85 402 85 409 c 2,27,-1
 85 413 l 2,28,29
 85 417 85 417 89 417 c 2,30,-1
 140 417 l 2,31,32
 172 417 172 417 191 432.5 c 128,-1,33
 210 448 210 448 210 478 c 0,34,35
 210 542 210 542 135 542 c 0,36,37
 114 542 114 542 96.5 535 c 128,-1,38
 79 528 79 528 60 515 c 0,39,40
 56 512 56 512 53 512 c 0,41,42
 51 512 51 512 49 516 c 2,43,-1
 46 521 l 2,44,45
 43 526 43 526 45.5 530 c 128,-1,46
 48 534 48 534 58 539 c 0,47,48
 73 549 73 549 93 555.5 c 128,-1,49
 113 562 113 562 135 562 c 0,50,51
 181 562 181 562 206 539.5 c 128,-1,52
 231 517 231 517 231 480 c 0,53,54
 231 455 231 455 218.5 436.5 c 128,-1,55
 206 418 206 418 177 407 c 1,0,1
EndSplineSet
EndChar

StartChar: acute
Encoding: 180 180 114
Width: 107
GlyphClass: 1
Flags: W
LayerCount: 2
Fore
SplineSet
108 496 m 2,0,-1
 41 440 l 2,1,2
 33 433 33 433 28.5 432 c 128,-1,3
 24 431 24 431 16 431 c 2,4,-1
 7 431 l 2,5,6
 -1 431 -1 431 4 436 c 2,7,-1
 62 493 l 2,8,9
 67 498 67 498 71 500 c 128,-1,10
 75 502 75 502 83 502 c 2,11,-1
 105 502 l 2,12,13
 108 502 108 502 109 500 c 128,-1,14
 110 498 110 498 108 496 c 2,0,-1
EndSplineSet
EndChar

StartChar: paragraph
Encoding: 182 182 115
Width: 413
GlyphClass: 1
Flags: W
LayerCount: 2
Fore
SplineSet
237 533 m 1,0,-1
 237 3 l 2,1,2
 237 0 237 0 233 0 c 2,3,-1
 214 0 l 2,4,5
 211 0 211 0 211 3 c 2,6,-1
 211 221 l 1,7,8
 164 221 164 221 126.5 241.5 c 128,-1,9
 89 262 89 262 67 298.5 c 128,-1,10
 45 335 45 335 45 382 c 0,11,12
 45 431 45 431 63.5 470 c 128,-1,13
 82 509 82 509 123 532.5 c 128,-1,14
 164 556 164 556 231 556 c 2,15,-1
 303 556 l 2,16,17
 322 556 322 556 328.5 548.5 c 128,-1,18
 335 541 335 541 335 520 c 2,19,-1
 335 3 l 2,20,21
 335 0 335 0 332 0 c 2,22,-1
 312 0 l 2,23,24
 309 0 309 0 309 3 c 2,25,-1
 309 533 l 1,26,-1
 237 533 l 1,0,-1
EndSplineSet
EndChar

StartChar: periodcentered
Encoding: 183 183 116
Width: 162
GlyphClass: 1
Flags: W
LayerCount: 2
Fore
SplineSet
50 279 m 256,0,1
 50 292 50 292 59 301.5 c 128,-1,2
 68 311 68 311 81 311 c 256,3,4
 94 311 94 311 103 301.5 c 128,-1,5
 112 292 112 292 112 279 c 256,6,7
 112 266 112 266 103 257 c 128,-1,8
 94 248 94 248 81 248 c 256,9,10
 68 248 68 248 59 257 c 128,-1,11
 50 266 50 266 50 279 c 256,0,1
EndSplineSet
EndChar

StartChar: cedilla
Encoding: 184 184 117
Width: 83
GlyphClass: 1
Flags: W
LayerCount: 2
Fore
SplineSet
23 -88 m 2,0,-1
 5 -88 l 2,1,2
 -1 -88 -1 -88 2 -82 c 2,3,-1
 50 -9 l 2,4,5
 56 0 56 0 60 2.5 c 128,-1,6
 64 5 64 5 72 5 c 2,7,-1
 81 5 l 2,8,9
 88 5 88 5 83 -1 c 2,10,-1
 44 -79 l 2,11,12
 40 -88 40 -88 23 -88 c 2,0,-1
EndSplineSet
EndChar

StartChar: onesuperior
Encoding: 185 185 118
Width: 182
GlyphClass: 1
Flags: W
LayerCount: 2
Fore
SplineSet
97 538 m 1,0,-1
 34 510 l 2,1,2
 31 509 31 509 31 512 c 2,3,-1
 31 527 l 2,4,5
 31 532 31 532 35 533 c 2,6,-1
 76 551 l 2,7,8
 84 555 84 555 88 555.5 c 128,-1,9
 92 556 92 556 99 556 c 2,10,-1
 106 556 l 2,11,12
 120 556 120 556 120 537 c 2,13,-1
 120 242 l 2,14,15
 120 238 120 238 117 238 c 2,16,-1
 100 238 l 2,17,18
 97 238 97 238 97 242 c 2,19,-1
 97 538 l 1,0,-1
EndSplineSet
EndChar

StartChar: ordmasculine
Encoding: 186 186 119
Width: 310
GlyphClass: 1
Flags: W
LayerCount: 2
Fore
SplineSet
154 254 m 0,0,1
 96 254 96 254 59 295 c 128,-1,2
 22 336 22 336 22 403 c 0,3,4
 22 471 22 471 59 512 c 128,-1,5
 96 553 96 553 153 553 c 0,6,7
 213 553 213 553 251 512.5 c 128,-1,8
 289 472 289 472 289 404 c 0,9,10
 289 337 289 337 251 295.5 c 128,-1,11
 213 254 213 254 154 254 c 0,0,1
153 274 m 0,12,13
 204 274 204 274 235 309 c 128,-1,14
 266 344 266 344 266 403 c 0,15,16
 266 464 266 464 235 499 c 128,-1,17
 204 534 204 534 153 534 c 0,18,19
 104 534 104 534 74 499.5 c 128,-1,20
 44 465 44 465 44 404 c 256,21,22
 44 343 44 343 74 308.5 c 128,-1,23
 104 274 104 274 153 274 c 0,12,13
EndSplineSet
EndChar

StartChar: guillemotright
Encoding: 187 187 120
Width: 300
GlyphClass: 1
Flags: W
LayerCount: 2
Fore
SplineSet
142 184 m 1,0,-1
 33 323 l 2,1,2
 30 328 30 328 34 328 c 2,3,-1
 49 328 l 2,4,5
 57 328 57 328 62 320 c 2,6,-1
 157 198 l 2,7,8
 164 189 164 189 164 184 c 256,9,10
 164 179 164 179 157 170 c 2,11,-1
 62 48 l 2,12,13
 57 40 57 40 49 40 c 2,14,-1
 34 40 l 2,15,16
 30 40 30 40 33 45 c 2,17,-1
 142 184 l 1,0,-1
247 184 m 1,18,-1
 137 323 l 2,19,20
 134 328 134 328 138 328 c 2,21,-1
 153 328 l 2,22,23
 161 328 161 328 166 320 c 2,24,-1
 262 198 l 2,25,26
 264 194 264 194 266 191 c 128,-1,27
 268 188 268 188 268 184 c 256,28,29
 268 180 268 180 266 177 c 128,-1,30
 264 174 264 174 262 170 c 2,31,-1
 166 48 l 2,32,33
 161 40 161 40 153 40 c 2,34,-1
 138 40 l 2,35,36
 134 40 134 40 137 45 c 2,37,-1
 247 184 l 1,18,-1
EndSplineSet
EndChar

StartChar: onequarter
Encoding: 188 188 121
Width: 529
GlyphClass: 1
Flags: W
LayerCount: 2
Fore
SplineSet
97 538 m 1,0,-1
 34 510 l 2,1,2
 31 509 31 509 31 512 c 2,3,-1
 31 527 l 2,4,5
 31 532 31 532 35 533 c 2,6,-1
 76 551 l 2,7,8
 84 555 84 555 88 555.5 c 128,-1,9
 92 556 92 556 99 556 c 2,10,-1
 106 556 l 2,11,12
 120 556 120 556 120 537 c 2,13,-1
 120 242 l 2,14,15
 120 238 120 238 117 238 c 2,16,-1
 100 238 l 2,17,18
 97 238 97 238 97 242 c 2,19,-1
 97 538 l 1,0,-1
105 0 m 2,20,-1
 91 0 l 2,21,22
 87 0 87 0 89 4 c 2,23,-1
 393 549 l 2,24,25
 397 556 397 556 401 556 c 0,26,27
 409 556 409 556 411 547.5 c 128,-1,28
 413 539 413 539 405 525 c 2,29,-1
 118 8 l 2,30,31
 115 3 115 3 113.5 1.5 c 128,-1,32
 112 0 112 0 105 0 c 2,20,-1
424 83 m 1,33,-1
 275 83 l 2,34,35
 272 83 272 83 272 87 c 2,36,-1
 272 97 l 2,37,38
 272 102 272 102 272.5 105.5 c 128,-1,39
 273 109 273 109 277 116 c 2,40,-1
 406 305 l 2,41,42
 414 317 414 317 426 317 c 2,43,-1
 433 317 l 2,44,45
 447 317 447 317 447 298 c 2,46,-1
 447 103 l 1,47,-1
 474 103 l 2,48,49
 492 103 492 103 492 92 c 2,50,-1
 492 87 l 2,51,52
 492 83 492 83 488 83 c 2,53,-1
 447 83 l 1,54,-1
 447 3 l 2,55,56
 447 0 447 0 444 0 c 2,57,-1
 427 0 l 2,58,59
 424 0 424 0 424 3 c 2,60,-1
 424 83 l 1,33,-1
292 103 m 1,61,-1
 424 103 l 1,62,-1
 424 296 l 1,63,-1
 292 103 l 1,61,-1
EndSplineSet
Ligature2: "'frac' Diagonal Fractions lookup 4 subtable" one fraction four
Ligature2: "'frac' Diagonal Fractions lookup 4 subtable" one slash four
EndChar

StartChar: onehalf
Encoding: 189 189 122
Width: 612
GlyphClass: 1
Flags: W
LayerCount: 2
Fore
SplineSet
97 538 m 1,0,-1
 34 510 l 2,1,2
 31 509 31 509 31 512 c 2,3,-1
 31 527 l 2,4,5
 31 532 31 532 35 533 c 2,6,-1
 76 551 l 2,7,8
 84 555 84 555 88 555.5 c 128,-1,9
 92 556 92 556 99 556 c 2,10,-1
 106 556 l 2,11,12
 120 556 120 556 120 537 c 2,13,-1
 120 242 l 2,14,15
 120 238 120 238 117 238 c 2,16,-1
 100 238 l 2,17,18
 97 238 97 238 97 242 c 2,19,-1
 97 538 l 1,0,-1
105 0 m 2,20,-1
 91 0 l 2,21,22
 87 0 87 0 89 4 c 2,23,-1
 393 549 l 2,24,25
 397 556 397 556 401 556 c 0,26,27
 409 556 409 556 411 547.5 c 128,-1,28
 413 539 413 539 405 525 c 2,29,-1
 118 8 l 2,30,31
 115 3 115 3 113.5 1.5 c 128,-1,32
 112 0 112 0 105 0 c 2,20,-1
374 20 m 1,33,-1
 526 20 l 2,34,35
 543 20 543 20 543 8 c 2,36,-1
 543 4 l 2,37,38
 543 0 543 0 539 0 c 2,39,-1
 353 0 l 2,40,41
 350 0 350 0 350 3 c 0,42,43
 350 44 350 44 367 70 c 128,-1,44
 384 96 384 96 409.5 114 c 128,-1,45
 435 132 435 132 460 148 c 128,-1,46
 485 164 485 164 502 183.5 c 128,-1,47
 519 203 519 203 519 233 c 0,48,49
 519 303 519 303 445 303 c 0,50,51
 426 303 426 303 406 297 c 128,-1,52
 386 291 386 291 368 277 c 0,53,54
 366 276 366 276 364 274.5 c 128,-1,55
 362 273 362 273 360 273 c 0,56,57
 357 273 357 273 356 277 c 2,58,-1
 355 281 l 2,59,60
 354 288 354 288 356.5 292.5 c 128,-1,61
 359 297 359 297 369 303 c 0,62,63
 384 311 384 311 404 317 c 128,-1,64
 424 323 424 323 447 323 c 0,65,66
 492 323 492 323 517 299 c 128,-1,67
 542 275 542 275 542 233 c 0,68,69
 542 202 542 202 525.5 180.5 c 128,-1,70
 509 159 509 159 484 142 c 128,-1,71
 459 125 459 125 434 108 c 128,-1,72
 409 91 409 91 392 70 c 128,-1,73
 375 49 375 49 374 20 c 1,33,-1
EndSplineSet
Ligature2: "'frac' Diagonal Fractions lookup 4 subtable" one fraction two
Ligature2: "'frac' Diagonal Fractions lookup 4 subtable" one slash two
EndChar

StartChar: threequarters
Encoding: 190 190 123
Width: 605
GlyphClass: 1
Flags: W
LayerCount: 2
Fore
SplineSet
177 407 m 1,0,1
 206 400 206 400 223 379.5 c 128,-1,2
 240 359 240 359 240 327 c 0,3,4
 240 287 240 287 212 260 c 128,-1,5
 184 233 184 233 139 233 c 0,6,7
 106 233 106 233 84 244 c 128,-1,8
 62 255 62 255 51.5 270 c 128,-1,9
 41 285 41 285 41 296 c 0,10,11
 41 300 41 300 42.5 303.5 c 128,-1,12
 44 307 44 307 47 307 c 256,13,14
 50 307 50 307 53 301 c 0,15,16
 77 253 77 253 137 253 c 0,17,18
 171 253 171 253 194 271.5 c 128,-1,19
 217 290 217 290 217 325 c 256,20,21
 217 360 217 360 194.5 379 c 128,-1,22
 172 398 172 398 132 398 c 2,23,-1
 102 398 l 2,24,25
 93 398 93 398 89 400 c 128,-1,26
 85 402 85 402 85 409 c 2,27,-1
 85 413 l 2,28,29
 85 417 85 417 89 417 c 2,30,-1
 140 417 l 2,31,32
 172 417 172 417 191 432.5 c 128,-1,33
 210 448 210 448 210 478 c 0,34,35
 210 542 210 542 135 542 c 0,36,37
 114 542 114 542 96.5 535 c 128,-1,38
 79 528 79 528 60 515 c 0,39,40
 56 512 56 512 53 512 c 0,41,42
 51 512 51 512 49 516 c 2,43,-1
 46 521 l 2,44,45
 43 526 43 526 45.5 530 c 128,-1,46
 48 534 48 534 58 539 c 0,47,48
 73 549 73 549 93 555.5 c 128,-1,49
 113 562 113 562 135 562 c 0,50,51
 181 562 181 562 206 539.5 c 128,-1,52
 231 517 231 517 231 480 c 0,53,54
 231 455 231 455 218.5 436.5 c 128,-1,55
 206 418 206 418 177 407 c 1,0,1
180 0 m 2,56,-1
 167 0 l 2,57,58
 162 0 162 0 164 4 c 2,59,-1
 469 549 l 2,60,61
 471 556 471 556 477 556 c 0,62,63
 485 556 485 556 486.5 547.5 c 128,-1,64
 488 539 488 539 480 525 c 2,65,-1
 193 8 l 2,66,67
 190 3 190 3 188.5 1.5 c 128,-1,68
 187 0 187 0 180 0 c 2,56,-1
499 83 m 1,69,-1
 350 83 l 2,70,71
 347 83 347 83 347 87 c 2,72,-1
 347 97 l 2,73,74
 347 102 347 102 347.5 105.5 c 128,-1,75
 348 109 348 109 352 116 c 2,76,-1
 482 305 l 2,77,78
 489 317 489 317 502 317 c 2,79,-1
 508 317 l 2,80,81
 522 317 522 317 522 298 c 2,82,-1
 522 103 l 1,83,-1
 550 103 l 2,84,85
 567 103 567 103 567 92 c 2,86,-1
 567 87 l 2,87,88
 567 83 567 83 563 83 c 2,89,-1
 522 83 l 1,90,-1
 522 3 l 2,91,92
 522 0 522 0 519 0 c 2,93,-1
 502 0 l 2,94,95
 499 0 499 0 499 3 c 2,96,-1
 499 83 l 1,69,-1
367 103 m 1,97,-1
 499 103 l 1,98,-1
 499 296 l 1,99,-1
 367 103 l 1,97,-1
EndSplineSet
Ligature2: "'frac' Diagonal Fractions lookup 4 subtable" three fraction four
Ligature2: "'frac' Diagonal Fractions lookup 4 subtable" three slash four
EndChar

StartChar: questiondown
Encoding: 191 191 124
Width: 309
GlyphClass: 1
Flags: W
LayerCount: 2
Fore
SplineSet
181 304 m 256,0,1
 168 304 168 304 159 313.5 c 128,-1,2
 150 323 150 323 150 336 c 256,3,4
 150 349 150 349 159 358 c 128,-1,5
 168 367 168 367 181 367 c 256,6,7
 194 367 194 367 203 358 c 128,-1,8
 212 349 212 349 212 336 c 256,9,10
 212 323 212 323 203 313.5 c 128,-1,11
 194 304 194 304 181 304 c 256,0,1
13 -71 m 0,12,13
 13 -27 13 -27 33.5 4 c 128,-1,14
 54 35 54 35 84.5 60.5 c 128,-1,15
 115 86 115 86 144 112 c 0,16,17
 158 124 158 124 163 135 c 128,-1,18
 168 146 168 146 168 165 c 2,19,-1
 168 224 l 2,20,21
 168 228 168 228 171 228 c 2,22,-1
 172 228 l 2,23,24
 180 228 180 228 187 222 c 128,-1,25
 194 216 194 216 194 200 c 2,26,-1
 194 159 l 2,27,28
 194 134 194 134 178.5 114.5 c 128,-1,29
 163 95 163 95 140 77.5 c 128,-1,30
 117 60 117 60 93.5 40 c 128,-1,31
 70 20 70 20 54.5 -6.5 c 128,-1,32
 39 -33 39 -33 39 -71 c 0,33,34
 39 -129 39 -129 76.5 -162 c 128,-1,35
 114 -195 114 -195 178 -195 c 0,36,37
 219 -195 219 -195 248.5 -186 c 128,-1,38
 278 -177 278 -177 312 -153 c 0,39,40
 314 -151 314 -151 316.5 -149.5 c 128,-1,41
 319 -148 319 -148 321 -148 c 256,42,43
 323 -148 323 -148 326 -152 c 2,44,-1
 331 -161 l 2,45,46
 334 -167 334 -167 329 -170 c 0,47,48
 301 -190 301 -190 265 -204 c 128,-1,49
 229 -218 229 -218 176 -218 c 0,50,51
 103 -218 103 -218 58 -179.5 c 128,-1,52
 13 -141 13 -141 13 -71 c 0,12,13
EndSplineSet
EndChar

StartChar: Agrave
Encoding: 192 192 125
Width: 472
GlyphClass: 1
Flags: W
LayerCount: 2
Fore
SplineSet
240 629 m 2,0,-1
 173 685 l 2,1,2
 171 687 171 687 171.5 689 c 128,-1,3
 172 691 172 691 175 691 c 2,4,-1
 198 691 l 2,5,6
 206 691 206 691 210 689 c 128,-1,7
 214 687 214 687 219 682 c 2,8,-1
 277 625 l 2,9,10
 279 623 279 623 278 621 c 128,-1,11
 277 619 277 619 274 619 c 2,12,-1
 265 619 l 2,13,14
 257 619 257 619 252.5 620.5 c 128,-1,15
 248 622 248 622 240 629 c 2,0,-1
106 182 m 1,16,-1
 42 8 l 2,17,18
 40 3 40 3 38 1.5 c 128,-1,19
 36 0 36 0 29 0 c 2,20,-1
 15 0 l 2,21,22
 11 0 11 0 13 4 c 2,23,-1
 219 552 l 2,24,25
 221 556 221 556 223 556 c 2,26,-1
 225 556 l 2,27,28
 239 556 239 556 245 542 c 2,29,-1
 459 4 l 2,30,31
 461 0 461 0 457 0 c 2,32,-1
 440 0 l 2,33,34
 435 0 435 0 433.5 1.5 c 128,-1,35
 432 3 432 3 429 8 c 2,36,-1
 361 182 l 1,37,-1
 106 182 l 1,16,-1
115 205 m 1,38,-1
 352 205 l 1,39,-1
 230 513 l 1,40,-1
 115 205 l 1,38,-1
EndSplineSet
EndChar

StartChar: Aacute
Encoding: 193 193 126
Width: 472
GlyphClass: 1
Flags: W
LayerCount: 2
Fore
SplineSet
288 685 m 2,0,-1
 221 629 l 2,1,2
 213 622 213 622 208.5 620.5 c 128,-1,3
 204 619 204 619 196 619 c 2,4,-1
 187 619 l 2,5,6
 184 619 184 619 183 621 c 128,-1,7
 182 623 182 623 184 625 c 2,8,-1
 241 682 l 2,9,10
 246 687 246 687 250 689 c 128,-1,11
 254 691 254 691 263 691 c 2,12,-1
 285 691 l 2,13,14
 288 691 288 691 289 689 c 128,-1,15
 290 687 290 687 288 685 c 2,0,-1
106 182 m 1,16,-1
 42 8 l 2,17,18
 40 3 40 3 38 1.5 c 128,-1,19
 36 0 36 0 29 0 c 2,20,-1
 15 0 l 2,21,22
 11 0 11 0 13 4 c 2,23,-1
 219 552 l 2,24,25
 221 556 221 556 223 556 c 2,26,-1
 225 556 l 2,27,28
 239 556 239 556 245 542 c 2,29,-1
 459 4 l 2,30,31
 461 0 461 0 457 0 c 2,32,-1
 440 0 l 2,33,34
 435 0 435 0 433.5 1.5 c 128,-1,35
 432 3 432 3 429 8 c 2,36,-1
 361 182 l 1,37,-1
 106 182 l 1,16,-1
115 205 m 1,38,-1
 352 205 l 1,39,-1
 230 513 l 1,40,-1
 115 205 l 1,38,-1
EndSplineSet
EndChar

StartChar: Acircumflex
Encoding: 194 194 127
Width: 472
GlyphClass: 1
Flags: W
LayerCount: 2
Fore
SplineSet
231 675 m 1,0,-1
 179 629 l 2,1,2
 171 622 171 622 166.5 620.5 c 128,-1,3
 162 619 162 619 154 619 c 2,4,-1
 146 619 l 2,5,6
 144 619 144 619 142.5 621 c 128,-1,7
 141 623 141 623 144 625 c 2,8,-1
 201 682 l 2,9,10
 206 687 206 687 210 689 c 128,-1,11
 214 691 214 691 222 691 c 2,12,-1
 239 691 l 2,13,14
 247 691 247 691 251.5 689 c 128,-1,15
 256 687 256 687 260 682 c 2,16,-1
 318 625 l 2,17,18
 322 619 322 619 314 619 c 2,19,-1
 306 619 l 2,20,21
 298 619 298 619 293.5 620.5 c 128,-1,22
 289 622 289 622 281 629 c 2,23,-1
 231 675 l 1,0,-1
106 182 m 1,24,-1
 42 8 l 2,25,26
 40 3 40 3 38 1.5 c 128,-1,27
 36 0 36 0 29 0 c 2,28,-1
 15 0 l 2,29,30
 11 0 11 0 13 4 c 2,31,-1
 219 552 l 2,32,33
 221 556 221 556 223 556 c 2,34,-1
 225 556 l 2,35,36
 239 556 239 556 245 542 c 2,37,-1
 459 4 l 2,38,39
 461 0 461 0 457 0 c 2,40,-1
 440 0 l 2,41,42
 435 0 435 0 433.5 1.5 c 128,-1,43
 432 3 432 3 429 8 c 2,44,-1
 361 182 l 1,45,-1
 106 182 l 1,24,-1
115 205 m 1,46,-1
 352 205 l 1,47,-1
 230 513 l 1,48,-1
 115 205 l 1,46,-1
EndSplineSet
EndChar

StartChar: Atilde
Encoding: 195 195 128
Width: 472
GlyphClass: 1
Flags: W
LayerCount: 2
Fore
SplineSet
163 616 m 2,0,-1
 146 616 l 2,1,2
 143 616 143 616 143 621 c 0,3,4
 144 641 144 641 155 652.5 c 128,-1,5
 166 664 166 664 184 664 c 0,6,7
 196 664 196 664 211.5 657.5 c 128,-1,8
 227 651 227 651 242.5 644 c 128,-1,9
 258 637 258 637 268 637 c 0,10,11
 284 637 284 637 288 654 c 0,12,13
 289 662 289 662 295 662 c 2,14,-1
 310 662 l 2,15,16
 315 662 315 662 314 656 c 0,17,18
 307 614 307 614 268 614 c 0,19,20
 254 614 254 614 238.5 621 c 128,-1,21
 223 628 223 628 209 634.5 c 128,-1,22
 195 641 195 641 184 641 c 0,23,24
 172 641 172 641 169 624 c 0,25,26
 168 616 168 616 163 616 c 2,0,-1
106 182 m 1,27,-1
 42 8 l 2,28,29
 40 3 40 3 38 1.5 c 128,-1,30
 36 0 36 0 29 0 c 2,31,-1
 15 0 l 2,32,33
 11 0 11 0 13 4 c 2,34,-1
 219 552 l 2,35,36
 221 556 221 556 223 556 c 2,37,-1
 225 556 l 2,38,39
 239 556 239 556 245 542 c 2,40,-1
 459 4 l 2,41,42
 461 0 461 0 457 0 c 2,43,-1
 440 0 l 2,44,45
 435 0 435 0 433.5 1.5 c 128,-1,46
 432 3 432 3 429 8 c 2,47,-1
 361 182 l 1,48,-1
 106 182 l 1,27,-1
115 205 m 1,49,-1
 352 205 l 1,50,-1
 230 513 l 1,51,-1
 115 205 l 1,49,-1
EndSplineSet
EndChar

StartChar: Adieresis
Encoding: 196 196 129
Width: 472
GlyphClass: 1
Flags: W
LayerCount: 2
Fore
SplineSet
164 634 m 256,0,1
 164 642 164 642 170 647.5 c 128,-1,2
 176 653 176 653 183 653 c 0,3,4
 202 653 202 653 202 634 c 256,5,6
 202 615 202 615 183 615 c 0,7,8
 176 615 176 615 170 620.5 c 128,-1,9
 164 626 164 626 164 634 c 256,0,1
255 634 m 256,10,11
 255 653 255 653 274 653 c 256,12,13
 293 653 293 653 293 634 c 256,14,15
 293 615 293 615 274 615 c 256,16,17
 255 615 255 615 255 634 c 256,10,11
106 182 m 1,18,-1
 42 8 l 2,19,20
 40 3 40 3 38 1.5 c 128,-1,21
 36 0 36 0 29 0 c 2,22,-1
 15 0 l 2,23,24
 11 0 11 0 13 4 c 2,25,-1
 219 552 l 2,26,27
 221 556 221 556 223 556 c 2,28,-1
 225 556 l 2,29,30
 239 556 239 556 245 542 c 2,31,-1
 459 4 l 2,32,33
 461 0 461 0 457 0 c 2,34,-1
 440 0 l 2,35,36
 435 0 435 0 433.5 1.5 c 128,-1,37
 432 3 432 3 429 8 c 2,38,-1
 361 182 l 1,39,-1
 106 182 l 1,18,-1
115 205 m 1,40,-1
 352 205 l 1,41,-1
 230 513 l 1,42,-1
 115 205 l 1,40,-1
EndSplineSet
EndChar

StartChar: Aring
Encoding: 197 197 130
Width: 472
GlyphClass: 1
Flags: W
LayerCount: 2
Fore
SplineSet
172 652 m 0,0,1
 172 675 172 675 188 691.5 c 128,-1,2
 204 708 204 708 226 708 c 0,3,4
 249 708 249 708 265 691.5 c 128,-1,5
 281 675 281 675 281 652 c 0,6,7
 281 630 281 630 264.5 614 c 128,-1,8
 248 598 248 598 226 598 c 0,9,10
 205 598 205 598 188.5 614 c 128,-1,11
 172 630 172 630 172 652 c 0,0,1
226 617 m 256,12,13
 241 617 241 617 250.5 627 c 128,-1,14
 260 637 260 637 260 652 c 0,15,16
 260 668 260 668 250.5 678 c 128,-1,17
 241 688 241 688 226 688 c 256,18,19
 211 688 211 688 202 678 c 128,-1,20
 193 668 193 668 193 652 c 0,21,22
 193 637 193 637 202 627 c 128,-1,23
 211 617 211 617 226 617 c 256,12,13
106 182 m 1,24,-1
 42 8 l 2,25,26
 40 3 40 3 38 1.5 c 128,-1,27
 36 0 36 0 29 0 c 2,28,-1
 15 0 l 2,29,30
 11 0 11 0 13 4 c 2,31,-1
 219 552 l 2,32,33
 221 556 221 556 223 556 c 2,34,-1
 225 556 l 2,35,36
 239 556 239 556 245 542 c 2,37,-1
 459 4 l 2,38,39
 461 0 461 0 457 0 c 2,40,-1
 440 0 l 2,41,42
 435 0 435 0 433.5 1.5 c 128,-1,43
 432 3 432 3 429 8 c 2,44,-1
 361 182 l 1,45,-1
 106 182 l 1,24,-1
115 205 m 1,46,-1
 352 205 l 1,47,-1
 230 513 l 1,48,-1
 115 205 l 1,46,-1
EndSplineSet
EndChar

StartChar: AE
Encoding: 198 198 131
Width: 648
GlyphClass: 1
Flags: W
LayerCount: 2
Fore
SplineSet
128 182 m 1,0,-1
 31 8 l 2,1,2
 29 3 29 3 27.5 1.5 c 128,-1,3
 26 0 26 0 19 0 c 2,4,-1
 5 0 l 2,5,6
 1 0 1 0 3 4 c 2,7,-1
 305 552 l 2,8,9
 309 556 309 556 312 556 c 2,10,-1
 587 556 l 2,11,12
 601 556 601 556 601 542 c 2,13,-1
 601 539 l 2,14,15
 601 533 601 533 594 533 c 2,16,-1
 348 533 l 1,17,-1
 348 285 l 1,18,-1
 567 285 l 2,19,20
 581 285 581 285 581 271 c 2,21,-1
 581 268 l 2,22,23
 581 262 581 262 574 262 c 2,24,-1
 348 262 l 1,25,-1
 348 23 l 1,26,-1
 597 23 l 2,27,28
 611 23 611 23 611 9 c 2,29,-1
 611 6 l 2,30,31
 611 0 611 0 604 0 c 2,32,-1
 325 0 l 2,33,34
 322 0 322 0 322 3 c 2,35,-1
 322 182 l 1,36,-1
 128 182 l 1,0,-1
141 205 m 1,37,-1
 322 205 l 1,38,-1
 322 533 l 1,39,-1
 141 205 l 1,37,-1
EndSplineSet
EndChar

StartChar: Ccedilla
Encoding: 199 199 132
Width: 505
GlyphClass: 1
Flags: W
LayerCount: 2
Fore
SplineSet
317 -11 m 1,0,-1
 282 -79 l 2,1,2
 278 -88 278 -88 261 -88 c 2,3,-1
 243 -88 l 2,4,5
 237 -88 237 -88 240 -82 c 2,6,-1
 287 -11 l 1,7,8
 185 -6 185 -6 124 70.5 c 128,-1,9
 63 147 63 147 63 278 c 0,10,11
 63 367 63 367 93 432 c 128,-1,12
 123 497 123 497 177.5 532 c 128,-1,13
 232 567 232 567 307 567 c 0,14,15
 354 567 354 567 387 555 c 128,-1,16
 420 543 420 543 448 527 c 0,17,18
 464 517 464 517 468 511.5 c 128,-1,19
 472 506 472 506 469 498 c 2,20,-1
 468 495 l 2,21,22
 465 488 465 488 462 488 c 256,23,24
 459 488 459 488 456.5 490 c 128,-1,25
 454 492 454 492 452 493 c 0,26,27
 415 520 415 520 380.5 532 c 128,-1,28
 346 544 346 544 305 544 c 0,29,30
 205 544 205 544 147 472 c 128,-1,31
 89 400 89 400 89 277 c 0,32,33
 89 155 89 155 146.5 83.5 c 128,-1,34
 204 12 204 12 303 12 c 0,35,36
 364 12 364 12 403.5 39.5 c 128,-1,37
 443 67 443 67 461 109 c 0,38,39
 465 118 465 118 470 118 c 0,40,41
 479 118 479 118 479 106 c 0,42,43
 479 96 479 96 470 77.5 c 128,-1,44
 461 59 461 59 442 40 c 128,-1,45
 423 21 423 21 392 6.5 c 128,-1,46
 361 -8 361 -8 317 -11 c 1,0,-1
EndSplineSet
EndChar

StartChar: Egrave
Encoding: 200 200 133
Width: 408
GlyphClass: 1
Flags: W
LayerCount: 2
Fore
SplineSet
219 629 m 2,0,-1
 152 685 l 2,1,2
 151 687 151 687 151.5 689 c 128,-1,3
 152 691 152 691 155 691 c 2,4,-1
 178 691 l 2,5,6
 186 691 186 691 189.5 689 c 128,-1,7
 193 687 193 687 199 682 c 2,8,-1
 256 625 l 2,9,10
 258 623 258 623 257 621 c 128,-1,11
 256 619 256 619 253 619 c 2,12,-1
 244 619 l 2,13,14
 236 619 236 619 231.5 620.5 c 128,-1,15
 227 622 227 622 219 629 c 2,0,-1
108 23 m 1,16,-1
 358 23 l 2,17,18
 371 23 371 23 371 9 c 2,19,-1
 371 6 l 2,20,21
 371 0 371 0 365 0 c 2,22,-1
 85 0 l 2,23,24
 82 0 82 0 82 3 c 2,25,-1
 82 553 l 2,26,27
 82 556 82 556 85 556 c 2,28,-1
 348 556 l 2,29,30
 361 556 361 556 361 542 c 2,31,-1
 361 539 l 2,32,33
 361 533 361 533 355 533 c 2,34,-1
 108 533 l 1,35,-1
 108 285 l 1,36,-1
 328 285 l 2,37,38
 341 285 341 285 341 271 c 2,39,-1
 341 268 l 2,40,41
 341 262 341 262 335 262 c 2,42,-1
 108 262 l 1,43,-1
 108 23 l 1,16,-1
EndSplineSet
EndChar

StartChar: Eacute
Encoding: 201 201 134
Width: 408
GlyphClass: 1
Flags: W
LayerCount: 2
Fore
SplineSet
286 685 m 2,0,-1
 219 629 l 2,1,2
 211 622 211 622 206.5 620.5 c 128,-1,3
 202 619 202 619 194 619 c 2,4,-1
 185 619 l 2,5,6
 182 619 182 619 181 621 c 128,-1,7
 180 623 180 623 182 625 c 2,8,-1
 239 682 l 2,9,10
 244 687 244 687 248 689 c 128,-1,11
 252 691 252 691 260 691 c 2,12,-1
 283 691 l 2,13,14
 286 691 286 691 287 689 c 128,-1,15
 288 687 288 687 286 685 c 2,0,-1
108 23 m 1,16,-1
 358 23 l 2,17,18
 371 23 371 23 371 9 c 2,19,-1
 371 6 l 2,20,21
 371 0 371 0 365 0 c 2,22,-1
 85 0 l 2,23,24
 82 0 82 0 82 3 c 2,25,-1
 82 553 l 2,26,27
 82 556 82 556 85 556 c 2,28,-1
 348 556 l 2,29,30
 361 556 361 556 361 542 c 2,31,-1
 361 539 l 2,32,33
 361 533 361 533 355 533 c 2,34,-1
 108 533 l 1,35,-1
 108 285 l 1,36,-1
 328 285 l 2,37,38
 341 285 341 285 341 271 c 2,39,-1
 341 268 l 2,40,41
 341 262 341 262 335 262 c 2,42,-1
 108 262 l 1,43,-1
 108 23 l 1,16,-1
EndSplineSet
EndChar

StartChar: Ecircumflex
Encoding: 202 202 135
Width: 408
GlyphClass: 1
Flags: W
LayerCount: 2
Fore
SplineSet
224 675 m 1,0,-1
 173 629 l 2,1,2
 164 622 164 622 160 620.5 c 128,-1,3
 156 619 156 619 148 619 c 2,4,-1
 140 619 l 2,5,6
 137 619 137 619 136 621 c 128,-1,7
 135 623 135 623 137 625 c 2,8,-1
 194 682 l 2,9,10
 199 687 199 687 203 689 c 128,-1,11
 207 691 207 691 215 691 c 2,12,-1
 232 691 l 2,13,14
 240 691 240 691 244.5 689 c 128,-1,15
 249 687 249 687 253 682 c 2,16,-1
 311 625 l 2,17,18
 313 623 313 623 311.5 621 c 128,-1,19
 310 619 310 619 308 619 c 2,20,-1
 300 619 l 2,21,22
 292 619 292 619 287.5 620.5 c 128,-1,23
 283 622 283 622 275 629 c 2,24,-1
 224 675 l 1,0,-1
108 23 m 1,25,-1
 358 23 l 2,26,27
 371 23 371 23 371 9 c 2,28,-1
 371 6 l 2,29,30
 371 0 371 0 365 0 c 2,31,-1
 85 0 l 2,32,33
 82 0 82 0 82 3 c 2,34,-1
 82 553 l 2,35,36
 82 556 82 556 85 556 c 2,37,-1
 348 556 l 2,38,39
 361 556 361 556 361 542 c 2,40,-1
 361 539 l 2,41,42
 361 533 361 533 355 533 c 2,43,-1
 108 533 l 1,44,-1
 108 285 l 1,45,-1
 328 285 l 2,46,47
 341 285 341 285 341 271 c 2,48,-1
 341 268 l 2,49,50
 341 262 341 262 335 262 c 2,51,-1
 108 262 l 1,52,-1
 108 23 l 1,25,-1
EndSplineSet
EndChar

StartChar: Edieresis
Encoding: 203 203 136
Width: 408
GlyphClass: 1
Flags: W
LayerCount: 2
Fore
SplineSet
153 634 m 256,0,1
 153 653 153 653 171 653 c 0,2,3
 190 653 190 653 190 634 c 256,4,5
 190 615 190 615 171 615 c 0,6,7
 153 615 153 615 153 634 c 256,0,1
243 634 m 256,8,9
 243 653 243 653 262 653 c 256,10,11
 281 653 281 653 281 634 c 256,12,13
 281 615 281 615 262 615 c 256,14,15
 243 615 243 615 243 634 c 256,8,9
108 23 m 1,16,-1
 358 23 l 2,17,18
 371 23 371 23 371 9 c 2,19,-1
 371 6 l 2,20,21
 371 0 371 0 365 0 c 2,22,-1
 85 0 l 2,23,24
 82 0 82 0 82 3 c 2,25,-1
 82 553 l 2,26,27
 82 556 82 556 85 556 c 2,28,-1
 348 556 l 2,29,30
 361 556 361 556 361 542 c 2,31,-1
 361 539 l 2,32,33
 361 533 361 533 355 533 c 2,34,-1
 108 533 l 1,35,-1
 108 285 l 1,36,-1
 328 285 l 2,37,38
 341 285 341 285 341 271 c 2,39,-1
 341 268 l 2,40,41
 341 262 341 262 335 262 c 2,42,-1
 108 262 l 1,43,-1
 108 23 l 1,16,-1
EndSplineSet
EndChar

StartChar: Igrave
Encoding: 204 204 137
Width: 191
GlyphClass: 1
Flags: W
LayerCount: 2
Fore
SplineSet
103 629 m 2,0,-1
 36 685 l 2,1,2
 35 687 35 687 35.5 689 c 128,-1,3
 36 691 36 691 39 691 c 2,4,-1
 62 691 l 2,5,6
 70 691 70 691 74 689 c 128,-1,7
 78 687 78 687 83 682 c 2,8,-1
 141 625 l 2,9,10
 145 619 145 619 137 619 c 2,11,-1
 128 619 l 2,12,13
 120 619 120 619 116 620.5 c 128,-1,14
 112 622 112 622 103 629 c 2,0,-1
83 3 m 2,15,-1
 83 553 l 2,16,17
 83 556 83 556 87 556 c 2,18,-1
 88 556 l 2,19,20
 96 556 96 556 103 549.5 c 128,-1,21
 110 543 110 543 110 528 c 2,22,-1
 110 3 l 2,23,24
 110 0 110 0 107 0 c 2,25,-1
 87 0 l 2,26,27
 83 0 83 0 83 3 c 2,15,-1
EndSplineSet
EndChar

StartChar: Iacute
Encoding: 205 205 138
Width: 191
GlyphClass: 1
Flags: W
LayerCount: 2
Fore
SplineSet
139 685 m 2,0,-1
 72 629 l 2,1,2
 64 622 64 622 59.5 620.5 c 128,-1,3
 55 619 55 619 47 619 c 2,4,-1
 38 619 l 2,5,6
 35 619 35 619 34 621 c 128,-1,7
 33 623 33 623 35 625 c 2,8,-1
 93 682 l 2,9,10
 98 687 98 687 102 689 c 128,-1,11
 106 691 106 691 114 691 c 2,12,-1
 136 691 l 2,13,14
 139 691 139 691 140 689 c 128,-1,15
 141 687 141 687 139 685 c 2,0,-1
84 3 m 2,16,-1
 84 553 l 2,17,18
 84 556 84 556 87 556 c 2,19,-1
 89 556 l 2,20,21
 97 556 97 556 103.5 549.5 c 128,-1,22
 110 543 110 543 110 528 c 2,23,-1
 110 3 l 2,24,25
 110 0 110 0 107 0 c 2,26,-1
 87 0 l 2,27,28
 84 0 84 0 84 3 c 2,16,-1
EndSplineSet
EndChar

StartChar: Icircumflex
Encoding: 206 206 139
Width: 191
GlyphClass: 1
Flags: W
LayerCount: 2
Fore
SplineSet
97 675 m 1,0,-1
 45 629 l 2,1,2
 37 622 37 622 32.5 620.5 c 128,-1,3
 28 619 28 619 20 619 c 2,4,-1
 12 619 l 2,5,6
 9 619 9 619 8 621 c 128,-1,7
 7 623 7 623 9 625 c 2,8,-1
 67 682 l 2,9,10
 72 687 72 687 76 689 c 128,-1,11
 80 691 80 691 88 691 c 2,12,-1
 104 691 l 2,13,14
 112 691 112 691 116.5 689 c 128,-1,15
 121 687 121 687 125 682 c 2,16,-1
 183 625 l 2,17,18
 185 623 185 623 184 621 c 128,-1,19
 183 619 183 619 180 619 c 2,20,-1
 172 619 l 2,21,22
 164 619 164 619 159.5 620.5 c 128,-1,23
 155 622 155 622 147 629 c 2,24,-1
 97 675 l 1,0,-1
84 3 m 2,25,-1
 84 553 l 2,26,27
 84 556 84 556 88 556 c 2,28,-1
 89 556 l 2,29,30
 97 556 97 556 103.5 549.5 c 128,-1,31
 110 543 110 543 110 528 c 2,32,-1
 110 3 l 2,33,34
 110 0 110 0 108 0 c 2,35,-1
 88 0 l 2,36,37
 84 0 84 0 84 3 c 2,25,-1
EndSplineSet
EndChar

StartChar: Idieresis
Encoding: 207 207 140
Width: 191
GlyphClass: 1
Flags: W
LayerCount: 2
Fore
SplineSet
30 634 m 256,0,1
 30 653 30 653 49 653 c 256,2,3
 68 653 68 653 68 634 c 256,4,5
 68 615 68 615 49 615 c 256,6,7
 30 615 30 615 30 634 c 256,0,1
121 634 m 256,8,9
 121 653 121 653 139 653 c 0,10,11
 158 653 158 653 158 634 c 256,12,13
 158 615 158 615 139 615 c 0,14,15
 121 615 121 615 121 634 c 256,8,9
82 3 m 2,16,-1
 82 553 l 2,17,18
 82 556 82 556 86 556 c 2,19,-1
 87 556 l 2,20,21
 95 556 95 556 101.5 549.5 c 128,-1,22
 108 543 108 543 108 528 c 2,23,-1
 108 3 l 2,24,25
 108 0 108 0 106 0 c 2,26,-1
 86 0 l 2,27,28
 82 0 82 0 82 3 c 2,16,-1
EndSplineSet
EndChar

StartChar: Eth
Encoding: 208 208 141
Width: 538
GlyphClass: 1
Flags: W
LayerCount: 2
Fore
SplineSet
73 266 m 1,0,-1
 27 266 l 2,1,2
 24 266 24 266 24 269 c 2,3,-1
 24 286 l 2,4,5
 24 289 24 289 27 289 c 2,6,-1
 73 289 l 1,7,-1
 73 553 l 2,8,9
 73 556 73 556 77 556 c 2,10,-1
 216 556 l 2,11,12
 474 556 474 556 474 286 c 0,13,14
 474 0 474 0 214 0 c 2,15,-1
 77 0 l 2,16,17
 73 0 73 0 73 3 c 2,18,-1
 73 266 l 1,0,-1
100 23 m 1,19,-1
 215 23 l 2,20,21
 331 23 331 23 389.5 87 c 128,-1,22
 448 151 448 151 448 284 c 0,23,24
 448 411 448 411 391.5 472 c 128,-1,25
 335 533 335 533 216 533 c 2,26,-1
 100 533 l 1,27,-1
 100 289 l 1,28,-1
 292 289 l 2,29,30
 306 289 306 289 306 276 c 2,31,-1
 306 272 l 2,32,33
 306 266 306 266 299 266 c 2,34,-1
 100 266 l 1,35,-1
 100 23 l 1,19,-1
EndSplineSet
EndChar

StartChar: Ntilde
Encoding: 209 209 142
Width: 517
GlyphClass: 1
Flags: W
LayerCount: 2
Fore
SplineSet
191 616 m 2,0,-1
 175 616 l 2,1,2
 171 616 171 616 171 621 c 0,3,4
 174 664 174 664 213 664 c 0,5,6
 225 664 225 664 240.5 657.5 c 128,-1,7
 256 651 256 651 271 644 c 128,-1,8
 286 637 286 637 296 637 c 0,9,10
 313 637 313 637 316 654 c 0,11,12
 319 662 319 662 324 662 c 2,13,-1
 339 662 l 2,14,15
 344 662 344 662 343 656 c 0,16,17
 336 614 336 614 296 614 c 0,18,19
 283 614 283 614 267.5 621 c 128,-1,20
 252 628 252 628 238 634.5 c 128,-1,21
 224 641 224 641 213 641 c 0,22,23
 201 641 201 641 198 624 c 0,24,25
 197 616 197 616 191 616 c 2,0,-1
408 49 m 1,26,-1
 408 553 l 2,27,28
 408 556 408 556 411 556 c 2,29,-1
 413 556 l 2,30,31
 421 556 421 556 427.5 549.5 c 128,-1,32
 434 543 434 543 434 528 c 2,33,-1
 434 7 l 2,34,35
 434 0 434 0 428 0 c 2,36,-1
 420 0 l 2,37,38
 413 0 413 0 410 2 c 128,-1,39
 407 4 407 4 403 10 c 2,40,-1
 108 491 l 1,41,-1
 108 3 l 2,42,43
 108 0 108 0 105 0 c 2,44,-1
 85 0 l 2,45,46
 82 0 82 0 82 3 c 2,47,-1
 82 553 l 2,48,49
 82 556 82 556 85 556 c 2,50,-1
 86 556 l 2,51,52
 93 556 93 556 98 552 c 128,-1,53
 103 548 103 548 111 534 c 2,54,-1
 408 49 l 1,26,-1
EndSplineSet
EndChar

StartChar: Ograve
Encoding: 210 210 143
Width: 586
GlyphClass: 1
Flags: W
LayerCount: 2
Fore
SplineSet
307 629 m 2,0,-1
 240 685 l 2,1,2
 239 687 239 687 239.5 689 c 128,-1,3
 240 691 240 691 243 691 c 2,4,-1
 266 691 l 2,5,6
 274 691 274 691 278 689 c 128,-1,7
 282 687 282 687 287 682 c 2,8,-1
 345 625 l 2,9,10
 349 619 349 619 341 619 c 2,11,-1
 332 619 l 2,12,13
 324 619 324 619 320 620.5 c 128,-1,14
 316 622 316 622 307 629 c 2,0,-1
293 -10 m 0,15,16
 178 -10 178 -10 120.5 67.5 c 128,-1,17
 63 145 63 145 63 277 c 256,18,19
 63 409 63 409 121.5 488 c 128,-1,20
 180 567 180 567 293 567 c 0,21,22
 407 567 407 567 464.5 488 c 128,-1,23
 522 409 522 409 522 277 c 256,24,25
 522 145 522 145 465.5 67.5 c 128,-1,26
 409 -10 409 -10 293 -10 c 0,15,16
293 13 m 256,27,28
 351 13 351 13 397 40.5 c 128,-1,29
 443 68 443 68 469.5 126 c 128,-1,30
 496 184 496 184 496 277 c 256,31,32
 496 370 496 370 469.5 429 c 128,-1,33
 443 488 443 488 397 516 c 128,-1,34
 351 544 351 544 293 544 c 256,35,36
 235 544 235 544 188.5 516 c 128,-1,37
 142 488 142 488 115.5 429 c 128,-1,38
 89 370 89 370 89 277 c 256,39,40
 89 184 89 184 115.5 126 c 128,-1,41
 142 68 142 68 188.5 40.5 c 128,-1,42
 235 13 235 13 293 13 c 256,27,28
EndSplineSet
EndChar

StartChar: Oacute
Encoding: 211 211 144
Width: 586
GlyphClass: 1
Flags: W
LayerCount: 2
Fore
SplineSet
345 685 m 2,0,-1
 278 629 l 2,1,2
 270 622 270 622 265.5 620.5 c 128,-1,3
 261 619 261 619 253 619 c 2,4,-1
 244 619 l 2,5,6
 241 619 241 619 240 621 c 128,-1,7
 239 623 239 623 241 625 c 2,8,-1
 299 682 l 2,9,10
 304 687 304 687 308 689 c 128,-1,11
 312 691 312 691 320 691 c 2,12,-1
 342 691 l 2,13,14
 345 691 345 691 346 689 c 128,-1,15
 347 687 347 687 345 685 c 2,0,-1
293 -10 m 0,16,17
 178 -10 178 -10 120.5 67.5 c 128,-1,18
 63 145 63 145 63 277 c 256,19,20
 63 409 63 409 121.5 488 c 128,-1,21
 180 567 180 567 293 567 c 0,22,23
 407 567 407 567 464.5 488 c 128,-1,24
 522 409 522 409 522 277 c 256,25,26
 522 145 522 145 465.5 67.5 c 128,-1,27
 409 -10 409 -10 293 -10 c 0,16,17
293 13 m 256,28,29
 351 13 351 13 397 40.5 c 128,-1,30
 443 68 443 68 469.5 126 c 128,-1,31
 496 184 496 184 496 277 c 256,32,33
 496 370 496 370 469.5 429 c 128,-1,34
 443 488 443 488 397 516 c 128,-1,35
 351 544 351 544 293 544 c 256,36,37
 235 544 235 544 188.5 516 c 128,-1,38
 142 488 142 488 115.5 429 c 128,-1,39
 89 370 89 370 89 277 c 256,40,41
 89 184 89 184 115.5 126 c 128,-1,42
 142 68 142 68 188.5 40.5 c 128,-1,43
 235 13 235 13 293 13 c 256,28,29
EndSplineSet
EndChar

StartChar: Ocircumflex
Encoding: 212 212 145
Width: 586
GlyphClass: 1
Flags: W
LayerCount: 2
Fore
SplineSet
294 675 m 1,0,-1
 242 629 l 2,1,2
 234 622 234 622 230 620.5 c 128,-1,3
 226 619 226 619 217 619 c 2,4,-1
 210 619 l 2,5,6
 207 619 207 619 206 621 c 128,-1,7
 205 623 205 623 207 625 c 2,8,-1
 264 682 l 2,9,10
 269 687 269 687 273 689 c 128,-1,11
 277 691 277 691 285 691 c 2,12,-1
 302 691 l 2,13,14
 310 691 310 691 314.5 689 c 128,-1,15
 319 687 319 687 323 682 c 2,16,-1
 381 625 l 2,17,18
 383 623 383 623 381.5 621 c 128,-1,19
 380 619 380 619 377 619 c 2,20,-1
 370 619 l 2,21,22
 362 619 362 619 357.5 620.5 c 128,-1,23
 353 622 353 622 345 629 c 2,24,-1
 294 675 l 1,0,-1
293 -10 m 0,25,26
 178 -10 178 -10 120.5 67.5 c 128,-1,27
 63 145 63 145 63 277 c 256,28,29
 63 409 63 409 121.5 488 c 128,-1,30
 180 567 180 567 293 567 c 0,31,32
 407 567 407 567 464.5 488 c 128,-1,33
 522 409 522 409 522 277 c 256,34,35
 522 145 522 145 465.5 67.5 c 128,-1,36
 409 -10 409 -10 293 -10 c 0,25,26
293 13 m 256,37,38
 351 13 351 13 397 40.5 c 128,-1,39
 443 68 443 68 469.5 126 c 128,-1,40
 496 184 496 184 496 277 c 256,41,42
 496 370 496 370 469.5 429 c 128,-1,43
 443 488 443 488 397 516 c 128,-1,44
 351 544 351 544 293 544 c 256,45,46
 235 544 235 544 188.5 516 c 128,-1,47
 142 488 142 488 115.5 429 c 128,-1,48
 89 370 89 370 89 277 c 256,49,50
 89 184 89 184 115.5 126 c 128,-1,51
 142 68 142 68 188.5 40.5 c 128,-1,52
 235 13 235 13 293 13 c 256,37,38
EndSplineSet
EndChar

StartChar: Otilde
Encoding: 213 213 146
Width: 586
GlyphClass: 1
Flags: W
LayerCount: 2
Fore
SplineSet
226 616 m 2,0,-1
 210 616 l 2,1,2
 206 616 206 616 206 621 c 0,3,4
 209 664 209 664 248 664 c 0,5,6
 260 664 260 664 275.5 657.5 c 128,-1,7
 291 651 291 651 306 644 c 128,-1,8
 321 637 321 637 331 637 c 0,9,10
 348 637 348 637 351 654 c 0,11,12
 352 662 352 662 359 662 c 2,13,-1
 374 662 l 2,14,15
 379 662 379 662 378 656 c 0,16,17
 371 614 371 614 331 614 c 0,18,19
 318 614 318 614 302.5 621 c 128,-1,20
 287 628 287 628 273 634.5 c 128,-1,21
 259 641 259 641 248 641 c 0,22,23
 236 641 236 641 233 624 c 0,24,25
 232 616 232 616 226 616 c 2,0,-1
293 -10 m 0,26,27
 178 -10 178 -10 120.5 67.5 c 128,-1,28
 63 145 63 145 63 277 c 256,29,30
 63 409 63 409 121.5 488 c 128,-1,31
 180 567 180 567 293 567 c 0,32,33
 407 567 407 567 464.5 488 c 128,-1,34
 522 409 522 409 522 277 c 256,35,36
 522 145 522 145 465.5 67.5 c 128,-1,37
 409 -10 409 -10 293 -10 c 0,26,27
293 13 m 256,38,39
 351 13 351 13 397 40.5 c 128,-1,40
 443 68 443 68 469.5 126 c 128,-1,41
 496 184 496 184 496 277 c 256,42,43
 496 370 496 370 469.5 429 c 128,-1,44
 443 488 443 488 397 516 c 128,-1,45
 351 544 351 544 293 544 c 256,46,47
 235 544 235 544 188.5 516 c 128,-1,48
 142 488 142 488 115.5 429 c 128,-1,49
 89 370 89 370 89 277 c 256,50,51
 89 184 89 184 115.5 126 c 128,-1,52
 142 68 142 68 188.5 40.5 c 128,-1,53
 235 13 235 13 293 13 c 256,38,39
EndSplineSet
EndChar

StartChar: Odieresis
Encoding: 214 214 147
Width: 586
GlyphClass: 1
Flags: W
LayerCount: 2
Fore
SplineSet
229 634 m 256,0,1
 229 653 229 653 248 653 c 256,2,3
 267 653 267 653 267 634 c 256,4,5
 267 615 267 615 248 615 c 256,6,7
 229 615 229 615 229 634 c 256,0,1
320 634 m 256,8,9
 320 653 320 653 339 653 c 0,10,11
 357 653 357 653 357 634 c 256,12,13
 357 615 357 615 339 615 c 0,14,15
 320 615 320 615 320 634 c 256,8,9
293 -10 m 0,16,17
 178 -10 178 -10 120.5 67.5 c 128,-1,18
 63 145 63 145 63 277 c 256,19,20
 63 409 63 409 121.5 488 c 128,-1,21
 180 567 180 567 293 567 c 0,22,23
 407 567 407 567 464.5 488 c 128,-1,24
 522 409 522 409 522 277 c 256,25,26
 522 145 522 145 465.5 67.5 c 128,-1,27
 409 -10 409 -10 293 -10 c 0,16,17
293 13 m 256,28,29
 351 13 351 13 397 40.5 c 128,-1,30
 443 68 443 68 469.5 126 c 128,-1,31
 496 184 496 184 496 277 c 256,32,33
 496 370 496 370 469.5 429 c 128,-1,34
 443 488 443 488 397 516 c 128,-1,35
 351 544 351 544 293 544 c 256,36,37
 235 544 235 544 188.5 516 c 128,-1,38
 142 488 142 488 115.5 429 c 128,-1,39
 89 370 89 370 89 277 c 256,40,41
 89 184 89 184 115.5 126 c 128,-1,42
 142 68 142 68 188.5 40.5 c 128,-1,43
 235 13 235 13 293 13 c 256,28,29
EndSplineSet
EndChar

StartChar: multiply
Encoding: 215 215 148
Width: 388
GlyphClass: 1
Flags: W
LayerCount: 2
Fore
SplineSet
194 259 m 1,0,-1
 78 143 l 2,1,2
 76 141 76 141 74 143 c 2,3,-1
 62 154 l 2,4,5
 60 157 60 157 62 159 c 2,6,-1
 178 276 l 1,7,-1
 62 392 l 2,8,9
 60 393 60 393 62 397 c 0,10,11
 71 405 71 405 79 402 c 128,-1,12
 87 399 87 399 96 389 c 2,13,-1
 194 291 l 1,14,-1
 309 406 l 2,15,16
 312 407 312 407 314 406 c 2,17,-1
 324 393 l 2,18,19
 328 393 328 393 324 389 c 2,20,-1
 210 276 l 1,21,-1
 328 158 l 2,22,23
 329 157 329 157 328.5 156 c 128,-1,24
 328 155 328 155 328 154 c 2,25,-1
 317 142 l 2,26,27
 314 140 314 140 312 142 c 2,28,-1
 194 259 l 1,0,-1
EndSplineSet
EndChar

StartChar: Oslash
Encoding: 216 216 149
Width: 586
GlyphClass: 1
Flags: W
LayerCount: 2
Fore
SplineSet
293 -10 m 0,0,1
 178 -10 178 -10 120.5 67.5 c 128,-1,2
 63 145 63 145 63 277 c 256,3,4
 63 409 63 409 121.5 488 c 128,-1,5
 180 567 180 567 293 567 c 0,6,7
 407 567 407 567 464.5 488 c 128,-1,8
 522 409 522 409 522 277 c 256,9,10
 522 145 522 145 465.5 67.5 c 128,-1,11
 409 -10 409 -10 293 -10 c 0,0,1
149 73 m 1,12,-1
 420 499 l 1,13,14
 368 544 368 544 293 544 c 0,15,16
 235 544 235 544 188.5 516 c 128,-1,17
 142 488 142 488 115.5 429 c 128,-1,18
 89 370 89 370 89 277 c 0,19,20
 89 207 89 207 105 156 c 128,-1,21
 121 105 121 105 149 73 c 1,12,-1
436 482 m 1,22,-1
 166 57 l 1,23,24
 192 35 192 35 224 24 c 128,-1,25
 256 13 256 13 293 13 c 0,26,27
 351 13 351 13 397 40.5 c 128,-1,28
 443 68 443 68 469.5 126 c 128,-1,29
 496 184 496 184 496 277 c 0,30,31
 496 348 496 348 480.5 398.5 c 128,-1,32
 465 449 465 449 436 482 c 1,22,-1
EndSplineSet
EndChar

StartChar: Ugrave
Encoding: 217 217 150
Width: 508
GlyphClass: 1
Flags: W
LayerCount: 2
Fore
SplineSet
259 629 m 2,0,-1
 192 685 l 2,1,2
 191 687 191 687 191.5 689 c 128,-1,3
 192 691 192 691 195 691 c 2,4,-1
 217 691 l 2,5,6
 226 691 226 691 229.5 689 c 128,-1,7
 233 687 233 687 239 682 c 2,8,-1
 296 625 l 2,9,10
 298 623 298 623 297 621 c 128,-1,11
 296 619 296 619 293 619 c 2,12,-1
 284 619 l 2,13,14
 276 619 276 619 271.5 620.5 c 128,-1,15
 267 622 267 622 259 629 c 2,0,-1
254 -10 m 0,16,17
 78 -10 78 -10 78 194 c 2,18,-1
 78 553 l 2,19,20
 78 556 78 556 81 556 c 2,21,-1
 82 556 l 2,22,23
 90 556 90 556 97 549.5 c 128,-1,24
 104 543 104 543 104 528 c 2,25,-1
 104 191 l 2,26,27
 104 13 104 13 255 13 c 0,28,29
 328 13 328 13 366.5 59 c 128,-1,30
 405 105 405 105 405 192 c 2,31,-1
 405 553 l 2,32,33
 405 556 405 556 407 556 c 2,34,-1
 410 556 l 2,35,36
 418 556 418 556 424.5 549.5 c 128,-1,37
 431 543 431 543 431 528 c 2,38,-1
 431 197 l 2,39,40
 431 97 431 97 385.5 43.5 c 128,-1,41
 340 -10 340 -10 254 -10 c 0,16,17
EndSplineSet
EndChar

StartChar: Uacute
Encoding: 218 218 151
Width: 508
GlyphClass: 1
Flags: W
LayerCount: 2
Fore
SplineSet
306 685 m 2,0,-1
 239 629 l 2,1,2
 231 622 231 622 226.5 620.5 c 128,-1,3
 222 619 222 619 214 619 c 2,4,-1
 205 619 l 2,5,6
 202 619 202 619 201 621 c 128,-1,7
 200 623 200 623 202 625 c 2,8,-1
 260 682 l 2,9,10
 265 687 265 687 269 689 c 128,-1,11
 273 691 273 691 281 691 c 2,12,-1
 304 691 l 2,13,14
 306 691 306 691 307 689 c 128,-1,15
 308 687 308 687 306 685 c 2,0,-1
254 -10 m 0,16,17
 78 -10 78 -10 78 194 c 2,18,-1
 78 553 l 2,19,20
 78 556 78 556 81 556 c 2,21,-1
 82 556 l 2,22,23
 90 556 90 556 97 549.5 c 128,-1,24
 104 543 104 543 104 528 c 2,25,-1
 104 191 l 2,26,27
 104 13 104 13 255 13 c 0,28,29
 328 13 328 13 366.5 59 c 128,-1,30
 405 105 405 105 405 192 c 2,31,-1
 405 553 l 2,32,33
 405 556 405 556 407 556 c 2,34,-1
 410 556 l 2,35,36
 418 556 418 556 424.5 549.5 c 128,-1,37
 431 543 431 543 431 528 c 2,38,-1
 431 197 l 2,39,40
 431 97 431 97 385.5 43.5 c 128,-1,41
 340 -10 340 -10 254 -10 c 0,16,17
EndSplineSet
EndChar

StartChar: Ucircumflex
Encoding: 219 219 152
Width: 508
GlyphClass: 1
Flags: W
LayerCount: 2
Fore
SplineSet
255 675 m 1,0,-1
 203 629 l 2,1,2
 195 622 195 622 190.5 620.5 c 128,-1,3
 186 619 186 619 178 619 c 2,4,-1
 170 619 l 2,5,6
 167 619 167 619 166 621 c 128,-1,7
 165 623 165 623 167 625 c 2,8,-1
 225 682 l 2,9,10
 230 687 230 687 234 689 c 128,-1,11
 238 691 238 691 246 691 c 2,12,-1
 262 691 l 2,13,14
 271 691 271 691 275 689 c 128,-1,15
 279 687 279 687 284 682 c 2,16,-1
 341 625 l 2,17,18
 343 623 343 623 342 621 c 128,-1,19
 341 619 341 619 338 619 c 2,20,-1
 330 619 l 2,21,22
 322 619 322 619 317.5 620.5 c 128,-1,23
 313 622 313 622 305 629 c 2,24,-1
 255 675 l 1,0,-1
254 -10 m 0,25,26
 78 -10 78 -10 78 194 c 2,27,-1
 78 553 l 2,28,29
 78 556 78 556 81 556 c 2,30,-1
 82 556 l 2,31,32
 90 556 90 556 97 549.5 c 128,-1,33
 104 543 104 543 104 528 c 2,34,-1
 104 191 l 2,35,36
 104 13 104 13 255 13 c 0,37,38
 328 13 328 13 366.5 59 c 128,-1,39
 405 105 405 105 405 192 c 2,40,-1
 405 553 l 2,41,42
 405 556 405 556 407 556 c 2,43,-1
 410 556 l 2,44,45
 418 556 418 556 424.5 549.5 c 128,-1,46
 431 543 431 543 431 528 c 2,47,-1
 431 197 l 2,48,49
 431 97 431 97 385.5 43.5 c 128,-1,50
 340 -10 340 -10 254 -10 c 0,25,26
EndSplineSet
EndChar

StartChar: Udieresis
Encoding: 220 220 153
Width: 508
GlyphClass: 1
Flags: W
LayerCount: 2
Fore
SplineSet
186 634 m 256,0,1
 186 642 186 642 192 647.5 c 128,-1,2
 198 653 198 653 205 653 c 0,3,4
 224 653 224 653 224 634 c 256,5,6
 224 615 224 615 205 615 c 0,7,8
 198 615 198 615 192 620.5 c 128,-1,9
 186 626 186 626 186 634 c 256,0,1
277 634 m 256,10,11
 277 653 277 653 296 653 c 256,12,13
 315 653 315 653 315 634 c 256,14,15
 315 615 315 615 296 615 c 256,16,17
 277 615 277 615 277 634 c 256,10,11
254 -10 m 0,18,19
 78 -10 78 -10 78 194 c 2,20,-1
 78 553 l 2,21,22
 78 556 78 556 81 556 c 2,23,-1
 82 556 l 2,24,25
 90 556 90 556 97 549.5 c 128,-1,26
 104 543 104 543 104 528 c 2,27,-1
 104 191 l 2,28,29
 104 13 104 13 255 13 c 0,30,31
 328 13 328 13 366.5 59 c 128,-1,32
 405 105 405 105 405 192 c 2,33,-1
 405 553 l 2,34,35
 405 556 405 556 407 556 c 2,36,-1
 410 556 l 2,37,38
 418 556 418 556 424.5 549.5 c 128,-1,39
 431 543 431 543 431 528 c 2,40,-1
 431 197 l 2,41,42
 431 97 431 97 385.5 43.5 c 128,-1,43
 340 -10 340 -10 254 -10 c 0,18,19
EndSplineSet
EndChar

StartChar: Yacute
Encoding: 221 221 154
Width: 421
GlyphClass: 1
Flags: W
LayerCount: 2
Fore
SplineSet
263 685 m 2,0,-1
 196 629 l 2,1,2
 188 622 188 622 183.5 620.5 c 128,-1,3
 179 619 179 619 171 619 c 2,4,-1
 162 619 l 2,5,6
 159 619 159 619 158 621 c 128,-1,7
 157 623 157 623 160 625 c 2,8,-1
 217 682 l 2,9,10
 222 687 222 687 226 689 c 128,-1,11
 230 691 230 691 238 691 c 2,12,-1
 261 691 l 2,13,14
 264 691 264 691 264.5 689 c 128,-1,15
 265 687 265 687 263 685 c 2,0,-1
196 223 m 1,16,-1
 15 552 l 2,17,18
 14 553 14 553 15 554.5 c 128,-1,19
 16 556 16 556 18 556 c 2,20,-1
 22 556 l 2,21,22
 33 556 33 556 39.5 551.5 c 128,-1,23
 46 547 46 547 53 533 c 2,24,-1
 209 247 l 1,25,-1
 377 547 l 2,26,27
 383 556 383 556 391 556 c 2,28,-1
 403 556 l 2,29,30
 406 556 406 556 407 554.5 c 128,-1,31
 408 553 408 553 407 552 c 2,32,-1
 222 223 l 1,33,-1
 222 3 l 2,34,35
 222 0 222 0 219 0 c 2,36,-1
 199 0 l 2,37,38
 196 0 196 0 196 3 c 2,39,-1
 196 223 l 1,16,-1
EndSplineSet
EndChar

StartChar: Thorn
Encoding: 222 222 155
Width: 475
GlyphClass: 1
Flags: W
LayerCount: 2
Fore
SplineSet
108 114 m 1,0,-1
 108 3 l 2,1,2
 108 0 108 0 105 0 c 2,3,-1
 85 0 l 2,4,5
 82 0 82 0 82 3 c 2,6,-1
 82 553 l 2,7,8
 82 556 82 556 85 556 c 2,9,-1
 87 556 l 2,10,11
 95 556 95 556 101.5 549.5 c 128,-1,12
 108 543 108 543 108 528 c 2,13,-1
 108 444 l 1,14,-1
 263 444 l 2,15,16
 339 444 339 444 386 402.5 c 128,-1,17
 433 361 433 361 433 281 c 0,18,19
 433 202 433 202 389 158 c 128,-1,20
 345 114 345 114 265 114 c 2,21,-1
 108 114 l 1,0,-1
108 137 m 1,22,-1
 263 137 l 2,23,24
 299 137 299 137 332 149.5 c 128,-1,25
 365 162 365 162 386 193.5 c 128,-1,26
 407 225 407 225 407 281 c 0,27,28
 407 347 407 347 369.5 384 c 128,-1,29
 332 421 332 421 267 421 c 2,30,-1
 108 421 l 1,31,-1
 108 137 l 1,22,-1
EndSplineSet
EndChar

StartChar: germandbls
Encoding: 223 223 156
Width: 409
GlyphClass: 1
Flags: W
LayerCount: 2
Fore
SplineSet
91 0 m 2,0,-1
 71 0 l 2,1,2
 68 0 68 0 68 3 c 2,3,-1
 68 418 l 2,4,5
 68 487 68 487 97 527 c 128,-1,6
 126 567 126 567 190 567 c 0,7,8
 240 567 240 567 272.5 537 c 128,-1,9
 305 507 305 507 305 460 c 0,10,11
 305 431 305 431 290.5 405.5 c 128,-1,12
 276 380 276 380 261.5 356 c 128,-1,13
 247 332 247 332 247 307 c 0,14,15
 247 285 247 285 266 266.5 c 128,-1,16
 285 248 285 248 310 227.5 c 128,-1,17
 335 207 335 207 354 180.5 c 128,-1,18
 373 154 373 154 373 116 c 0,19,20
 373 64 373 64 338.5 26.5 c 128,-1,21
 304 -11 304 -11 250 -11 c 0,22,23
 208 -11 208 -11 182.5 5 c 128,-1,24
 157 21 157 21 145.5 41 c 128,-1,25
 134 61 134 61 134 74 c 256,26,27
 134 87 134 87 140 87 c 0,28,29
 144 87 144 87 149 78 c 0,30,31
 165 43 165 43 189.5 27.5 c 128,-1,32
 214 12 214 12 249 12 c 0,33,34
 294 12 294 12 320.5 41 c 128,-1,35
 347 70 347 70 347 116 c 0,36,37
 347 149 347 149 328 173 c 128,-1,38
 309 197 309 197 284.5 217 c 128,-1,39
 260 237 260 237 241 257.5 c 128,-1,40
 222 278 222 278 222 305 c 0,41,42
 222 333 222 333 236.5 358 c 128,-1,43
 251 383 251 383 265.5 407.5 c 128,-1,44
 280 432 280 432 280 458 c 0,45,46
 280 499 280 499 256 521.5 c 128,-1,47
 232 544 232 544 190 544 c 0,48,49
 141 544 141 544 117.5 513 c 128,-1,50
 94 482 94 482 94 416 c 2,51,-1
 94 3 l 2,52,53
 94 0 94 0 91 0 c 2,0,-1
EndSplineSet
EndChar

StartChar: agrave
Encoding: 224 224 157
Width: 441
GlyphClass: 1
Flags: W
LayerCount: 2
Fore
SplineSet
236 440 m 2,0,-1
 168 496 l 2,1,2
 167 498 167 498 167.5 500 c 128,-1,3
 168 502 168 502 171 502 c 2,4,-1
 194 502 l 2,5,6
 202 502 202 502 206 500 c 128,-1,7
 210 498 210 498 215 493 c 2,8,-1
 273 436 l 2,9,10
 278 431 278 431 269 431 c 2,11,-1
 261 431 l 2,12,13
 252 431 252 431 248 432 c 128,-1,14
 244 433 244 433 236 440 c 2,0,-1
348 284 m 1,15,-1
 348 332 l 2,16,17
 348 348 348 348 355 354 c 128,-1,18
 362 360 362 360 369 360 c 2,19,-1
 371 360 l 2,20,21
 374 360 374 360 374 357 c 2,22,-1
 374 3 l 2,23,24
 374 0 374 0 371 0 c 2,25,-1
 351 0 l 2,26,27
 348 0 348 0 348 3 c 2,28,-1
 348 74 l 1,29,30
 334 39 334 39 299.5 15 c 128,-1,31
 265 -9 265 -9 214 -9 c 0,32,33
 166 -9 166 -9 129 15 c 128,-1,34
 92 39 92 39 71 81.5 c 128,-1,35
 50 124 50 124 50 179 c 256,36,37
 50 234 50 234 71 276 c 128,-1,38
 92 318 92 318 128.5 342.5 c 128,-1,39
 165 367 165 367 213 367 c 0,40,41
 266 367 266 367 300.5 341 c 128,-1,42
 335 315 335 315 348 284 c 1,15,-1
214 13 m 0,43,44
 279 13 279 13 314 56.5 c 128,-1,45
 349 100 349 100 349 179 c 0,46,47
 349 259 349 259 314 302 c 128,-1,48
 279 345 279 345 213 345 c 0,49,50
 150 345 150 345 113 300 c 128,-1,51
 76 255 76 255 76 179 c 256,52,53
 76 103 76 103 114 58 c 128,-1,54
 152 13 152 13 214 13 c 0,43,44
EndSplineSet
EndChar

StartChar: aacute
Encoding: 225 225 158
Width: 441
GlyphClass: 1
Flags: W
LayerCount: 2
Fore
SplineSet
273 496 m 2,0,-1
 206 440 l 2,1,2
 198 433 198 433 193.5 432 c 128,-1,3
 189 431 189 431 181 431 c 2,4,-1
 172 431 l 2,5,6
 164 431 164 431 169 436 c 2,7,-1
 227 493 l 2,8,9
 232 498 232 498 236 500 c 128,-1,10
 240 502 240 502 248 502 c 2,11,-1
 271 502 l 2,12,13
 273 502 273 502 274 500 c 128,-1,14
 275 498 275 498 273 496 c 2,0,-1
348 284 m 1,15,-1
 348 332 l 2,16,17
 348 348 348 348 355 354 c 128,-1,18
 362 360 362 360 369 360 c 2,19,-1
 371 360 l 2,20,21
 374 360 374 360 374 357 c 2,22,-1
 374 3 l 2,23,24
 374 0 374 0 371 0 c 2,25,-1
 351 0 l 2,26,27
 348 0 348 0 348 3 c 2,28,-1
 348 74 l 1,29,30
 334 39 334 39 299.5 15 c 128,-1,31
 265 -9 265 -9 214 -9 c 0,32,33
 166 -9 166 -9 129 15 c 128,-1,34
 92 39 92 39 71 81.5 c 128,-1,35
 50 124 50 124 50 179 c 256,36,37
 50 234 50 234 71 276 c 128,-1,38
 92 318 92 318 128.5 342.5 c 128,-1,39
 165 367 165 367 213 367 c 0,40,41
 266 367 266 367 300.5 341 c 128,-1,42
 335 315 335 315 348 284 c 1,15,-1
214 13 m 0,43,44
 279 13 279 13 314 56.5 c 128,-1,45
 349 100 349 100 349 179 c 0,46,47
 349 259 349 259 314 302 c 128,-1,48
 279 345 279 345 213 345 c 0,49,50
 150 345 150 345 113 300 c 128,-1,51
 76 255 76 255 76 179 c 256,52,53
 76 103 76 103 114 58 c 128,-1,54
 152 13 152 13 214 13 c 0,43,44
EndSplineSet
EndChar

StartChar: acircumflex
Encoding: 226 226 159
Width: 441
GlyphClass: 1
Flags: W
LayerCount: 2
Fore
SplineSet
222 486 m 1,0,-1
 170 440 l 2,1,2
 162 433 162 433 157.5 432 c 128,-1,3
 153 431 153 431 145 431 c 2,4,-1
 137 431 l 2,5,6
 129 431 129 431 134 436 c 2,7,-1
 192 493 l 2,8,9
 197 498 197 498 201 500 c 128,-1,10
 205 502 205 502 213 502 c 2,11,-1
 229 502 l 2,12,13
 238 502 238 502 242 500 c 128,-1,14
 246 498 246 498 251 493 c 2,15,-1
 308 436 l 2,16,17
 313 431 313 431 305 431 c 2,18,-1
 297 431 l 2,19,20
 289 431 289 431 284.5 432 c 128,-1,21
 280 433 280 433 272 440 c 2,22,-1
 222 486 l 1,0,-1
348 284 m 1,23,-1
 348 332 l 2,24,25
 348 348 348 348 355 354 c 128,-1,26
 362 360 362 360 369 360 c 2,27,-1
 371 360 l 2,28,29
 374 360 374 360 374 357 c 2,30,-1
 374 3 l 2,31,32
 374 0 374 0 371 0 c 2,33,-1
 351 0 l 2,34,35
 348 0 348 0 348 3 c 2,36,-1
 348 74 l 1,37,38
 334 39 334 39 299.5 15 c 128,-1,39
 265 -9 265 -9 214 -9 c 0,40,41
 166 -9 166 -9 129 15 c 128,-1,42
 92 39 92 39 71 81.5 c 128,-1,43
 50 124 50 124 50 179 c 256,44,45
 50 234 50 234 71 276 c 128,-1,46
 92 318 92 318 128.5 342.5 c 128,-1,47
 165 367 165 367 213 367 c 0,48,49
 266 367 266 367 300.5 341 c 128,-1,50
 335 315 335 315 348 284 c 1,23,-1
214 13 m 0,51,52
 279 13 279 13 314 56.5 c 128,-1,53
 349 100 349 100 349 179 c 0,54,55
 349 259 349 259 314 302 c 128,-1,56
 279 345 279 345 213 345 c 0,57,58
 150 345 150 345 113 300 c 128,-1,59
 76 255 76 255 76 179 c 256,60,61
 76 103 76 103 114 58 c 128,-1,62
 152 13 152 13 214 13 c 0,51,52
EndSplineSet
EndChar

StartChar: atilde
Encoding: 227 227 160
Width: 441
GlyphClass: 1
Flags: W
LayerCount: 2
Fore
SplineSet
148 427 m 2,0,-1
 132 427 l 2,1,2
 128 427 128 427 128 432 c 0,3,4
 131 475 131 475 170 475 c 0,5,6
 182 475 182 475 197.5 468.5 c 128,-1,7
 213 462 213 462 228 455 c 128,-1,8
 243 448 243 448 253 448 c 0,9,10
 270 448 270 448 273 465 c 0,11,12
 274 473 274 473 281 473 c 2,13,-1
 296 473 l 2,14,15
 301 473 301 473 300 467 c 0,16,17
 293 426 293 426 253 426 c 0,18,19
 240 426 240 426 224.5 432.5 c 128,-1,20
 209 439 209 439 195 445.5 c 128,-1,21
 181 452 181 452 170 452 c 0,22,23
 158 452 158 452 155 436 c 0,24,25
 154 427 154 427 148 427 c 2,0,-1
348 284 m 1,26,-1
 348 332 l 2,27,28
 348 348 348 348 355 354 c 128,-1,29
 362 360 362 360 369 360 c 2,30,-1
 371 360 l 2,31,32
 374 360 374 360 374 357 c 2,33,-1
 374 3 l 2,34,35
 374 0 374 0 371 0 c 2,36,-1
 351 0 l 2,37,38
 348 0 348 0 348 3 c 2,39,-1
 348 74 l 1,40,41
 334 39 334 39 299.5 15 c 128,-1,42
 265 -9 265 -9 214 -9 c 0,43,44
 166 -9 166 -9 129 15 c 128,-1,45
 92 39 92 39 71 81.5 c 128,-1,46
 50 124 50 124 50 179 c 256,47,48
 50 234 50 234 71 276 c 128,-1,49
 92 318 92 318 128.5 342.5 c 128,-1,50
 165 367 165 367 213 367 c 0,51,52
 266 367 266 367 300.5 341 c 128,-1,53
 335 315 335 315 348 284 c 1,26,-1
214 13 m 0,54,55
 279 13 279 13 314 56.5 c 128,-1,56
 349 100 349 100 349 179 c 0,57,58
 349 259 349 259 314 302 c 128,-1,59
 279 345 279 345 213 345 c 0,60,61
 150 345 150 345 113 300 c 128,-1,62
 76 255 76 255 76 179 c 256,63,64
 76 103 76 103 114 58 c 128,-1,65
 152 13 152 13 214 13 c 0,54,55
EndSplineSet
EndChar

StartChar: adieresis
Encoding: 228 228 161
Width: 441
GlyphClass: 1
Flags: W
LayerCount: 2
Fore
SplineSet
150 445 m 256,0,1
 150 464 150 464 169 464 c 256,2,3
 188 464 188 464 188 445 c 256,4,5
 188 426 188 426 169 426 c 256,6,7
 150 426 150 426 150 445 c 256,0,1
241 445 m 256,8,9
 241 464 241 464 259 464 c 0,10,11
 278 464 278 464 278 445 c 256,12,13
 278 426 278 426 259 426 c 0,14,15
 241 426 241 426 241 445 c 256,8,9
348 284 m 1,16,-1
 348 332 l 2,17,18
 348 348 348 348 355 354 c 128,-1,19
 362 360 362 360 369 360 c 2,20,-1
 371 360 l 2,21,22
 374 360 374 360 374 357 c 2,23,-1
 374 3 l 2,24,25
 374 0 374 0 371 0 c 2,26,-1
 351 0 l 2,27,28
 348 0 348 0 348 3 c 2,29,-1
 348 74 l 1,30,31
 334 39 334 39 299.5 15 c 128,-1,32
 265 -9 265 -9 214 -9 c 0,33,34
 166 -9 166 -9 129 15 c 128,-1,35
 92 39 92 39 71 81.5 c 128,-1,36
 50 124 50 124 50 179 c 256,37,38
 50 234 50 234 71 276 c 128,-1,39
 92 318 92 318 128.5 342.5 c 128,-1,40
 165 367 165 367 213 367 c 0,41,42
 266 367 266 367 300.5 341 c 128,-1,43
 335 315 335 315 348 284 c 1,16,-1
214 13 m 0,44,45
 279 13 279 13 314 56.5 c 128,-1,46
 349 100 349 100 349 179 c 0,47,48
 349 259 349 259 314 302 c 128,-1,49
 279 345 279 345 213 345 c 0,50,51
 150 345 150 345 113 300 c 128,-1,52
 76 255 76 255 76 179 c 256,53,54
 76 103 76 103 114 58 c 128,-1,55
 152 13 152 13 214 13 c 0,44,45
EndSplineSet
EndChar

StartChar: aring
Encoding: 229 229 162
Width: 441
GlyphClass: 1
Flags: W
LayerCount: 2
Fore
SplineSet
162 463 m 0,0,1
 162 486 162 486 178.5 502.5 c 128,-1,2
 195 519 195 519 217 519 c 0,3,4
 240 519 240 519 256 502.5 c 128,-1,5
 272 486 272 486 272 463 c 0,6,7
 272 441 272 441 255.5 425 c 128,-1,8
 239 409 239 409 217 409 c 256,9,10
 195 409 195 409 178.5 425 c 128,-1,11
 162 441 162 441 162 463 c 0,0,1
217 428 m 256,12,13
 232 428 232 428 241.5 438 c 128,-1,14
 251 448 251 448 251 463 c 0,15,16
 251 479 251 479 241.5 489 c 128,-1,17
 232 499 232 499 217 499 c 256,18,19
 202 499 202 499 192.5 489 c 128,-1,20
 183 479 183 479 183 463 c 0,21,22
 183 448 183 448 192.5 438 c 128,-1,23
 202 428 202 428 217 428 c 256,12,13
348 284 m 1,24,-1
 348 332 l 2,25,26
 348 348 348 348 355 354 c 128,-1,27
 362 360 362 360 369 360 c 2,28,-1
 371 360 l 2,29,30
 374 360 374 360 374 357 c 2,31,-1
 374 3 l 2,32,33
 374 0 374 0 371 0 c 2,34,-1
 351 0 l 2,35,36
 348 0 348 0 348 3 c 2,37,-1
 348 74 l 1,38,39
 334 39 334 39 299.5 15 c 128,-1,40
 265 -9 265 -9 214 -9 c 0,41,42
 166 -9 166 -9 129 15 c 128,-1,43
 92 39 92 39 71 81.5 c 128,-1,44
 50 124 50 124 50 179 c 256,45,46
 50 234 50 234 71 276 c 128,-1,47
 92 318 92 318 128.5 342.5 c 128,-1,48
 165 367 165 367 213 367 c 0,49,50
 266 367 266 367 300.5 341 c 128,-1,51
 335 315 335 315 348 284 c 1,24,-1
214 13 m 0,52,53
 279 13 279 13 314 56.5 c 128,-1,54
 349 100 349 100 349 179 c 0,55,56
 349 259 349 259 314 302 c 128,-1,57
 279 345 279 345 213 345 c 0,58,59
 150 345 150 345 113 300 c 128,-1,60
 76 255 76 255 76 179 c 256,61,62
 76 103 76 103 114 58 c 128,-1,63
 152 13 152 13 214 13 c 0,52,53
EndSplineSet
EndChar

StartChar: ae
Encoding: 230 230 163
Width: 689
GlyphClass: 1
Flags: W
LayerCount: 2
Fore
SplineSet
373 71 m 1,0,-1
 373 3 l 2,1,2
 373 0 373 0 370 0 c 2,3,-1
 350 0 l 2,4,5
 347 0 347 0 347 3 c 2,6,-1
 347 74 l 1,7,8
 333 39 333 39 299 15 c 128,-1,9
 265 -9 265 -9 213 -9 c 0,10,11
 165 -9 165 -9 128 15 c 128,-1,12
 91 39 91 39 70 81.5 c 128,-1,13
 49 124 49 124 49 179 c 256,14,15
 49 234 49 234 70 276 c 128,-1,16
 91 318 91 318 128 342.5 c 128,-1,17
 165 367 165 367 212 367 c 0,18,19
 265 367 265 367 300 341 c 128,-1,20
 335 315 335 315 347 284 c 1,21,-1
 347 332 l 2,22,23
 347 348 347 348 354 354 c 128,-1,24
 361 360 361 360 368 360 c 2,25,-1
 370 360 l 2,26,27
 373 360 373 360 373 357 c 2,28,-1
 373 284 l 1,29,30
 392 323 392 323 425 345 c 128,-1,31
 458 367 458 367 501 367 c 0,32,33
 565 367 565 367 603.5 320.5 c 128,-1,34
 642 274 642 274 642 203 c 2,35,-1
 642 183 l 2,36,37
 641 172 641 172 628 172 c 2,38,-1
 373 172 l 1,39,40
 375 96 375 96 409.5 54.5 c 128,-1,41
 444 13 444 13 506 13 c 0,42,43
 550 13 550 13 580 31 c 128,-1,44
 610 49 610 49 623 81 c 0,45,46
 628 89 628 89 633 89 c 0,47,48
 636 89 636 89 638 85.5 c 128,-1,49
 640 82 640 82 640 78 c 0,50,51
 640 66 640 66 627 45.5 c 128,-1,52
 614 25 614 25 585 8 c 128,-1,53
 556 -9 556 -9 506 -9 c 0,54,55
 460 -9 460 -9 426 12 c 128,-1,56
 392 33 392 33 373 71 c 1,0,-1
213 13 m 0,57,58
 278 13 278 13 313 56.5 c 128,-1,59
 348 100 348 100 348 179 c 0,60,61
 348 259 348 259 313 302 c 128,-1,62
 278 345 278 345 212 345 c 0,63,64
 150 345 150 345 112.5 300 c 128,-1,65
 75 255 75 255 75 179 c 256,66,67
 75 103 75 103 113 58 c 128,-1,68
 151 13 151 13 213 13 c 0,57,58
373 194 m 1,69,-1
 617 194 l 1,70,71
 619 262 619 262 586.5 303.5 c 128,-1,72
 554 345 554 345 501 345 c 0,73,74
 445 345 445 345 411.5 305 c 128,-1,75
 378 265 378 265 373 194 c 1,69,-1
EndSplineSet
EndChar

StartChar: ccedilla
Encoding: 231 231 164
Width: 359
GlyphClass: 1
Flags: W
LayerCount: 2
Fore
SplineSet
225 -8 m 1,0,-1
 190 -79 l 2,1,2
 186 -88 186 -88 168 -88 c 2,3,-1
 151 -88 l 2,4,5
 145 -88 145 -88 148 -82 c 2,6,-1
 195 -9 l 1,7,8
 127 -4 127 -4 88 46 c 128,-1,9
 49 96 49 96 49 178 c 0,10,11
 49 265 49 265 95 316 c 128,-1,12
 141 367 141 367 214 367 c 0,13,14
 243 367 243 367 263 362 c 128,-1,15
 283 357 283 357 305 347 c 0,16,17
 319 340 319 340 323 334 c 128,-1,18
 327 328 327 328 325 323 c 2,19,-1
 323 319 l 2,20,21
 321 314 321 314 318 314 c 0,22,23
 316 314 316 314 313.5 315.5 c 128,-1,24
 311 317 311 317 308 318 c 0,25,26
 288 332 288 332 266 338.5 c 128,-1,27
 244 345 244 345 214 345 c 0,28,29
 150 345 150 345 112.5 301 c 128,-1,30
 75 257 75 257 75 178 c 0,31,32
 75 100 75 100 111.5 56.5 c 128,-1,33
 148 13 148 13 211 13 c 0,34,35
 252 13 252 13 278.5 31.5 c 128,-1,36
 305 50 305 50 318 82 c 0,37,38
 321 86 321 86 322.5 88.5 c 128,-1,39
 324 91 324 91 327 91 c 0,40,41
 333 91 333 91 333 81 c 0,42,43
 333 69 333 69 322.5 49 c 128,-1,44
 312 29 312 29 288 12.5 c 128,-1,45
 264 -4 264 -4 225 -8 c 1,0,-1
EndSplineSet
EndChar

StartChar: egrave
Encoding: 232 232 165
Width: 391
GlyphClass: 1
Flags: W
LayerCount: 2
Fore
SplineSet
211 440 m 2,0,-1
 143 496 l 2,1,2
 142 498 142 498 142.5 500 c 128,-1,3
 143 502 143 502 146 502 c 2,4,-1
 169 502 l 2,5,6
 177 502 177 502 181 500 c 128,-1,7
 185 498 185 498 190 493 c 2,8,-1
 248 436 l 2,9,10
 253 431 253 431 244 431 c 2,11,-1
 236 431 l 2,12,13
 227 431 227 431 223 432 c 128,-1,14
 219 433 219 433 211 440 c 2,0,-1
331 172 m 2,15,-1
 76 172 l 1,16,17
 78 96 78 96 112.5 54.5 c 128,-1,18
 147 13 147 13 209 13 c 0,19,20
 253 13 253 13 283 31 c 128,-1,21
 313 49 313 49 326 81 c 0,22,23
 330 89 330 89 335 89 c 0,24,25
 339 89 339 89 340.5 85.5 c 128,-1,26
 342 82 342 82 342 78 c 0,27,28
 342 66 342 66 329 45.5 c 128,-1,29
 316 25 316 25 287 8 c 128,-1,30
 258 -9 258 -9 208 -9 c 0,31,32
 135 -9 135 -9 92.5 41.5 c 128,-1,33
 50 92 50 92 50 178 c 0,34,35
 50 234 50 234 69.5 276.5 c 128,-1,36
 89 319 89 319 123.5 343 c 128,-1,37
 158 367 158 367 204 367 c 0,38,39
 246 367 246 367 278 345.5 c 128,-1,40
 310 324 310 324 327.5 287 c 128,-1,41
 345 250 345 250 345 203 c 0,42,43
 345 196 345 196 345 193 c 128,-1,44
 345 190 345 190 344 183 c 0,45,46
 343 172 343 172 331 172 c 2,15,-1
76 194 m 1,47,-1
 319 194 l 1,48,49
 321 262 321 262 288.5 303.5 c 128,-1,50
 256 345 256 345 203 345 c 0,51,52
 147 345 147 345 114 305 c 128,-1,53
 81 265 81 265 76 194 c 1,47,-1
EndSplineSet
EndChar

StartChar: eacute
Encoding: 233 233 166
Width: 391
GlyphClass: 1
Flags: W
LayerCount: 2
Fore
SplineSet
253 496 m 2,0,-1
 186 440 l 2,1,2
 178 433 178 433 173.5 432 c 128,-1,3
 169 431 169 431 161 431 c 2,4,-1
 152 431 l 2,5,6
 144 431 144 431 149 436 c 2,7,-1
 207 493 l 2,8,9
 212 498 212 498 216 500 c 128,-1,10
 220 502 220 502 228 502 c 2,11,-1
 251 502 l 2,12,13
 253 502 253 502 254 500 c 128,-1,14
 255 498 255 498 253 496 c 2,0,-1
331 172 m 2,15,-1
 76 172 l 1,16,17
 78 96 78 96 112.5 54.5 c 128,-1,18
 147 13 147 13 209 13 c 0,19,20
 253 13 253 13 283 31 c 128,-1,21
 313 49 313 49 326 81 c 0,22,23
 330 89 330 89 335 89 c 0,24,25
 339 89 339 89 340.5 85.5 c 128,-1,26
 342 82 342 82 342 78 c 0,27,28
 342 66 342 66 329 45.5 c 128,-1,29
 316 25 316 25 287 8 c 128,-1,30
 258 -9 258 -9 208 -9 c 0,31,32
 135 -9 135 -9 92.5 41.5 c 128,-1,33
 50 92 50 92 50 178 c 0,34,35
 50 234 50 234 69.5 276.5 c 128,-1,36
 89 319 89 319 123.5 343 c 128,-1,37
 158 367 158 367 204 367 c 0,38,39
 246 367 246 367 278 345.5 c 128,-1,40
 310 324 310 324 327.5 287 c 128,-1,41
 345 250 345 250 345 203 c 0,42,43
 345 196 345 196 345 193 c 128,-1,44
 345 190 345 190 344 183 c 0,45,46
 343 172 343 172 331 172 c 2,15,-1
76 194 m 1,47,-1
 319 194 l 1,48,49
 321 262 321 262 288.5 303.5 c 128,-1,50
 256 345 256 345 203 345 c 0,51,52
 147 345 147 345 114 305 c 128,-1,53
 81 265 81 265 76 194 c 1,47,-1
EndSplineSet
EndChar

StartChar: ecircumflex
Encoding: 234 234 167
Width: 391
GlyphClass: 1
Flags: W
LayerCount: 2
Fore
SplineSet
204 486 m 1,0,-1
 152 440 l 2,1,2
 144 433 144 433 139.5 432 c 128,-1,3
 135 431 135 431 127 431 c 2,4,-1
 119 431 l 2,5,6
 117 431 117 431 115.5 432.5 c 128,-1,7
 114 434 114 434 117 436 c 2,8,-1
 174 493 l 2,9,10
 179 498 179 498 183 500 c 128,-1,11
 187 502 187 502 195 502 c 2,12,-1
 212 502 l 2,13,14
 220 502 220 502 224.5 500 c 128,-1,15
 229 498 229 498 233 493 c 2,16,-1
 291 436 l 2,17,18
 294 431 294 431 287 431 c 2,19,-1
 279 431 l 2,20,21
 271 431 271 431 266.5 432 c 128,-1,22
 262 433 262 433 254 440 c 2,23,-1
 204 486 l 1,0,-1
331 172 m 2,24,-1
 76 172 l 1,25,26
 78 96 78 96 112.5 54.5 c 128,-1,27
 147 13 147 13 209 13 c 0,28,29
 253 13 253 13 283 31 c 128,-1,30
 313 49 313 49 326 81 c 0,31,32
 330 89 330 89 335 89 c 0,33,34
 339 89 339 89 340.5 85.5 c 128,-1,35
 342 82 342 82 342 78 c 0,36,37
 342 66 342 66 329 45.5 c 128,-1,38
 316 25 316 25 287 8 c 128,-1,39
 258 -9 258 -9 208 -9 c 0,40,41
 135 -9 135 -9 92.5 41.5 c 128,-1,42
 50 92 50 92 50 178 c 0,43,44
 50 234 50 234 69.5 276.5 c 128,-1,45
 89 319 89 319 123.5 343 c 128,-1,46
 158 367 158 367 204 367 c 0,47,48
 246 367 246 367 278 345.5 c 128,-1,49
 310 324 310 324 327.5 287 c 128,-1,50
 345 250 345 250 345 203 c 0,51,52
 345 196 345 196 345 193 c 128,-1,53
 345 190 345 190 344 183 c 0,54,55
 343 172 343 172 331 172 c 2,24,-1
76 194 m 1,56,-1
 319 194 l 1,57,58
 321 262 321 262 288.5 303.5 c 128,-1,59
 256 345 256 345 203 345 c 0,60,61
 147 345 147 345 114 305 c 128,-1,62
 81 265 81 265 76 194 c 1,56,-1
EndSplineSet
EndChar

StartChar: edieresis
Encoding: 235 235 168
Width: 391
GlyphClass: 1
Flags: W
LayerCount: 2
Fore
SplineSet
137 445 m 256,0,1
 137 453 137 453 143 458.5 c 128,-1,2
 149 464 149 464 156 464 c 0,3,4
 175 464 175 464 175 445 c 256,5,6
 175 426 175 426 156 426 c 0,7,8
 149 426 149 426 143 431.5 c 128,-1,9
 137 437 137 437 137 445 c 256,0,1
228 445 m 256,10,11
 228 464 228 464 247 464 c 256,12,13
 266 464 266 464 266 445 c 256,14,15
 266 426 266 426 247 426 c 256,16,17
 228 426 228 426 228 445 c 256,10,11
331 172 m 2,18,-1
 76 172 l 1,19,20
 78 96 78 96 112.5 54.5 c 128,-1,21
 147 13 147 13 209 13 c 0,22,23
 253 13 253 13 283 31 c 128,-1,24
 313 49 313 49 326 81 c 0,25,26
 330 89 330 89 335 89 c 0,27,28
 339 89 339 89 340.5 85.5 c 128,-1,29
 342 82 342 82 342 78 c 0,30,31
 342 66 342 66 329 45.5 c 128,-1,32
 316 25 316 25 287 8 c 128,-1,33
 258 -9 258 -9 208 -9 c 0,34,35
 135 -9 135 -9 92.5 41.5 c 128,-1,36
 50 92 50 92 50 178 c 0,37,38
 50 234 50 234 69.5 276.5 c 128,-1,39
 89 319 89 319 123.5 343 c 128,-1,40
 158 367 158 367 204 367 c 0,41,42
 246 367 246 367 278 345.5 c 128,-1,43
 310 324 310 324 327.5 287 c 128,-1,44
 345 250 345 250 345 203 c 0,45,46
 345 196 345 196 345 193 c 128,-1,47
 345 190 345 190 344 183 c 0,48,49
 343 172 343 172 331 172 c 2,18,-1
76 194 m 1,50,-1
 319 194 l 1,51,52
 321 262 321 262 288.5 303.5 c 128,-1,53
 256 345 256 345 203 345 c 0,54,55
 147 345 147 345 114 305 c 128,-1,56
 81 265 81 265 76 194 c 1,50,-1
EndSplineSet
EndChar

StartChar: igrave
Encoding: 236 236 169
Width: 161
GlyphClass: 1
Flags: W
LayerCount: 2
Fore
SplineSet
96 440 m 2,0,-1
 29 496 l 2,1,2
 28 498 28 498 28.5 500 c 128,-1,3
 29 502 29 502 32 502 c 2,4,-1
 55 502 l 2,5,6
 63 502 63 502 67 500 c 128,-1,7
 71 498 71 498 76 493 c 2,8,-1
 134 436 l 2,9,10
 137 431 137 431 130 431 c 2,11,-1
 121 431 l 2,12,13
 113 431 113 431 109 432 c 128,-1,14
 105 433 105 433 96 440 c 2,0,-1
69 3 m 2,15,-1
 69 357 l 2,16,17
 69 360 69 360 72 360 c 2,18,-1
 74 360 l 2,19,20
 82 360 82 360 88.5 354 c 128,-1,21
 95 348 95 348 95 332 c 2,22,-1
 95 3 l 2,23,24
 95 0 95 0 92 0 c 2,25,-1
 72 0 l 2,26,27
 69 0 69 0 69 3 c 2,15,-1
EndSplineSet
EndChar

StartChar: iacute
Encoding: 237 237 170
Width: 161
GlyphClass: 1
Flags: W
LayerCount: 2
Fore
SplineSet
134 496 m 2,0,-1
 67 440 l 2,1,2
 59 433 59 433 54.5 432 c 128,-1,3
 50 431 50 431 42 431 c 2,4,-1
 33 431 l 2,5,6
 25 431 25 431 30 436 c 2,7,-1
 88 493 l 2,8,9
 93 498 93 498 97 500 c 128,-1,10
 101 502 101 502 109 502 c 2,11,-1
 131 502 l 2,12,13
 134 502 134 502 135 500 c 128,-1,14
 136 498 136 498 134 496 c 2,0,-1
69 3 m 2,15,-1
 69 357 l 2,16,17
 69 360 69 360 72 360 c 2,18,-1
 74 360 l 2,19,20
 82 360 82 360 88.5 354 c 128,-1,21
 95 348 95 348 95 332 c 2,22,-1
 95 3 l 2,23,24
 95 0 95 0 92 0 c 2,25,-1
 72 0 l 2,26,27
 69 0 69 0 69 3 c 2,15,-1
EndSplineSet
EndChar

StartChar: icircumflex
Encoding: 238 238 171
Width: 161
GlyphClass: 1
Flags: W
LayerCount: 2
Fore
SplineSet
83 486 m 1,0,-1
 31 440 l 2,1,2
 23 433 23 433 18.5 432 c 128,-1,3
 14 431 14 431 6 431 c 2,4,-1
 -2 431 l 2,5,6
 -10 431 -10 431 -5 436 c 2,7,-1
 53 493 l 2,8,9
 58 498 58 498 62 500 c 128,-1,10
 66 502 66 502 74 502 c 2,11,-1
 90 502 l 2,12,13
 98 502 98 502 102.5 500 c 128,-1,14
 107 498 107 498 111 493 c 2,15,-1
 169 436 l 2,16,17
 174 431 174 431 166 431 c 2,18,-1
 158 431 l 2,19,20
 150 431 150 431 145.5 432 c 128,-1,21
 141 433 141 433 133 440 c 2,22,-1
 83 486 l 1,0,-1
70 3 m 2,23,-1
 70 357 l 2,24,25
 70 360 70 360 73 360 c 2,26,-1
 75 360 l 2,27,28
 82 360 82 360 88.5 354 c 128,-1,29
 95 348 95 348 95 332 c 2,30,-1
 95 3 l 2,31,32
 95 0 95 0 93 0 c 2,33,-1
 73 0 l 2,34,35
 70 0 70 0 70 3 c 2,23,-1
EndSplineSet
EndChar

StartChar: idieresis
Encoding: 239 239 172
Width: 161
GlyphClass: 1
Flags: W
LayerCount: 2
Fore
SplineSet
17 445 m 256,0,1
 17 464 17 464 36 464 c 256,2,3
 55 464 55 464 55 445 c 256,4,5
 55 426 55 426 36 426 c 256,6,7
 17 426 17 426 17 445 c 256,0,1
108 445 m 256,8,9
 108 464 108 464 126 464 c 0,10,11
 145 464 145 464 145 445 c 256,12,13
 145 426 145 426 126 426 c 0,14,15
 108 426 108 426 108 445 c 256,8,9
68 3 m 2,16,-1
 68 357 l 2,17,18
 68 360 68 360 71 360 c 2,19,-1
 73 360 l 2,20,21
 81 360 81 360 87.5 354 c 128,-1,22
 94 348 94 348 94 332 c 2,23,-1
 94 3 l 2,24,25
 94 0 94 0 91 0 c 2,26,-1
 71 0 l 2,27,28
 68 0 68 0 68 3 c 2,16,-1
EndSplineSet
EndChar

StartChar: eth
Encoding: 240 240 173
Width: 427
GlyphClass: 1
Flags: W
LayerCount: 2
Fore
SplineSet
280 348 m 1,0,-1
 198 461 l 1,1,-1
 120 419 l 2,2,3
 116 417 116 417 115 421 c 2,4,-1
 107 433 l 2,5,6
 106 437 106 437 107 438 c 2,7,-1
 186 480 l 1,8,-1
 135 551 l 2,9,10
 134 553 134 553 135 554.5 c 128,-1,11
 136 556 136 556 137 556 c 2,12,-1
 141 556 l 2,13,14
 156 556 156 556 163.5 549 c 128,-1,15
 171 542 171 542 185 523 c 2,16,-1
 206 492 l 1,17,-1
 270 526 l 2,18,19
 274 528 274 528 276 524 c 2,20,-1
 285 511 l 2,21,22
 286 508 286 508 284 507 c 2,23,-1
 220 473 l 1,24,-1
 340 306 l 2,25,26
 357 282 357 282 367 250.5 c 128,-1,27
 377 219 377 219 377 179 c 0,28,29
 377 96 377 96 334 43.5 c 128,-1,30
 291 -9 291 -9 212 -9 c 0,31,32
 138 -9 138 -9 93.5 41.5 c 128,-1,33
 49 92 49 92 49 178 c 0,34,35
 49 262 49 262 93 311.5 c 128,-1,36
 137 361 137 361 211 361 c 0,37,38
 232 361 232 361 249 357.5 c 128,-1,39
 266 354 266 354 280 348 c 1,0,-1
212 13 m 0,40,41
 277 13 277 13 314.5 57.5 c 128,-1,42
 352 102 352 102 352 178 c 0,43,44
 352 221 352 221 337.5 257.5 c 128,-1,45
 323 294 323 294 292.5 316.5 c 128,-1,46
 262 339 262 339 212 339 c 0,47,48
 148 339 148 339 112 296.5 c 128,-1,49
 76 254 76 254 76 179 c 0,50,51
 76 103 76 103 113 58 c 128,-1,52
 150 13 150 13 212 13 c 0,40,41
EndSplineSet
EndChar

StartChar: ntilde
Encoding: 241 241 174
Width: 427
GlyphClass: 1
Flags: W
LayerCount: 2
Fore
SplineSet
147 427 m 2,0,-1
 131 427 l 2,1,2
 127 427 127 427 127 432 c 0,3,4
 130 475 130 475 169 475 c 0,5,6
 181 475 181 475 196.5 468.5 c 128,-1,7
 212 462 212 462 227 455 c 128,-1,8
 242 448 242 448 252 448 c 0,9,10
 269 448 269 448 272 465 c 0,11,12
 275 473 275 473 280 473 c 2,13,-1
 295 473 l 2,14,15
 300 473 300 473 299 467 c 0,16,17
 292 426 292 426 252 426 c 0,18,19
 239 426 239 426 223.5 432.5 c 128,-1,20
 208 439 208 439 194 445.5 c 128,-1,21
 180 452 180 452 169 452 c 0,22,23
 157 452 157 452 154 436 c 0,24,25
 153 427 153 427 147 427 c 2,0,-1
94 332 m 2,26,-1
 94 299 l 1,27,28
 114 331 114 331 146.5 349 c 128,-1,29
 179 367 179 367 224 367 c 0,30,31
 288 367 288 367 325 329 c 128,-1,32
 362 291 362 291 362 227 c 2,33,-1
 362 3 l 2,34,35
 362 0 362 0 359 0 c 2,36,-1
 339 0 l 2,37,38
 336 0 336 0 336 3 c 2,39,-1
 336 224 l 2,40,41
 336 281 336 281 306.5 313 c 128,-1,42
 277 345 277 345 222 345 c 256,43,44
 167 345 167 345 130.5 312 c 128,-1,45
 94 279 94 279 94 217 c 2,46,-1
 94 3 l 2,47,48
 94 0 94 0 91 0 c 2,49,-1
 71 0 l 2,50,51
 68 0 68 0 68 3 c 2,52,-1
 68 357 l 2,53,54
 68 360 68 360 71 360 c 2,55,-1
 73 360 l 2,56,57
 80 360 80 360 87 354 c 128,-1,58
 94 348 94 348 94 332 c 2,26,-1
EndSplineSet
EndChar

StartChar: ograve
Encoding: 242 242 175
Width: 427
GlyphClass: 1
Flags: W
LayerCount: 2
Fore
SplineSet
228 440 m 2,0,-1
 161 496 l 2,1,2
 159 498 159 498 160 500 c 128,-1,3
 161 502 161 502 163 502 c 2,4,-1
 186 502 l 2,5,6
 194 502 194 502 198 500 c 128,-1,7
 202 498 202 498 207 493 c 2,8,-1
 265 436 l 2,9,10
 270 431 270 431 262 431 c 2,11,-1
 253 431 l 2,12,13
 245 431 245 431 240.5 432 c 128,-1,14
 236 433 236 433 228 440 c 2,0,-1
212 -9 m 0,15,16
 138 -9 138 -9 93.5 41.5 c 128,-1,17
 49 92 49 92 49 178 c 256,18,19
 49 264 49 264 93.5 315.5 c 128,-1,20
 138 367 138 367 211 367 c 0,21,22
 288 367 288 367 332.5 316 c 128,-1,23
 377 265 377 265 377 179 c 0,24,25
 377 94 377 94 332.5 42.5 c 128,-1,26
 288 -9 288 -9 212 -9 c 0,15,16
211 13 m 0,27,28
 276 13 276 13 313.5 58 c 128,-1,29
 351 103 351 103 351 178 c 0,30,31
 351 254 351 254 313.5 299.5 c 128,-1,32
 276 345 276 345 211 345 c 0,33,34
 149 345 149 345 112 300.5 c 128,-1,35
 75 256 75 256 75 179 c 0,36,37
 75 103 75 103 112 58 c 128,-1,38
 149 13 149 13 211 13 c 0,27,28
EndSplineSet
EndChar

StartChar: oacute
Encoding: 243 243 176
Width: 427
GlyphClass: 1
Flags: W
LayerCount: 2
Fore
SplineSet
266 496 m 2,0,-1
 198 440 l 2,1,2
 190 433 190 433 186 432 c 128,-1,3
 182 431 182 431 173 431 c 2,4,-1
 165 431 l 2,5,6
 162 431 162 431 160.5 432.5 c 128,-1,7
 159 434 159 434 162 436 c 2,8,-1
 219 493 l 2,9,10
 224 498 224 498 228 500 c 128,-1,11
 232 502 232 502 240 502 c 2,12,-1
 263 502 l 2,13,14
 266 502 266 502 267 500 c 128,-1,15
 268 498 268 498 266 496 c 2,0,-1
212 -9 m 0,16,17
 138 -9 138 -9 93.5 41.5 c 128,-1,18
 49 92 49 92 49 178 c 256,19,20
 49 264 49 264 93.5 315.5 c 128,-1,21
 138 367 138 367 211 367 c 0,22,23
 288 367 288 367 332.5 316 c 128,-1,24
 377 265 377 265 377 179 c 0,25,26
 377 94 377 94 332.5 42.5 c 128,-1,27
 288 -9 288 -9 212 -9 c 0,16,17
211 13 m 0,28,29
 276 13 276 13 313.5 58 c 128,-1,30
 351 103 351 103 351 178 c 0,31,32
 351 254 351 254 313.5 299.5 c 128,-1,33
 276 345 276 345 211 345 c 0,34,35
 149 345 149 345 112 300.5 c 128,-1,36
 75 256 75 256 75 179 c 0,37,38
 75 103 75 103 112 58 c 128,-1,39
 149 13 149 13 211 13 c 0,28,29
EndSplineSet
EndChar

StartChar: ocircumflex
Encoding: 244 244 177
Width: 427
GlyphClass: 1
Flags: W
LayerCount: 2
Fore
SplineSet
214 486 m 1,0,-1
 162 440 l 2,1,2
 154 433 154 433 149.5 432 c 128,-1,3
 145 431 145 431 137 431 c 2,4,-1
 130 431 l 2,5,6
 127 431 127 431 125.5 432.5 c 128,-1,7
 124 434 124 434 127 436 c 2,8,-1
 184 493 l 2,9,10
 189 498 189 498 193 500 c 128,-1,11
 197 502 197 502 205 502 c 2,12,-1
 222 502 l 2,13,14
 230 502 230 502 234.5 500 c 128,-1,15
 239 498 239 498 243 493 c 2,16,-1
 301 436 l 2,17,18
 304 431 304 431 297 431 c 2,19,-1
 290 431 l 2,20,21
 281 431 281 431 277 432 c 128,-1,22
 273 433 273 433 265 440 c 2,23,-1
 214 486 l 1,0,-1
212 -9 m 0,24,25
 138 -9 138 -9 93.5 41.5 c 128,-1,26
 49 92 49 92 49 178 c 256,27,28
 49 264 49 264 93.5 315.5 c 128,-1,29
 138 367 138 367 211 367 c 0,30,31
 288 367 288 367 332.5 316 c 128,-1,32
 377 265 377 265 377 179 c 0,33,34
 377 94 377 94 332.5 42.5 c 128,-1,35
 288 -9 288 -9 212 -9 c 0,24,25
211 13 m 0,36,37
 276 13 276 13 313.5 58 c 128,-1,38
 351 103 351 103 351 178 c 0,39,40
 351 254 351 254 313.5 299.5 c 128,-1,41
 276 345 276 345 211 345 c 0,42,43
 149 345 149 345 112 300.5 c 128,-1,44
 75 256 75 256 75 179 c 0,45,46
 75 103 75 103 112 58 c 128,-1,47
 149 13 149 13 211 13 c 0,36,37
EndSplineSet
EndChar

StartChar: otilde
Encoding: 245 245 178
Width: 427
GlyphClass: 1
Flags: W
LayerCount: 2
Fore
SplineSet
147 427 m 2,0,-1
 131 427 l 2,1,2
 127 427 127 427 127 432 c 0,3,4
 128 452 128 452 139.5 463.5 c 128,-1,5
 151 475 151 475 168 475 c 0,6,7
 180 475 180 475 195.5 468.5 c 128,-1,8
 211 462 211 462 226.5 455 c 128,-1,9
 242 448 242 448 252 448 c 0,10,11
 269 448 269 448 272 465 c 0,12,13
 273 473 273 473 279 473 c 2,14,-1
 295 473 l 2,15,16
 300 473 300 473 298 467 c 0,17,18
 291 426 291 426 252 426 c 0,19,20
 238 426 238 426 223 432.5 c 128,-1,21
 208 439 208 439 193.5 445.5 c 128,-1,22
 179 452 179 452 168 452 c 256,23,24
 157 452 157 452 153 436 c 0,25,26
 152 427 152 427 147 427 c 2,0,-1
212 -9 m 0,27,28
 138 -9 138 -9 93.5 41.5 c 128,-1,29
 49 92 49 92 49 178 c 256,30,31
 49 264 49 264 93.5 315.5 c 128,-1,32
 138 367 138 367 211 367 c 0,33,34
 288 367 288 367 332.5 316 c 128,-1,35
 377 265 377 265 377 179 c 0,36,37
 377 94 377 94 332.5 42.5 c 128,-1,38
 288 -9 288 -9 212 -9 c 0,27,28
211 13 m 0,39,40
 276 13 276 13 313.5 58 c 128,-1,41
 351 103 351 103 351 178 c 0,42,43
 351 254 351 254 313.5 299.5 c 128,-1,44
 276 345 276 345 211 345 c 0,45,46
 149 345 149 345 112 300.5 c 128,-1,47
 75 256 75 256 75 179 c 0,48,49
 75 103 75 103 112 58 c 128,-1,50
 149 13 149 13 211 13 c 0,39,40
EndSplineSet
EndChar

StartChar: odieresis
Encoding: 246 246 179
Width: 427
GlyphClass: 1
Flags: W
LayerCount: 2
Fore
SplineSet
150 445 m 256,0,1
 150 464 150 464 168 464 c 0,2,3
 187 464 187 464 187 445 c 256,4,5
 187 426 187 426 168 426 c 0,6,7
 150 426 150 426 150 445 c 256,0,1
240 445 m 256,8,9
 240 464 240 464 259 464 c 256,10,11
 278 464 278 464 278 445 c 256,12,13
 278 426 278 426 259 426 c 256,14,15
 240 426 240 426 240 445 c 256,8,9
212 -9 m 0,16,17
 138 -9 138 -9 93.5 41.5 c 128,-1,18
 49 92 49 92 49 178 c 256,19,20
 49 264 49 264 93.5 315.5 c 128,-1,21
 138 367 138 367 211 367 c 0,22,23
 288 367 288 367 332.5 316 c 128,-1,24
 377 265 377 265 377 179 c 0,25,26
 377 94 377 94 332.5 42.5 c 128,-1,27
 288 -9 288 -9 212 -9 c 0,16,17
211 13 m 0,28,29
 276 13 276 13 313.5 58 c 128,-1,30
 351 103 351 103 351 178 c 0,31,32
 351 254 351 254 313.5 299.5 c 128,-1,33
 276 345 276 345 211 345 c 0,34,35
 149 345 149 345 112 300.5 c 128,-1,36
 75 256 75 256 75 179 c 0,37,38
 75 103 75 103 112 58 c 128,-1,39
 149 13 149 13 211 13 c 0,28,29
EndSplineSet
EndChar

StartChar: divide
Encoding: 247 247 180
Width: 388
GlyphClass: 1
Flags: W
LayerCount: 2
Fore
SplineSet
163 402 m 0,0,1
 163 414 163 414 172 423.5 c 128,-1,2
 181 433 181 433 193 433 c 0,3,4
 206 433 206 433 215 423.5 c 128,-1,5
 224 414 224 414 224 402 c 0,6,7
 224 389 224 389 215 380 c 128,-1,8
 206 371 206 371 193 371 c 0,9,10
 181 371 181 371 172 380 c 128,-1,11
 163 389 163 389 163 402 c 0,0,1
335 262 m 2,12,-1
 49 262 l 2,13,14
 46 262 46 262 46 266 c 2,15,-1
 46 282 l 2,16,17
 46 285 46 285 49 285 c 2,18,-1
 328 285 l 2,19,20
 342 285 342 285 342 271 c 2,21,-1
 342 268 l 2,22,23
 342 262 342 262 335 262 c 2,12,-1
163 145 m 256,24,25
 163 158 163 158 172 167.5 c 128,-1,26
 181 177 181 177 193 177 c 0,27,28
 206 177 206 177 215 167.5 c 128,-1,29
 224 158 224 158 224 145 c 256,30,31
 224 132 224 132 215 123 c 128,-1,32
 206 114 206 114 193 114 c 0,33,34
 181 114 181 114 172 123 c 128,-1,35
 163 132 163 132 163 145 c 256,24,25
EndSplineSet
EndChar

StartChar: oslash
Encoding: 248 248 181
Width: 427
GlyphClass: 1
Flags: W
LayerCount: 2
Fore
SplineSet
212 -9 m 0,0,1
 138 -9 138 -9 93.5 41.5 c 128,-1,2
 49 92 49 92 49 178 c 256,3,4
 49 264 49 264 93.5 315.5 c 128,-1,5
 138 367 138 367 211 367 c 0,6,7
 288 367 288 367 332.5 316 c 128,-1,8
 377 265 377 265 377 179 c 0,9,10
 377 94 377 94 332.5 42.5 c 128,-1,11
 288 -9 288 -9 212 -9 c 0,0,1
116 53 m 1,12,-1
 289 322 l 1,13,14
 255 345 255 345 211 345 c 0,15,16
 149 345 149 345 112 300.5 c 128,-1,17
 75 256 75 256 75 179 c 0,18,19
 75 99 75 99 116 53 c 1,12,-1
307 307 m 1,20,-1
 134 37 l 1,21,22
 166 13 166 13 211 13 c 0,23,24
 276 13 276 13 313.5 58 c 128,-1,25
 351 103 351 103 351 178 c 0,26,27
 351 263 351 263 307 307 c 1,20,-1
EndSplineSet
EndChar

StartChar: ugrave
Encoding: 249 249 182
Width: 416
GlyphClass: 1
Flags: W
LayerCount: 2
Fore
SplineSet
223 440 m 2,0,-1
 155 496 l 2,1,2
 154 498 154 498 154.5 500 c 128,-1,3
 155 502 155 502 158 502 c 2,4,-1
 181 502 l 2,5,6
 189 502 189 502 193 500 c 128,-1,7
 197 498 197 498 202 493 c 2,8,-1
 260 436 l 2,9,10
 265 431 265 431 256 431 c 2,11,-1
 248 431 l 2,12,13
 239 431 239 431 235 432 c 128,-1,14
 231 433 231 433 223 440 c 2,0,-1
208 -9 m 0,15,16
 139 -9 139 -9 103 32.5 c 128,-1,17
 67 74 67 74 67 159 c 2,18,-1
 67 357 l 2,19,20
 67 360 67 360 70 360 c 2,21,-1
 72 360 l 2,22,23
 80 360 80 360 86.5 354 c 128,-1,24
 93 348 93 348 93 332 c 2,25,-1
 93 156 l 2,26,27
 93 86 93 86 122.5 49.5 c 128,-1,28
 152 13 152 13 208 13 c 0,29,30
 323 13 323 13 323 156 c 2,31,-1
 323 357 l 2,32,33
 323 360 323 360 326 360 c 2,34,-1
 328 360 l 2,35,36
 336 360 336 360 342.5 354 c 128,-1,37
 349 348 349 348 349 332 c 2,38,-1
 349 159 l 2,39,40
 349 77 349 77 312.5 34 c 128,-1,41
 276 -9 276 -9 208 -9 c 0,15,16
EndSplineSet
EndChar

StartChar: uacute
Encoding: 250 250 183
Width: 416
GlyphClass: 1
Flags: W
LayerCount: 2
Fore
SplineSet
260 496 m 2,0,-1
 193 440 l 2,1,2
 185 433 185 433 180.5 432 c 128,-1,3
 176 431 176 431 168 431 c 2,4,-1
 159 431 l 2,5,6
 151 431 151 431 156 436 c 2,7,-1
 214 493 l 2,8,9
 219 498 219 498 223 500 c 128,-1,10
 227 502 227 502 235 502 c 2,11,-1
 258 502 l 2,12,13
 260 502 260 502 261 500 c 128,-1,14
 262 498 262 498 260 496 c 2,0,-1
208 -9 m 0,15,16
 139 -9 139 -9 103 32.5 c 128,-1,17
 67 74 67 74 67 159 c 2,18,-1
 67 357 l 2,19,20
 67 360 67 360 70 360 c 2,21,-1
 72 360 l 2,22,23
 80 360 80 360 86.5 354 c 128,-1,24
 93 348 93 348 93 332 c 2,25,-1
 93 156 l 2,26,27
 93 86 93 86 122.5 49.5 c 128,-1,28
 152 13 152 13 208 13 c 0,29,30
 323 13 323 13 323 156 c 2,31,-1
 323 357 l 2,32,33
 323 360 323 360 326 360 c 2,34,-1
 328 360 l 2,35,36
 336 360 336 360 342.5 354 c 128,-1,37
 349 348 349 348 349 332 c 2,38,-1
 349 159 l 2,39,40
 349 77 349 77 312.5 34 c 128,-1,41
 276 -9 276 -9 208 -9 c 0,15,16
EndSplineSet
EndChar

StartChar: ucircumflex
Encoding: 251 251 184
Width: 416
GlyphClass: 1
Flags: W
LayerCount: 2
Fore
SplineSet
209 486 m 1,0,-1
 158 440 l 2,1,2
 149 433 149 433 145 432 c 128,-1,3
 141 431 141 431 133 431 c 2,4,-1
 125 431 l 2,5,6
 117 431 117 431 122 436 c 2,7,-1
 179 493 l 2,8,9
 184 498 184 498 188 500 c 128,-1,10
 192 502 192 502 200 502 c 2,11,-1
 217 502 l 2,12,13
 225 502 225 502 229.5 500 c 128,-1,14
 234 498 234 498 238 493 c 2,15,-1
 296 436 l 2,16,17
 298 434 298 434 296.5 432.5 c 128,-1,18
 295 431 295 431 293 431 c 2,19,-1
 285 431 l 2,20,21
 277 431 277 431 272.5 432 c 128,-1,22
 268 433 268 433 260 440 c 2,23,-1
 209 486 l 1,0,-1
208 -9 m 0,24,25
 139 -9 139 -9 103 32.5 c 128,-1,26
 67 74 67 74 67 159 c 2,27,-1
 67 357 l 2,28,29
 67 360 67 360 70 360 c 2,30,-1
 72 360 l 2,31,32
 80 360 80 360 86.5 354 c 128,-1,33
 93 348 93 348 93 332 c 2,34,-1
 93 156 l 2,35,36
 93 86 93 86 122.5 49.5 c 128,-1,37
 152 13 152 13 208 13 c 0,38,39
 323 13 323 13 323 156 c 2,40,-1
 323 357 l 2,41,42
 323 360 323 360 326 360 c 2,43,-1
 328 360 l 2,44,45
 336 360 336 360 342.5 354 c 128,-1,46
 349 348 349 348 349 332 c 2,47,-1
 349 159 l 2,48,49
 349 77 349 77 312.5 34 c 128,-1,50
 276 -9 276 -9 208 -9 c 0,24,25
EndSplineSet
EndChar

StartChar: udieresis
Encoding: 252 252 185
Width: 416
GlyphClass: 1
Flags: W
LayerCount: 2
Fore
SplineSet
144 445 m 256,0,1
 144 453 144 453 150 458.5 c 128,-1,2
 156 464 156 464 163 464 c 0,3,4
 182 464 182 464 182 445 c 256,5,6
 182 426 182 426 163 426 c 0,7,8
 156 426 156 426 150 431.5 c 128,-1,9
 144 437 144 437 144 445 c 256,0,1
235 445 m 256,10,11
 235 464 235 464 254 464 c 256,12,13
 273 464 273 464 273 445 c 256,14,15
 273 426 273 426 254 426 c 256,16,17
 235 426 235 426 235 445 c 256,10,11
208 -9 m 0,18,19
 139 -9 139 -9 103 32.5 c 128,-1,20
 67 74 67 74 67 159 c 2,21,-1
 67 357 l 2,22,23
 67 360 67 360 70 360 c 2,24,-1
 72 360 l 2,25,26
 80 360 80 360 86.5 354 c 128,-1,27
 93 348 93 348 93 332 c 2,28,-1
 93 156 l 2,29,30
 93 86 93 86 122.5 49.5 c 128,-1,31
 152 13 152 13 208 13 c 0,32,33
 323 13 323 13 323 156 c 2,34,-1
 323 357 l 2,35,36
 323 360 323 360 326 360 c 2,37,-1
 328 360 l 2,38,39
 336 360 336 360 342.5 354 c 128,-1,40
 349 348 349 348 349 332 c 2,41,-1
 349 159 l 2,42,43
 349 77 349 77 312.5 34 c 128,-1,44
 276 -9 276 -9 208 -9 c 0,18,19
EndSplineSet
EndChar

StartChar: yacute
Encoding: 253 253 186
Width: 308
GlyphClass: 1
Flags: W
LayerCount: 2
Fore
SplineSet
201 496 m 2,0,-1
 134 440 l 2,1,2
 125 433 125 433 121 432 c 128,-1,3
 117 431 117 431 109 431 c 2,4,-1
 100 431 l 2,5,6
 92 431 92 431 97 436 c 2,7,-1
 154 493 l 2,8,9
 159 498 159 498 163 500 c 128,-1,10
 167 502 167 502 175 502 c 2,11,-1
 198 502 l 2,12,13
 201 502 201 502 202 500 c 128,-1,14
 203 498 203 498 201 496 c 2,0,-1
141 -2 m 1,15,-1
 19 355 l 2,16,17
 17 360 17 360 23 360 c 2,18,-1
 27 360 l 2,19,20
 46 360 46 360 53 338 c 2,21,-1
 153 35 l 1,22,-1
 260 351 l 2,23,24
 262 360 262 360 271 360 c 2,25,-1
 284 360 l 2,26,27
 289 360 289 360 287 355 c 2,28,-1
 162 -11 l 2,29,30
 144 -63 144 -63 129.5 -98.5 c 128,-1,31
 115 -134 115 -134 97 -152 c 128,-1,32
 79 -170 79 -170 51 -170 c 0,33,34
 22 -170 22 -170 7.5 -153.5 c 128,-1,35
 -7 -137 -7 -137 -7 -125 c 0,36,37
 -7 -116 -7 -116 -1 -116 c 0,38,39
 4 -116 4 -116 7 -123 c 0,40,41
 13 -134 13 -134 25 -141 c 128,-1,42
 37 -148 37 -148 48 -148 c 0,43,44
 68 -148 68 -148 81 -134.5 c 128,-1,45
 94 -121 94 -121 108 -89 c 128,-1,46
 122 -57 122 -57 141 -2 c 1,15,-1
EndSplineSet
EndChar

StartChar: thorn
Encoding: 254 254 187
Width: 441
GlyphClass: 1
Flags: W
LayerCount: 2
Fore
SplineSet
94 74 m 1,0,-1
 94 -157 l 2,1,2
 94 -160 94 -160 91 -160 c 2,3,-1
 71 -160 l 2,4,5
 68 -160 68 -160 68 -157 c 2,6,-1
 68 553 l 2,7,8
 68 556 68 556 71 556 c 2,9,-1
 73 556 l 2,10,11
 80 556 80 556 87 549.5 c 128,-1,12
 94 543 94 543 94 528 c 2,13,-1
 94 284 l 1,14,15
 107 315 107 315 141.5 341 c 128,-1,16
 176 367 176 367 229 367 c 0,17,18
 277 367 277 367 313.5 342.5 c 128,-1,19
 350 318 350 318 371 276 c 128,-1,20
 392 234 392 234 392 179 c 256,21,22
 392 124 392 124 371 81.5 c 128,-1,23
 350 39 350 39 313.5 15 c 128,-1,24
 277 -9 277 -9 228 -9 c 0,25,26
 176 -9 176 -9 142 15 c 128,-1,27
 108 39 108 39 94 74 c 1,0,-1
228 13 m 0,28,29
 290 13 290 13 328 58 c 128,-1,30
 366 103 366 103 366 179 c 256,31,32
 366 255 366 255 328.5 300 c 128,-1,33
 291 345 291 345 229 345 c 0,34,35
 163 345 163 345 127.5 302 c 128,-1,36
 92 259 92 259 92 179 c 0,37,38
 92 100 92 100 127.5 56.5 c 128,-1,39
 163 13 163 13 228 13 c 0,28,29
EndSplineSet
EndChar

StartChar: ydieresis
Encoding: 255 255 188
Width: 308
GlyphClass: 1
Flags: W
LayerCount: 2
Fore
SplineSet
85 445 m 256,0,1
 85 464 85 464 104 464 c 0,2,3
 122 464 122 464 122 445 c 256,4,5
 122 426 122 426 104 426 c 0,6,7
 85 426 85 426 85 445 c 256,0,1
175 445 m 256,8,9
 175 464 175 464 194 464 c 256,10,11
 213 464 213 464 213 445 c 256,12,13
 213 426 213 426 194 426 c 256,14,15
 175 426 175 426 175 445 c 256,8,9
141 -2 m 1,16,-1
 19 355 l 2,17,18
 17 360 17 360 23 360 c 2,19,-1
 27 360 l 2,20,21
 46 360 46 360 53 338 c 2,22,-1
 153 35 l 1,23,-1
 260 351 l 2,24,25
 262 360 262 360 271 360 c 2,26,-1
 284 360 l 2,27,28
 289 360 289 360 287 355 c 2,29,-1
 162 -11 l 2,30,31
 144 -63 144 -63 129.5 -98.5 c 128,-1,32
 115 -134 115 -134 97 -152 c 128,-1,33
 79 -170 79 -170 51 -170 c 0,34,35
 22 -170 22 -170 7.5 -153.5 c 128,-1,36
 -7 -137 -7 -137 -7 -125 c 0,37,38
 -7 -116 -7 -116 -1 -116 c 0,39,40
 4 -116 4 -116 7 -123 c 0,41,42
 13 -134 13 -134 25 -141 c 128,-1,43
 37 -148 37 -148 48 -148 c 0,44,45
 68 -148 68 -148 81 -134.5 c 128,-1,46
 94 -121 94 -121 108 -89 c 128,-1,47
 122 -57 122 -57 141 -2 c 1,16,-1
EndSplineSet
EndChar

StartChar: dotlessi
Encoding: 305 305 189
Width: 161
GlyphClass: 1
Flags: W
LayerCount: 2
Fore
SplineSet
68 3 m 2,0,-1
 68 357 l 2,1,2
 68 360 68 360 71 360 c 2,3,-1
 73 360 l 2,4,5
 80 360 80 360 87 354 c 128,-1,6
 94 348 94 348 94 332 c 2,7,-1
 94 3 l 2,8,9
 94 0 94 0 91 0 c 2,10,-1
 71 0 l 2,11,12
 68 0 68 0 68 3 c 2,0,-1
EndSplineSet
EndChar

StartChar: Lslash
Encoding: 321 321 190
Width: 349
GlyphClass: 1
Flags: W
LayerCount: 2
Fore
SplineSet
104 23 m 1,0,-1
 313 23 l 2,1,2
 326 23 326 23 326 9 c 2,3,-1
 326 6 l 2,4,5
 326 0 326 0 319 0 c 2,6,-1
 81 0 l 2,7,8
 78 0 78 0 78 3 c 2,9,-1
 78 233 l 1,10,-1
 25 206 l 2,11,12
 22 205 22 205 22 208 c 2,13,-1
 22 227 l 2,14,15
 22 231 22 231 25 232 c 2,16,-1
 78 259 l 1,17,-1
 78 553 l 2,18,19
 78 556 78 556 81 556 c 2,20,-1
 83 556 l 2,21,22
 91 556 91 556 97.5 549.5 c 128,-1,23
 104 543 104 543 104 528 c 2,24,-1
 104 273 l 1,25,-1
 257 356 l 2,26,27
 260 358 260 358 260 354 c 2,28,-1
 260 335 l 2,29,30
 260 332 260 332 257 330 c 2,31,-1
 104 247 l 1,32,-1
 104 23 l 1,0,-1
EndSplineSet
EndChar

StartChar: lslash
Encoding: 322 322 191
Width: 206
GlyphClass: 1
Flags: W
LayerCount: 2
Fore
SplineSet
73 232 m 1,0,-1
 25 206 l 2,1,2
 22 205 22 205 22 208 c 2,3,-1
 22 227 l 2,4,5
 22 231 22 231 25 232 c 2,6,-1
 73 257 l 1,7,-1
 73 553 l 2,8,9
 73 556 73 556 76 556 c 2,10,-1
 78 556 l 2,11,12
 86 556 86 556 92.5 549.5 c 128,-1,13
 99 543 99 543 99 528 c 2,14,-1
 99 271 l 1,15,-1
 166 307 l 2,16,17
 169 309 169 309 169 305 c 2,18,-1
 169 286 l 2,19,20
 169 283 169 283 166 281 c 2,21,-1
 99 246 l 1,22,-1
 99 69 l 2,23,24
 99 44 99 44 110 30 c 128,-1,25
 121 16 121 16 143 16 c 0,26,27
 162 16 162 16 172.5 25.5 c 128,-1,28
 183 35 183 35 190 51 c 0,29,30
 193 59 193 59 197 59 c 256,31,32
 201 59 201 59 202.5 55 c 128,-1,33
 204 51 204 51 204 46 c 0,34,35
 204 32 204 32 189 11.5 c 128,-1,36
 174 -9 174 -9 141 -9 c 256,37,38
 108 -9 108 -9 90.5 12 c 128,-1,39
 73 33 73 33 73 68 c 2,40,-1
 73 232 l 1,0,-1
EndSplineSet
EndChar

StartChar: OE
Encoding: 338 338 192
Width: 823
GlyphClass: 1
Flags: W
LayerCount: 2
Fore
SplineSet
522 23 m 1,0,-1
 772 23 l 2,1,2
 786 23 786 23 786 9 c 2,3,-1
 786 6 l 2,4,5
 786 0 786 0 779 0 c 2,6,-1
 500 0 l 2,7,8
 496 0 496 0 496 3 c 2,9,-1
 496 126 l 1,10,11
 472 62 472 62 421 26 c 128,-1,12
 370 -10 370 -10 293 -10 c 0,13,14
 178 -10 178 -10 120.5 67.5 c 128,-1,15
 63 145 63 145 63 277 c 256,16,17
 63 409 63 409 121.5 488 c 128,-1,18
 180 567 180 567 293 567 c 0,19,20
 370 567 370 567 421 529.5 c 128,-1,21
 472 492 472 492 496 426 c 1,22,-1
 496 553 l 2,23,24
 496 556 496 556 500 556 c 2,25,-1
 762 556 l 2,26,27
 776 556 776 556 776 542 c 2,28,-1
 776 539 l 2,29,30
 776 533 776 533 769 533 c 2,31,-1
 522 533 l 1,32,-1
 522 285 l 1,33,-1
 742 285 l 2,34,35
 756 285 756 285 756 271 c 2,36,-1
 756 268 l 2,37,38
 756 262 756 262 749 262 c 2,39,-1
 522 262 l 1,40,-1
 522 23 l 1,0,-1
293 13 m 256,41,42
 351 13 351 13 397 40.5 c 128,-1,43
 443 68 443 68 469.5 126 c 128,-1,44
 496 184 496 184 496 277 c 256,45,46
 496 370 496 370 469.5 429 c 128,-1,47
 443 488 443 488 397 516 c 128,-1,48
 351 544 351 544 293 544 c 256,49,50
 235 544 235 544 188.5 516 c 128,-1,51
 142 488 142 488 115.5 429 c 128,-1,52
 89 370 89 370 89 277 c 256,53,54
 89 184 89 184 115.5 126 c 128,-1,55
 142 68 142 68 188.5 40.5 c 128,-1,56
 235 13 235 13 293 13 c 256,41,42
EndSplineSet
EndChar

StartChar: oe
Encoding: 339 339 193
Width: 691
GlyphClass: 1
Flags: W
LayerCount: 2
Fore
SplineSet
362 101 m 1,0,1
 346 49 346 49 307 20 c 128,-1,2
 268 -9 268 -9 212 -9 c 0,3,4
 138 -9 138 -9 93.5 41.5 c 128,-1,5
 49 92 49 92 49 178 c 256,6,7
 49 264 49 264 93.5 315.5 c 128,-1,8
 138 367 138 367 211 367 c 0,9,10
 269 367 269 367 308 337.5 c 128,-1,11
 347 308 347 308 363 256 c 1,12,13
 379 306 379 306 415.5 336.5 c 128,-1,14
 452 367 452 367 503 367 c 0,15,16
 546 367 546 367 577.5 345.5 c 128,-1,17
 609 324 609 324 627 287 c 128,-1,18
 645 250 645 250 645 203 c 0,19,20
 645 196 645 196 645 193 c 128,-1,21
 645 190 645 190 643 183 c 0,22,23
 642 172 642 172 631 172 c 2,24,-1
 375 172 l 1,25,26
 377 96 377 96 411.5 54.5 c 128,-1,27
 446 13 446 13 508 13 c 0,28,29
 552 13 552 13 582.5 31 c 128,-1,30
 613 49 613 49 626 81 c 0,31,32
 629 89 629 89 635 89 c 0,33,34
 639 89 639 89 640.5 85.5 c 128,-1,35
 642 82 642 82 642 78 c 0,36,37
 642 66 642 66 629 45.5 c 128,-1,38
 616 25 616 25 586.5 8 c 128,-1,39
 557 -9 557 -9 507 -9 c 0,40,41
 452 -9 452 -9 415 20 c 128,-1,42
 378 49 378 49 362 101 c 1,0,1
211 13 m 0,43,44
 276 13 276 13 313.5 58 c 128,-1,45
 351 103 351 103 351 178 c 0,46,47
 351 254 351 254 313.5 299.5 c 128,-1,48
 276 345 276 345 211 345 c 0,49,50
 149 345 149 345 112 300.5 c 128,-1,51
 75 256 75 256 75 179 c 0,52,53
 75 103 75 103 112 58 c 128,-1,54
 149 13 149 13 211 13 c 0,43,44
375 194 m 1,55,-1
 618 194 l 1,56,57
 621 262 621 262 588.5 303.5 c 128,-1,58
 556 345 556 345 502 345 c 0,59,60
 447 345 447 345 413.5 305 c 128,-1,61
 380 265 380 265 375 194 c 1,55,-1
EndSplineSet
EndChar

StartChar: Scaron
Encoding: 352 352 194
Width: 422
GlyphClass: 1
Flags: W
LayerCount: 2
Fore
SplineSet
216 635 m 1,0,-1
 266 681 l 2,1,2
 275 688 275 688 279 689.5 c 128,-1,3
 283 691 283 691 291 691 c 2,4,-1
 299 691 l 2,5,6
 307 691 307 691 303 685 c 2,7,-1
 245 628 l 2,8,9
 241 624 241 624 236.5 621.5 c 128,-1,10
 232 619 232 619 224 619 c 2,11,-1
 207 619 l 2,12,13
 199 619 199 619 195 621.5 c 128,-1,14
 191 624 191 624 186 628 c 2,15,-1
 129 685 l 2,16,17
 126 687 126 687 127.5 689 c 128,-1,18
 129 691 129 691 131 691 c 2,19,-1
 139 691 l 2,20,21
 147 691 147 691 152 689.5 c 128,-1,22
 157 688 157 688 164 681 c 2,23,-1
 216 635 l 1,0,-1
27 103 m 0,24,25
 27 109 27 109 28.5 114 c 128,-1,26
 30 119 30 119 36 119 c 0,27,28
 43 119 43 119 46 109 c 0,29,30
 60 66 60 66 104.5 39 c 128,-1,31
 149 12 149 12 207 12 c 0,32,33
 280 12 280 12 320 48.5 c 128,-1,34
 360 85 360 85 360 149 c 0,35,36
 360 187 360 187 337 210.5 c 128,-1,37
 314 234 314 234 278.5 250.5 c 128,-1,38
 243 267 243 267 202.5 280.5 c 128,-1,39
 162 294 162 294 126 311.5 c 128,-1,40
 90 329 90 329 67.5 355.5 c 128,-1,41
 45 382 45 382 45 424 c 0,42,43
 45 467 45 467 67.5 499 c 128,-1,44
 90 531 90 531 128 549 c 128,-1,45
 166 567 166 567 214 567 c 0,46,47
 261 567 261 567 294 555 c 128,-1,48
 327 543 327 543 355 527 c 0,49,50
 371 517 371 517 375 511.5 c 128,-1,51
 379 506 379 506 376 498 c 2,52,-1
 375 495 l 2,53,54
 372 488 372 488 369 488 c 256,55,56
 366 488 366 488 363.5 490 c 128,-1,57
 361 492 361 492 359 493 c 0,58,59
 322 520 322 520 288.5 532 c 128,-1,60
 255 544 255 544 214 544 c 0,61,62
 151 544 151 544 111 512 c 128,-1,63
 71 480 71 480 71 426 c 0,64,65
 71 388 71 388 93.5 364.5 c 128,-1,66
 116 341 116 341 152 325 c 128,-1,67
 188 309 188 309 228.5 295.5 c 128,-1,68
 269 282 269 282 304.5 264.5 c 128,-1,69
 340 247 340 247 363 220 c 128,-1,70
 386 193 386 193 386 150 c 0,71,72
 386 77 386 77 338.5 33 c 128,-1,73
 291 -11 291 -11 209 -11 c 0,74,75
 161 -11 161 -11 126.5 2 c 128,-1,76
 92 15 92 15 70 34 c 128,-1,77
 48 53 48 53 37.5 72 c 128,-1,78
 27 91 27 91 27 103 c 0,24,25
EndSplineSet
EndChar

StartChar: scaron
Encoding: 353 353 195
Width: 299
GlyphClass: 1
Flags: W
LayerCount: 2
Fore
SplineSet
150 446 m 1,0,-1
 201 492 l 2,1,2
 209 499 209 499 213.5 500.5 c 128,-1,3
 218 502 218 502 226 502 c 2,4,-1
 234 502 l 2,5,6
 236 502 236 502 237.5 500 c 128,-1,7
 239 498 239 498 237 496 c 2,8,-1
 179 439 l 2,9,10
 171 431 171 431 158 431 c 2,11,-1
 141 431 l 2,12,13
 128 431 128 431 120 439 c 2,14,-1
 63 496 l 2,15,16
 61 498 61 498 62 500 c 128,-1,17
 63 502 63 502 66 502 c 2,18,-1
 74 502 l 2,19,20
 82 502 82 502 87 500.5 c 128,-1,21
 92 499 92 499 99 492 c 2,22,-1
 150 446 l 1,0,-1
256 324 m 2,23,-1
 255 319 l 2,24,25
 253 313 253 313 250 313 c 0,26,27
 245 313 245 313 240 318 c 0,28,29
 221 332 221 332 200 338 c 128,-1,30
 179 344 179 344 150 344 c 0,31,32
 110 344 110 344 86 326 c 128,-1,33
 62 308 62 308 62 276 c 0,34,35
 62 249 62 249 83 233 c 128,-1,36
 104 217 104 217 135.5 206 c 128,-1,37
 167 195 167 195 198 182 c 128,-1,38
 229 169 229 169 250 149.5 c 128,-1,39
 271 130 271 130 271 96 c 0,40,41
 271 49 271 49 236 19 c 128,-1,42
 201 -11 201 -11 149 -11 c 0,43,44
 108 -11 108 -11 81 5 c 128,-1,45
 54 21 54 21 41 41 c 128,-1,46
 28 61 28 61 28 74 c 256,47,48
 28 87 28 87 35 87 c 0,49,50
 39 87 39 87 44 78 c 0,51,52
 60 42 60 42 86.5 27 c 128,-1,53
 113 12 113 12 149 12 c 0,54,55
 191 12 191 12 218 33.5 c 128,-1,56
 245 55 245 55 245 92 c 0,57,58
 245 121 245 121 224 137.5 c 128,-1,59
 203 154 203 154 172 165.5 c 128,-1,60
 141 177 141 177 109.5 189 c 128,-1,61
 78 201 78 201 57 220.5 c 128,-1,62
 36 240 36 240 36 273 c 0,63,64
 36 314 36 314 68.5 340.5 c 128,-1,65
 101 367 101 367 150 367 c 0,66,67
 177 367 177 367 196.5 363 c 128,-1,68
 216 359 216 359 236 349 c 0,69,70
 250 342 250 342 253.5 335.5 c 128,-1,71
 257 329 257 329 256 324 c 2,23,-1
EndSplineSet
EndChar

StartChar: Ydieresis
Encoding: 376 376 196
Width: 421
GlyphClass: 1
Flags: W
LayerCount: 2
Fore
SplineSet
137 634 m 256,0,1
 137 642 137 642 143 647.5 c 128,-1,2
 149 653 149 653 156 653 c 0,3,4
 175 653 175 653 175 634 c 256,5,6
 175 615 175 615 156 615 c 0,7,8
 149 615 149 615 143 620.5 c 128,-1,9
 137 626 137 626 137 634 c 256,0,1
228 634 m 256,10,11
 228 653 228 653 247 653 c 256,12,13
 266 653 266 653 266 634 c 256,14,15
 266 615 266 615 247 615 c 256,16,17
 228 615 228 615 228 634 c 256,10,11
196 223 m 1,18,-1
 15 552 l 2,19,20
 14 553 14 553 15 554.5 c 128,-1,21
 16 556 16 556 18 556 c 2,22,-1
 22 556 l 2,23,24
 33 556 33 556 39.5 551.5 c 128,-1,25
 46 547 46 547 53 533 c 2,26,-1
 209 247 l 1,27,-1
 377 547 l 2,28,29
 383 556 383 556 391 556 c 2,30,-1
 403 556 l 2,31,32
 406 556 406 556 407 554.5 c 128,-1,33
 408 553 408 553 407 552 c 2,34,-1
 222 223 l 1,35,-1
 222 3 l 2,36,37
 222 0 222 0 219 0 c 2,38,-1
 199 0 l 2,39,40
 196 0 196 0 196 3 c 2,41,-1
 196 223 l 1,18,-1
EndSplineSet
EndChar

StartChar: Zcaron
Encoding: 381 381 197
Width: 437
GlyphClass: 1
Flags: W
LayerCount: 2
Fore
SplineSet
224 635 m 1,0,-1
 274 681 l 2,1,2
 283 688 283 688 287 689.5 c 128,-1,3
 291 691 291 691 299 691 c 2,4,-1
 307 691 l 2,5,6
 315 691 315 691 311 685 c 2,7,-1
 253 628 l 2,8,9
 249 624 249 624 244.5 621.5 c 128,-1,10
 240 619 240 619 232 619 c 2,11,-1
 215 619 l 2,12,13
 207 619 207 619 203 621.5 c 128,-1,14
 199 624 199 624 194 628 c 2,15,-1
 137 685 l 2,16,17
 134 687 134 687 135.5 689 c 128,-1,18
 137 691 137 691 139 691 c 2,19,-1
 147 691 l 2,20,21
 155 691 155 691 160 689.5 c 128,-1,22
 165 688 165 688 172 681 c 2,23,-1
 224 635 l 1,0,-1
64 23 m 1,24,-1
 373 23 l 2,25,26
 387 23 387 23 387 9 c 2,27,-1
 387 6 l 2,28,29
 387 0 387 0 382 0 c 2,30,-1
 43 0 l 2,31,32
 40 0 40 0 40 3 c 2,33,-1
 40 16 l 2,34,35
 40 22 40 22 41.5 26.5 c 128,-1,36
 43 31 43 31 47 38 c 2,37,-1
 367 533 l 1,38,-1
 64 533 l 2,39,40
 62 533 62 533 62 536 c 2,41,-1
 62 553 l 2,42,43
 62 556 62 556 64 556 c 2,44,-1
 365 556 l 2,45,46
 389 556 389 556 389 536 c 2,47,-1
 389 532 l 2,48,49
 389 524 389 524 377 505 c 2,50,-1
 64 23 l 1,24,-1
EndSplineSet
EndChar

StartChar: zcaron
Encoding: 382 382 198
Width: 334
GlyphClass: 1
Flags: W
LayerCount: 2
Fore
SplineSet
168 446 m 1,0,-1
 218 492 l 2,1,2
 227 499 227 499 231 500.5 c 128,-1,3
 235 502 235 502 243 502 c 2,4,-1
 251 502 l 2,5,6
 259 502 259 502 255 496 c 2,7,-1
 197 439 l 2,8,9
 189 431 189 431 176 431 c 2,10,-1
 159 431 l 2,11,12
 146 431 146 431 138 439 c 2,13,-1
 81 496 l 2,14,15
 78 498 78 498 79.5 500 c 128,-1,16
 81 502 81 502 83 502 c 2,17,-1
 91 502 l 2,18,19
 99 502 99 502 104 500.5 c 128,-1,20
 109 499 109 499 116 492 c 2,21,-1
 168 446 l 1,0,-1
66 23 m 1,22,-1
 290 23 l 2,23,24
 293 23 293 23 293 20 c 2,25,-1
 293 3 l 2,26,27
 293 0 293 0 290 0 c 2,28,-1
 42 0 l 2,29,30
 39 0 39 0 39 3 c 2,31,-1
 39 21 l 2,32,33
 39 28 39 28 45 37 c 2,34,-1
 262 337 l 1,35,-1
 53 337 l 2,36,37
 50 337 50 337 50 340 c 2,38,-1
 50 357 l 2,39,40
 50 360 50 360 53 360 c 2,41,-1
 262 360 l 2,42,43
 276 360 276 360 282 356 c 128,-1,44
 288 352 288 352 288 338 c 0,45,46
 288 332 288 332 284 325.5 c 128,-1,47
 280 319 280 319 272 308 c 2,48,-1
 66 23 l 1,22,-1
EndSplineSet
EndChar

StartChar: florin
Encoding: 402 402 199
Width: 310
GlyphClass: 1
Flags: W
LayerCount: 2
Fore
SplineSet
48 340 m 2,0,-1
 50 357 l 2,1,2
 50 360 50 360 54 360 c 2,3,-1
 118 360 l 1,4,-1
 139 477 l 2,5,6
 145 512 145 512 165 534 c 128,-1,7
 185 556 185 556 221 556 c 0,8,9
 243 556 243 556 259.5 543.5 c 128,-1,10
 276 531 276 531 276 509 c 0,11,12
 276 505 276 505 274 497.5 c 128,-1,13
 272 490 272 490 266 490 c 0,14,15
 262 490 262 490 260 496 c 0,16,17
 256 515 256 515 247.5 524 c 128,-1,18
 239 533 239 533 219 533 c 0,19,20
 194 533 194 533 181.5 517 c 128,-1,21
 169 501 169 501 165 478 c 2,22,-1
 144 360 l 1,23,-1
 233 360 l 2,24,25
 236 360 236 360 236 357 c 2,26,-1
 233 340 l 2,27,28
 233 337 233 337 229 337 c 2,29,-1
 140 337 l 1,30,-1
 64 -93 l 2,31,32
 58 -127 58 -127 38 -149 c 128,-1,33
 18 -171 18 -171 -18 -171 c 0,34,35
 -40 -171 -40 -171 -56.5 -158.5 c 128,-1,36
 -73 -146 -73 -146 -73 -124 c 0,37,38
 -73 -119 -73 -119 -71 -112.5 c 128,-1,39
 -69 -106 -69 -106 -63 -106 c 0,40,41
 -59 -106 -59 -106 -57 -111 c 0,42,43
 -53 -127 -53 -127 -45 -137.5 c 128,-1,44
 -37 -148 -37 -148 -15 -148 c 0,45,46
 11 -148 11 -148 23 -132 c 128,-1,47
 35 -116 35 -116 39 -93 c 2,48,-1
 114 337 l 1,49,-1
 49 337 l 2,50,51
 48 337 48 337 48 340 c 2,0,-1
EndSplineSet
EndChar

StartChar: circumflex
Encoding: 710 710 200
Width: 178
GlyphClass: 1
Flags: W
LayerCount: 2
Fore
SplineSet
92 486 m 1,0,-1
 40 440 l 2,1,2
 32 433 32 433 27.5 432 c 128,-1,3
 23 431 23 431 15 431 c 2,4,-1
 7 431 l 2,5,6
 -1 431 -1 431 4 436 c 2,7,-1
 62 493 l 2,8,9
 67 498 67 498 71 500 c 128,-1,10
 75 502 75 502 83 502 c 2,11,-1
 99 502 l 2,12,13
 107 502 107 502 111.5 500 c 128,-1,14
 116 498 116 498 120 493 c 2,15,-1
 178 436 l 2,16,17
 183 431 183 431 175 431 c 2,18,-1
 167 431 l 2,19,20
 159 431 159 431 154.5 432 c 128,-1,21
 150 433 150 433 142 440 c 2,22,-1
 92 486 l 1,0,-1
EndSplineSet
EndChar

